/* XPM */
static char *result[] = {
/* columns rows colors chars-per-pixel */
"72 72 128 2 ",
"   c #07505A",
".  c #085965",
"X  c #085F6B",
"o  c #096571",
"O  c #096875",
"+  c #0A6D7A",
"@  c #0A707F",
"#  c #4A667A",
"$  c #0A7584",
"%  c #0A7887",
"&  c #0B7C8C",
"*  c #107C8B",
"=  c #4E6C81",
"-  c #54748A",
";  c #597A92",
":  c #5C7F98",
">  c #0B8292",
",  c #0C8799",
"<  c #0C8A9C",
"1  c #0C8E9F",
"2  c #108595",
"3  c #0C91A3",
"4  c #0D95A8",
"5  c #0D99AD",
"6  c #1590A2",
"7  c #0E9EB2",
"8  c #0EA1B5",
"9  c #0EA3B8",
"0  c #0EA4B9",
"q  c #0EA7BC",
"w  c #0EA9BE",
"e  c #18A5B9",
"r  c #22ACBE",
"t  c #5D809A",
"y  c #5E829C",
"u  c #60859F",
"i  c #6286A0",
"p  c #6689A3",
"a  c #688BA4",
"s  c #6A8CA5",
"d  c #6C8EA6",
"f  c #6F90A8",
"g  c #7091A9",
"h  c #7192A9",
"j  c #7293AA",
"k  c #7494AB",
"l  c #7695AC",
"z  c #7A99AF",
"x  c #7C9AB0",
"c  c #7E9CB1",
"v  c #0FACC2",
"b  c #10AFC6",
"n  c #0FB3C9",
"m  c #15B2C7",
"M  c #10B5CC",
"N  c #19B6CB",
"B  c #10BBD3",
"V  c #16BDD4",
"C  c #29BBCF",
"Z  c #10C1D9",
"A  c #15C0D8",
"S  c #11C3DC",
"D  c #11C6DF",
"F  c #33C5D9",
"G  c #11CAE3",
"H  c #18C9E1",
"J  c #13CEE8",
"K  c #15D2EC",
"L  c #37CFE4",
"P  c #809DB2",
"I  c #839FB4",
"U  c #85A1B5",
"Y  c #88A3B7",
"T  c #89A4B8",
"R  c #8AA5B8",
"E  c #8BA6B9",
"W  c #8DA7BA",
"Q  c #8EA8BB",
"!  c #91ABBD",
"~  c #93ACBE",
"^  c #95ADBF",
"/  c #97AFC0",
"(  c #98B0C1",
")  c #9AB1C2",
"_  c #9CB3C3",
"`  c #9EB5C5",
"'  c #A1B6C6",
"]  c #A2B7C7",
"[  c #A4B9C8",
"{  c #A6BAC9",
"}  c #A7BBCA",
"|  c #A9BDCB",
" . c #ABBECC",
".. c #ACBFCD",
"X. c #ADC0CD",
"o. c #B0C2CF",
"O. c #B1C3D0",
"+. c #B3C4D1",
"@. c #B6C7D3",
"#. c #BACAD5",
"$. c #BBCBD6",
"%. c #BDCCD7",
"&. c #BFCED8",
"*. c #C1CFD9",
"=. c #C2D0DA",
"-. c #C4D1DB",
";. c #C6D3DC",
":. c #C7D4DD",
">. c #CAD6DF",
",. c #CDD8E0",
"<. c #D0DAE2",
"1. c #D3DDE4",
"2. c #D5DEE5",
"3. c #D8E1E7",
"4. c #D9E2E8",
"5. c #DEE6EB",
"6. c #E0E7EC",
"7. c #E2E8ED",
"8. c #E3E9EE",
"9. c #E5EBEF",
"0. c #E7ECF0",
"q. c #E9EEF1",
"w. c #EDF1F4",
"e. c #F3F5F7",
"r. c #F4F6F8",
"t. c #F8F9FA",
"y. c white",
"u. c None",
/* pixels */
"u.u.u.u.u.u.u.u.u.u.u.u.u.u.u.u.u.u.u.u.u.u.u.u.u.u.u.u.u.u.u.u.u.u.u.u.u.u.u.u.u.u.u.u.u.u.u.u.u.u.u.u.u.u.u.u.u.u.u.u.u.u.u.u.u.u.u.u.u.u.u.u.",
"u.u.u.u.u.u.u.u.u.u.u.u.u.u.u.u.u.u.u.u.u.u.u.u.u.u.u.u.u.u.u.u.u.u.u.u.r u.u.u.u.u.u.u.u.u.u.u.u.u.u.u.u.u.u.u.u.u.u.u.u.u.u.u.u.u.u.u.u.u.u.u.",
"u.u.u.u.u.u.u.u.u.u.u.u.u.u.u.u.u.u.u.u.u.u.u.u.u.u.u.u.u.u.u.u.u.u.u.e e e u.u.u.u.u.u.u.u.u.u.u.u.u.u.u.u.u.u.u.u.u.u.u.u.u.u.u.u.u.u.u.u.u.u.",
"u.u.u.u.u.u.u.u.u.u.u.u.u.u.u.u.u.u.u.u.u.u.u.u.u.u.u.u.u.u.u.u.u.u.M w 9 0 u.u.u.u.u.u.u.u.u.u.u.u.u.u.u.u.u.u.u.u.u.u.u.u.u.u.u.u.u.u.u.u.u.u.",
"u.u.u.u.u.u.u.u.u.u.u.u.u.u.u.u.u.u.0 u.u.u.u.u.u.u.u.u.u.u.u.u.u.u.M w 9 0 S u.u.u.u.u.u.u.u.u.u.u.u.u.9 8 u.u.u.u.u.u.u.u.u.u.u.u.u.u.u.u.u.u.",
"u.u.u.u.u.u.u.u.u.u.u.u.u.u.u.u.u.u.5 5 v u.u.u.u.u.u.u.u.u.u.u.u.u.Z M b b B u.u.u.u.u.u.u.u.u.u.u.u.0 q 9 u.u.u.u.u.u.u.u.u.u.u.u.u.u.u.u.u.u.",
"u.u.u.u.u.u.u.u.u.u.u.u.u.u.u.u.u.u.< > > < u.u.u.u.u.u.u.u.u.u.u.n n n v 0 q u.u.u.u.u.u.u.u.u.u.u.4 3 3 5 u.u.u.u.u.u.u.u.u.u.u.u.u.u.u.u.u.u.",
"u.u.u.u.u.u.u.u.u.u.u.u.u.u.u.u.u.u.& $ O O O u.u.u.u.u.u.u.u.u.u.8 8 8 7 7 4 u.u.u.u.u.u.u.u.u.2 & & $ $ % u.u.u.u.u.u.u.u.u.u.u.u.u.u.u.u.u.u.",
"u.u.u.u.u.u.u.u.u.u.u.u.u.u.u.u.u.u.O o X X X o u.u.u.u.u.u.u.u.> > > > > > > u.u.u.u.u.u.u.u.O O X X . X X u.u.u.u.u.u.u.u.u.u.u.u.u.u.u.u.u.u.",
"u.u.u.u.u.u.u.u.u.u.u.u.u.q.8.2.<.:.*.@.o...[ { ` Q P Y P z s s z P U / } X...O.:.3.5.5.8.w.e.e.8.5.,.:.@.o.| ] ~ U P u.u.u.u.u.u.u.u.u.u.u.u.u.",
"u.u.u.u.u.u.u.u.u.u.u.u.9.2.>.=.@.X.} ' / ! T P l g a i : ; - = ; y a j c Y ! `  .@.*.>.2.6.6.6.3.,.*.@...] / W P k a j u.u.u.u.u.u.u.u.u.u.u.u.",
"u.u.u.u.u.u.u.u.u.u.u.u.0.e.#.:.>.,.<.1.2.4.4.5.7.9.q.w.w.w.w.w.w.q.q.9.7.6.4.3.2.2.<.,.>.:.;.*.%.$.@.@.O.X...| { ~ q.j u.u.u.u.u.u.u.u.u.u.u.u.",
"u.u.u.u.u.u.u.u.u.u.u.u.0.e.) O.@.$.&.=.:.>.<.2.4.5.7.8.8.8.8.8.6.5.4.2.<.>.:.=.%.#.@.O...} ] ` ) ^ ! W T U P z l : q.j u.u.u.u.u.u.u.u.u.u.u.u.",
"u.u.u.u.u.u.u.u.u.u.u.u.0.e.` @.#.%.=.;.>.<.2.3.5.7.8.8.8.8.8.8.5.4.2.<.,.:.-.&.#.@.O...} [ ` _ ^ ! W T U P z l h ; q.j u.u.u.u.u.u.u.u.u.u.u.u.",
"u.u.u.u.u.u.u.u.u.u.u.u.0.e.{ #.&.=.:.>.<.2.4.5.8.8.8.8.8.8.7.5.3.2.<.>.:.=.&.#.@.o...} ] ` ) / ! W Y U P z l j d - q.j u.u.u.u.u.u.u.u.u.u.u.u.",
"u.u.u.u.u.u.u.u.u.u.u.u.0.e. .%.=.;.>.<.2.3.5.6.8.8.8.8.8.8.5.4.2.<.>.:.-.&.$.@.O...} [ ` _ / ~ W T U P x l k f s - q.j u.u.u.u.u.u.u.u.u.u.u.u.",
"u.u.u.u.u.u.u.u.u.u.u.u.0.r.o.=.:.>.<.2.4.5.7.8.8.8.8.8.7.5.4.2.<.>.;.=.&.#.@.O...} ] ` ) / ! Q Y U P z l j f d p = q.j u.u.u.u.u.u.u.u.u.u.u.u.",
"u.u.u.u.u.B K M w b 3 u.0.r.@.;.>.<.2.4.5.6.8.8.8.8.8.8.5.4.2.<.>.:.-.&.#.@.O.X.} ] ` ) / ~ Q R U P z l k f d p i # q.j u.4 B G G D B u.u.u.u.u.",
"u.u.u.u.u.B Z w 8 7 < @ 0.r.$.>.<.2.4.5.7.8.8.8.8.8.7.5.4.2.<.,.;.=.%.#.@.O...} ] ` ) ^ ! W T U P z l j d s p i y # q.j + , 0 n b M u.u.u.u.u.u.",
"u.u.u.u.u.u.w q 0 7 < @ 0.r.*.<.2.4.5.7.8.8.8.8.8.8.5.4.2.<.,.>.=.&.#.@.O.X.| [ ` ) / ~ Q R U P z l j f d p i y : # q.j o & 3 8 0 q u.u.u.u.u.u.",
"u.u.u.u.u.u.u.9 9 4 , + 0.r.-.2.4.5.7.8.8.8.8.8.7.5.4.2.<.,.:.-.&.#.@.O.X.} [ ` ) ^ ! W T U P x l j d s p i y : t = q.j o & 1 5 7 u.u.u.u.u.u.u.",
"u.u.u.u.u.u.u.u.9 4 , + 0.r.>.3.5.7.8.8.8.8.8.8.5.4.2.<.,.>.-.*.#.@.O.X.| [ ` _ ^ ! Q T U P x z j f s p i y : t y = q.j o & 1 5 u.u.u.u.u.u.u.u.",
"u.u.u.u.u.u.u.u.6 1 , @ 0.r.<.5.7.8.8.8.8.8.8.5.4.2.<.>.:.-.&.$.@.o...} [ ` ) / ! W T U P z l k d s p i y : t y i - q.j o % 3 u.u.u.u.u.u.u.u.u.",
"u.u.u.u.u.u.u.u.u.2 & O 0.r.2.7.8.8.8.8.8.7.5.4.2.<.>.;.=.&.#.@.o...} ] ` ) / ! E Y I P z l j f a i u y : t y i p - q.j X $ u.u.u.u.u.u.u.u.u.u.",
"u.u.u.u.u.u.u.u.u.u.u.. 0.r.4.8.8.8.8.8.8.5.4.2.<.>.:.-.&.$.@.O...} ] ` ) / ~ Q T U P z l j f d p i y : t y u i p - q.j X u.u.u.u.u.u.u.u.u.u.u.",
"u.u.u.u.u.u.u.u.u.u.u.u.0.r.5.8.8.8.8.7.5.4.2.<.>.;.=.&.#.@.O.X.} ] ` ) / ! Q T I P z l j d s p u y : t y i i p d ; q.j u.u.u.u.u.u.u.u.u.u.u.u.",
"u.u.u.u.u.u.u.u.u.u.u.u.0.r.5.8.8.8.7.5.4.2.<.,.:.=.&.#.@.O.X.| ] ` ) / ~ Q R U P z l j f d p i y : t y i i p s d ; q.j u.u.u.u.u.u.u.u.u.u.u.u.",
"u.u.u.u.u.u.u.u.u.u.u.u.0.r.5.8.8.7.5.4.2.<.,.:.*.%.#.@.O...} [ ` ) ^ ! W T U P z l h d s p i y : y y i p p d d h : q.j u.u.u.u.u.u.u.u.u.u.u.u.",
"u.u.u.u.u.u.u.u.u.u.u.u.0.r.5.8.7.5.4.2.<.,.>.-.&.#.@.O.X.| [ ' ) / ! Q R U P x l j f s p i y : t y i i p s d g k y q.j u.u.u.u.u.u.u.u.u.u.u.u.",
"u.u.u.u.u.u.u.u.u.u.u.u.0.r.5.8.5.4.2.<.>.:.-.&.#.@.O.X.} [ ` _ ^ ! W T U P x l j d s p i y : : y i i p s d g k l i q.j u.u.u.u.u.u.u.u.u.u.u.u.",
"u.u.u.u.u.u.u.u.u.u.u.u.0.r.5.5.4.2.<.,.>.-.&.$.@.O.X.| [ ` _ ( ! Q T U P x z k d s p i y : t y i p p s d g k l z p q.j u.u.u.u.u.u.u.u.u.u.u.u.",
"u.u.u.u.u.u.u.u.M 4 $ X 0.r.3.4.2.<.>.:.-.&.#.@.o...} ] ` ) / ~ W Y U P z l j f a p i y : t y u p a d d g k l z c a q.j @ < q B u.u.u.u.u.u.u.u.",
"u.u.u.u.b b M B M 4 $ X 0.r.2.2.<.,.>.-.&.$.@.O.X.| [ ` _ ( ~ Q T U P x l k g d p i y : t y u i p d d g k l z x P d q.j @ < q B D K D u.u.u.u.u.",
"u.u.m m S S G J G q & o 0.r.,.<.>.:.-.&.#.@.O.X.} ] ` ) / ! Q R U P z l j f d p u y : t y u i p s d g k l z x P U g q.j @ < b D Z D G G D Z u.u.",
"N V N A K K K K J n , @ 0.r.>.,.:.=.&.$.@.O.X.| ] ` ) / ~ Q R U P z l k f d p i y : t y u i p a d g k l z x P I U k q.j % 4 n D B B J J J H H V ",
"u.A N A J J G G S b , @ 0.r.=.>.=.&.#.@.O.X.| [ ` ) ^ ! Q T U P z l j f s p i y : t y i p p d d h k l z x P I U R l q.j > 7 M Z B D M M S D H u.",
"u.u.u.V G G G D B q > + 0.r.&.-.&.$.@.O.X.| [ ' ) / ~ Q R U P c l k f d p i y : t y i i p s d f k l z x P I U T W z q.j , q V G K S w w S u.u.u.",
"u.u.u.u.u.G D D B 8 & O 0.r.@.*.$.@.O.X.| [ ` _ ^ ! W T U P x l j f d p i y : : y i i p s d g k l z x P I U T W ! P q.j > 7 B S G D u.u.u.u.u.u.",
"u.u.u.u.u.u.u.u.u.u.& O 0.r.+.%.@.+.X.| [ ' ` ( ! Q T U P x z k f s p i y : : y i i p s d g k l z x P I U T E W ! P q.j > 7 u.u.u.u.u.u.u.u.u.u.",
"u.u.u.u.u.u.u.u.u.u.u.u.0.r.X.@.O.X. .{ ] ` ( ~ Q R U P c z l h d p i y : t y i p a d d h k l z P P U Y T R Q ! ^ U q.j u.u.u.u.u.u.u.u.u.u.u.u.",
"u.u.u.u.u.u.u.u.u.u.u.u.0.r.| +.o. .} ] ` ( ^ ! E Y I c z l j d a i y : : y i i p d d g k l z x P I U T W T ! ~ ( T q.j u.u.u.u.u.u.u.u.u.u.u.u.",
"u.u.u.u.u.u.u.u.u.u.u.u.q.q.} X.} { ] ` ( ~ ! W U I c z l h d a i y : t y u i p d d g k l z x P U U R W Q ! ~ ( _ Q *.h u.u.u.u.u.u.u.u.u.u.u.u.",
"u.u.u.u.u.u.u.u.u.u.u.u.w.2.;.| [ ` ` ( ^ ! W Y I c z l h d a i y t : y i i p s d h k l z x P I Y R E W ! ~ ( _ ` @.z h u.u.u.u.u.u.u.u.u.u.u.u.",
"u.u.u.u.u.u.u.u.u.u.u.u.q.3.y.} ` ) / ! Q T U P I k l j f s p y : : y i p p d d h k z z x P I U R W ! ~ ^ ( _ ` } y.l d u.u.u.u.u.u.u.u.u.u.u.u.",
"u.u.u.u.u.u.u.u.u.u.u.@ . 2.t.W _ ( ~ Q R U P c l l k f d p i y : y i p p s d g k l z x P P U Y W Q ~ ^ ( _ ` ' ~ r.z @ u.u.u.u.u.u.u.u.u.u.u.u.",
"u.u.u.u.u.u.u.u.u.u., % @ 0.,.y.^ ~ Q T U P x z j g f s i y : : y i p a d d h k l z x P I U T E ! ~ ^ ( _ ` ' [ y.z z & 1 7 u.u.u.u.u.u.u.u.u.u.",
"u.u.u.u.u.u.u.u.u., 7 3 < 2 ,.6.U Q R U P c z l f d p i y : : y i p a d f g k l z x P I U Y E Q ~ ^ ( _ ` ] [ ` >.P + > 7 w 0 u.u.u.u.u.u.u.u.u.",
"u.u.u.u.u.u.u.u., 8 G B m 5 % :.y.W U P x z k g s p i y : : y u i a d f h k l z x P I U T W Q ~ ^ ( _ ` ] [  .y.Q   o & 4 8 7 w u.u.u.u.u.u.u.u.",
"u.u.u.u.u.u.u., , 7 K H F r 6 4.$.8.I c z k g d p i y : : y u i a d d g k l z z P I U Y E Q ! ~ ( _ ` ] [ } q.` ! . + % 3 4 7 q u.u.u.u.u.u.u.u.",
"u.u.u.u.u.u.u., , 7 K J L C e 2 $.#.q.z k g d p i y : : y u i p s f h l l z x P I U T E Q ! ^ ( _ ` ] { } q.X.^ . O $ & 4 5 7 q w u.u.u.u.u.u.u.",
"u.u.u.u.u.u.7 1 1 4 B B L F N 4 * +.q.! g d p i y : : y u i p a d h k l z x P I U T E Q ! ~ ( _ ` ] [ } @.w.' . o & < 1 5 7 7 7 7 4 u.u.u.u.u.u.",
"u.u.u.u.u.q 8 q v 9 b b J H u.u.u.u...*.4.a i y : t y u i p s d g k l z x P I U R W ! ~ ^ ( _ ` ] {  .0.<.| u.u.u.u.5 8 5 5 5 8 7 5 5 u.u.u.u.u.",
"u.u.u.u.u.Z b n G B u.u.u.u.u.u.u.u.u.| Q y.y : t y i i p s d g k l z x P I U T Q ! ~ ^ ( _ ` ] { | y.+.+.u.u.u.u.u.u.u.u.u.5 8 8 0 w u.u.u.u.u.",
"u.u.u.u.u.u.u.u.u.u.u.u.u.u.u.u.u.u.u.u.` T y.: y u i p s d f j l z x P I U Y E Q ! ^ ( _ ` ' [  .y.*.$.u.u.u.u.u.u.u.u.u.u.u.u.u.u.u.u.u.u.u.u.",
"u.u.u.u.u.u.u.u.u.u.u.u.u.u.u.u.u.u.u.u.o @.! y.; i p s d g k l z x P I U T E Q ~ ^ ( _ ` ] [ { y.<.4.@ u.u.u.u.u.u.u.u.u.u.u.u.u.u.u.u.u.u.u.u.",
"u.u.u.u.u.u.u.u.u.u.u.u.u.u.u.u.u.u.u.u.% X o.! y.- s d g j l z x P I U Y W Q ! ^ ( _ ` ] [ ) y.4.8.@ , u.u.u.u.u.u.u.u.u.u.u.u.u.u.u.u.u.u.u.u.",
"u.u.u.u.u.u.u.u.u.u.u.u.u.u.u.u.u.u.u.7 < $ o   R q.*.l k l z x P I U T W ! ! ^ ( _ ` ] } 1.y.9.. @ > 3 4 u.u.u.u.u.u.u.u.u.u.u.u.u.u.u.u.u.u.u.",
"u.u.u.u.u.u.u.u.u.u.u.u.u.u.u.u.u.u.u.9 5 < & X ( P X.y.z z x P I U T E Q ! ~ ( _ ` ] } y.w.8.r.@ > 3 5 7 u.u.u.u.u.u.u.u.u.u.u.u.u.u.u.u.u.u.u.",
"u.u.u.u.u.u.u.u.u.u.u.u.u.u.u.u.u.u.u.8 8 5 3 % o . R a y.~ P P U T W Q ~ ^ ( _ ` [ o.y.2.w.. + > < 4 4 5 u.u.u.u.u.u.u.u.u.u.u.u.u.u.u.u.u.u.u.",
"u.u.u.u.u.u.u.u.u.u.u.u.u.u.u.u.u.u.9 8 0 8 5 , $ O u.U j <.e.U T W Q ~ ^ ( _ ` ] r.e.1.w.u.+ > 1 1 3 3 5 u.u.u.u.u.u.u.u.u.u.u.u.u.u.u.u.u.u.u.",
"u.u.u.u.u.u.u.u.u.u.u.u.u.u.u.u.u.u.9 8 q 0 8 3 > u.u.u.u.d ; y.l Q ~ ^ ( _ ` Q y.@.1.u.u.u.u.1 5 4 4 4 5 9 u.u.u.u.u.u.u.u.u.u.u.u.u.u.u.u.u.u.",
"u.u.u.u.u.u.u.u.u.u.u.u.u.u.u.u.u.u.9 9 8 7 5 1 u.u.u.u.u.u.u.y y.>.) ( ) ' ,.y.@.2.u.u.u.u.u.u.5 4 4 5 8 q u.u.u.u.u.u.u.u.u.u.u.u.u.u.u.u.u.u.",
"u.u.u.u.u.u.u.u.u.u.u.u.u.u.u.u.u.u.q 9 5 3 3 u.u.u.u.u.u.u.u.u.i ; y.@.@.y.E ' u.u.u.u.u.u.u.u.u.4 4 5 q q u.u.u.u.u.u.u.u.u.u.u.u.u.u.u.u.u.u.",
"u.u.u.u.u.u.u.u.u.u.u.u.u.u.u.u.u.u.8 5 1 < u.u.u.u.u.u.u.u.u.u.u.U c X.#.( #.u.u.u.u.u.u.u.u.u.u.u.5 5 9 9 u.u.u.u.u.u.u.u.u.u.u.u.u.u.u.u.u.u.",
"u.u.u.u.u.u.u.u.u.u.u.u.u.u.u.u.u.u.5 3 u.u.u.u.u.u.u.u.u.u.u.u.u.> % _ } $ > u.u.u.u.u.u.u.u.u.u.u.u.5 7 9 u.u.u.u.u.u.u.u.u.u.u.u.u.u.u.u.u.u.",
"u.u.u.u.u.u.u.u.u.u.u.u.u.u.u.u.u.u.5 u.u.u.u.u.u.u.u.u.u.u.u.u.u.5 3 1 < 1 u.u.u.u.u.u.u.u.u.u.u.u.u.u.u.q u.u.u.u.u.u.u.u.u.u.u.u.u.u.u.u.u.u.",
"u.u.u.u.u.u.u.u.u.u.u.u.u.u.u.u.u.u.u.u.u.u.u.u.u.u.u.u.u.u.u.u.u.u.q 9 8 8 u.u.u.u.u.u.u.u.u.u.u.u.u.u.u.u.u.u.u.u.u.u.u.u.u.u.u.u.u.u.u.u.u.u.",
"u.u.u.u.u.u.u.u.u.u.u.u.u.u.u.u.u.u.u.u.u.u.u.u.u.u.u.u.u.u.u.u.u.u.M b w v u.u.u.u.u.u.u.u.u.u.u.u.u.u.u.u.u.u.u.u.u.u.u.u.u.u.u.u.u.u.u.u.u.u.",
"u.u.u.u.u.u.u.u.u.u.u.u.u.u.u.u.u.u.u.u.u.u.u.u.u.u.u.u.u.u.u.u.u.u.m v b u.u.u.u.u.u.u.u.u.u.u.u.u.u.u.u.u.u.u.u.u.u.u.u.u.u.u.u.u.u.u.u.u.u.u.",
"u.u.u.u.u.u.u.u.u.u.u.u.u.u.u.u.u.u.u.u.u.u.u.u.u.u.u.u.u.u.u.u.u.u.u.b M u.u.u.u.u.u.u.u.u.u.u.u.u.u.u.u.u.u.u.u.u.u.u.u.u.u.u.u.u.u.u.u.u.u.u.",
"u.u.u.u.u.u.u.u.u.u.u.u.u.u.u.u.u.u.u.u.u.u.u.u.u.u.u.u.u.u.u.u.u.u.u.u.u.u.u.u.u.u.u.u.u.u.u.u.u.u.u.u.u.u.u.u.u.u.u.u.u.u.u.u.u.u.u.u.u.u.u.u.",
"u.u.u.u.u.u.u.u.u.u.u.u.u.u.u.u.u.u.u.u.u.u.u.u.u.u.u.u.u.u.u.u.u.u.u.u.u.u.u.u.u.u.u.u.u.u.u.u.u.u.u.u.u.u.u.u.u.u.u.u.u.u.u.u.u.u.u.u.u.u.u.u."
};
