/* XPM */
static char *result[] = {
/* columns rows colors chars-per-pixel */
"64 64 229 2 ",
"   c #0E1204",
".  c #151A06",
"X  c #151906",
"o  c #1D1A15",
"O  c #18171A",
"+  c #0F0E11",
"@  c #360E0A",
"#  c #3C120D",
"$  c #2C0C13",
"%  c #320E17",
"&  c #221D15",
"*  c #221E19",
"=  c #2C151B",
"-  c #35121A",
";  c #3B141C",
":  c #351318",
">  c #1D230A",
",  c #1C2409",
"<  c #21250D",
"1  c #232B0D",
"2  c #29340E",
"3  c #292F11",
"4  c #25221B",
"5  c #2A2717",
"6  c #3E2E16",
"7  c #332C1C",
"8  c #2B3312",
"9  c #2F3B12",
"0  c #323C15",
"q  c #343B18",
"w  c #1E1B2C",
"e  c #1A1823",
"r  c #351B22",
"t  c #3A1C24",
"y  c #211E32",
"u  c #231F2B",
"i  c #1E2021",
"p  c #232525",
"a  c #2C2B24",
"s  c #2A2A2C",
"d  c #272628",
"f  c #372827",
"g  c #373429",
"h  c #252234",
"j  c #2D2D33",
"k  c #2A253B",
"l  c #2D2A3C",
"z  c #2A2636",
"x  c #2F3133",
"c  c #323435",
"v  c #3C3B33",
"b  c #37383A",
"n  c #302F38",
"m  c #45130E",
"M  c #4D1A13",
"N  c #491711",
"B  c #541C15",
"V  c #591D17",
"C  c #412E17",
"Z  c #5C231B",
"A  c #56231B",
"S  c #453319",
"D  c #4A361A",
"F  c #4D3A1C",
"G  c #4A3816",
"H  c #533D1D",
"J  c #533E19",
"K  c #773800",
"L  c #63251D",
"P  c #68281E",
"I  c #6D2A00",
"U  c #441A24",
"Y  c #4B1E29",
"T  c #481B26",
"R  c #42232C",
"E  c #4E202B",
"W  c #41282F",
"Q  c #51222E",
"!  c #592C25",
"~  c #4C2B35",
"^  c #4A2A34",
"/  c #542531",
"(  c #5A2A36",
")  c #5D2C3A",
"_  c #552935",
"`  c #473736",
"'  c #55323D",
"]  c #473B29",
"[  c #642C23",
"{  c #6B2C23",
"}  c #74352B",
"|  c #622E3C",
" . c #63313E",
".. c #6A3832",
"X. c #773C33",
"o. c #6C3128",
"O. c #3B441C",
"+. c #394518",
"@. c #5E4B16",
"#. c #56421C",
"$. c #5B451D",
"%. c #5D491A",
"&. c #574516",
"*. c #44531E",
"=. c #614C1A",
"-. c #614D17",
";. c #6F4D09",
":. c #7E6A00",
">. c #424D22",
",. c #5B4422",
"<. c #5A4524",
"1. c #4B5626",
"2. c #525D2B",
"3. c #454337",
"4. c #555F30",
"5. c #614924",
"6. c #65532D",
"7. c #69552E",
"8. c #695731",
"9. c #6D5932",
"0. c #675530",
"q. c #715D36",
"w. c #725E38",
"e. c #795F2A",
"r. c #55622A",
"t. c #5B6434",
"y. c #7E632E",
"u. c #75613A",
"i. c #7D6536",
"p. c #68753A",
"a. c #646D3D",
"s. c #2E2B41",
"d. c #322D44",
"f. c #39354D",
"g. c #3D3B4B",
"h. c #373546",
"j. c #3E3A52",
"k. c #3B3750",
"l. c #5A3642",
"z. c #5A3943",
"x. c #423D56",
"c. c #403F4D",
"v. c #663341",
"b. c #6A3544",
"n. c #6C3946",
"m. c #6E3B49",
"M. c #643C49",
"N. c #723C4B",
"B. c #3E4042",
"V. c #424444",
"C. c #48494A",
"Z. c #484559",
"A. c #4F5154",
"S. c #545658",
"D. c #5F444B",
"F. c #75414E",
"G. c #6A4752",
"H. c #794554",
"J. c #67434E",
"K. c #6F7847",
"L. c #4D4963",
"P. c #524D68",
"I. c #58546B",
"U. c #5D5872",
"Y. c #6A677B",
"T. c #615C74",
"R. c #873800",
"E. c #864A00",
"W. c #8A5600",
"Q. c #944F00",
"!. c #956700",
"~. c #967800",
"^. c #8B6C00",
"/. c #A87600",
"(. c #856B36",
"). c #8D733D",
"_. c #90763F",
"`. c #80652F",
"'. c #834A5B",
"]. c #86594F",
"[. c #917641",
"{. c #957A44",
"}. c #9A7E49",
"|. c #977D49",
" X c #996C54",
".X c #9B7656",
"XX c #8D7049",
"oX c #A2735C",
"OX c #895665",
"+X c #925769",
"@X c #986773",
"#X c #AC7F68",
"$X c #A87B63",
"%X c #78824E",
"&X c #978300",
"*X c #B08F04",
"=X c #AF951E",
"-X c #D3A400",
";X c #E2E000",
":X c #9D824D",
">X c #9C8556",
",X c #9F8859",
"<X c #9A8354",
"1X c #A48C5C",
"2X c #A38853",
"3X c #AC915C",
"4X c #A88B45",
"5X c #A98767",
"6X c #B1846D",
"7X c #A79165",
"8X c #A99264",
"9X c #AA956A",
"0X c #AC976C",
"qX c #B48A73",
"wX c #B58A73",
"eX c #BC937C",
"rX c #B59576",
"tX c #B49969",
"yX c #706C84",
"uX c #A17784",
"iX c #9F6E80",
"pX c #BE9780",
"aX c #BF9983",
"sX c #C19A84",
"dX c #C49E8A",
"fX c #C6A28D",
"gX c #CBA996",
"hX c #D1B09C",
"jX c #D2B4A3",
/* pixels */
"rX,X<X,X2X,X>X<X>X,X1X8X1X1X1X1X1X1X1X8X1X<X>X1X1X1X1X1X8X1X1X1X1X1X1X1X,X,X1X1X8X8X8X8X8X8X3X1X8X3X7X,X>X1X7X8X7X8X1X1X1X,X,Xi.",
"9X{.{.[._.[.[.).[.{.{.:X:X:X:X:X:X}.:X:X{._.{.{.:X{.{.}.}.{.|.:X{.[.{.|.[.[.[.|.}.}.}.2X2X}.oX|.:X:X:X:X[.{.{.{.{.{.|.}.:X{.{.8.",
"7X:Xu.6.9.9.8.7.7.9.9.u.u.9.u.q.9.8.9.9.9.9.q.u.q.q.q.q.q.u.i.G.q.q.9.9.9.9.9.9.w.w.w.w.w.w.w.9.q.u.u.q.7.q.9.8.w.q.q.q.[.{.{.0.",
"7X{.7.S D D F F F D F D S S G G G G F D G F F F F F F H H F J H H F F F F F F F F D D S S S S C 6 6 6 6 C C C C C C 6 6 6 <X[.7.",
"7X_.4.D D H H H #.D D G G G G G G G G G D H H H F H H H H H H H H F F F F F F D D S C C S C u h.Z.g.z t.K.K.t.C S 6 6 C 6 8X{.6.",
"7X{.0.D H H H H #.#.#.G &.J G &.J J G J J H ,.,.<.<.,.,.,.<.H H H H H F F F F F D D D S D D l d.Z.g.l t.K.K.a.N.H.'.H.N.' 0X{.6.",
"9X).6.#.H H ,.,.#.#.#.&.&.&.&.&.&.&.&.#.#.$.H H ,.,.,.5.<.,.H H H F F F F F F D D sXfXhXgXsXz c.Z.g.l t.K.%Xa.N.'.OXOXJ. .9X{.7.",
"9X:X6.#.H ,.=.,.#.&.%.7 5 7 5 5 5 5 7 &.&.#.$.,.,.,.5.5.5.<.5.H H F F F F F D F D sXgXhXgXsXj P.Y.I.h.t.%X%Xt.H.H.'.H.F. .0X|.6.",
"8X_.7.H $.,.=.$.&.%.g a 4 4 * 4 * = 5 7 %.&.$.,.5.5.5.5.5.5.,.J H F F ~ l.l.l.l.^ pXgXgXgXpXh Z.Y.I.l 2.a.a.4.N.H.H.H.F.) 0X:X7.",
"9X{.7.H ,.$.5.$.%.@.7 a 4 4 4 4 * * * 7 @.=.=.=.=.5.5.=.5.5.,.' m.N.M.~ l.l.l.l.R pXgXgXfXeXz c.I.x.z 2.p.K.4.m.N.H.F.m. .0X:X7.",
"8X[.7.H H =.%.=.&.@.@.7 * & 4 4 & c 3 -.@.@.%.$.,.H $.#.H H H M.G.G.z.^ ^ l.l.~ Q #XpXdXpX6Xk c.Z.f.h 1.a.p.2.v.F.H.H.n.( 0X:X7.",
"9X{.7.H 5.5.5.-.@.-.-.7 /.*X;X;X-X*X5 -.-.-.=.=.5.=.o.H 5.H J M.M.M.l.R l.l.l.l._ #XsXdXpX6Xl f.Z.f.z >.8.p.1.v.F.F.N.n.) 0X:X9.",
"0X{.6.H ,.=.=.-.3.v ] C./.-X;X;X-X-X4 v 3.3.-.=.=.,.H H #.#.H ' M.G.l.r R ~ ^ ^ t #XwXsXpX#Xz d.f.h.l O.2.2.>.v.m.F.F.v.( 9X{.9.",
"0X{.6.5.,.=.=.3.* o o o = 5 5 7 o & o o 5 5 5 -.=.` ` C.V.B.b ~ J.M.z.t R ' l.l.R wXdXfXdXwXh d.x.x.n O.r.t.1. .b.F.m.n.( 9X:X9.",
"9X[.6.H $.=.-.3.o o & $ & & 5 & * * * & & 4 5 -.%.v v C.V.B.c ~ G.G.M.r f ~ l.W r wXsXfXdXwXu f.T.Z.l O.r.t.>.( v.H.N.n.( 7X{.8.",
"0X{.8.=.$.%.-.` i I K * K ;.* o K E.* I I g 7 -.%.g 3.C.C.B.b ~ G.G.M.R ~ M.l.~ R 6XpXfXpXwXu Z.Y.A.h q 2.r.O._ v.H.F.M.) 7X}.9.",
"rX{.9.,.$.-.-.] W.a E.* E.Q.!.~.!.!.4 !.a E.g -.-.v 3.C.C.b x z.H.I.z.^ E l.l.^ R #XpXdXaX6Xu g.I.h.h 9 1.2.O.) n.F.F.' ) 9X:X7.",
"9X{.w.#.$.%.-.g Q.4 W.d E.4 /.*Xa W.a ^.* Q.7 -.-.v 3.C.B.b g ' G.M.l.t W l.^ ^ R #XeXdXpX#Xh d.g.n w 9 O.1.O.) n.F.F.) Q 7X_.6.",
"tX}.9.$.$.-.=.g Q.R.W.a f o *X&Xa g v R.Q.Q.7 -.@.3.3.B.B.c s ' M.z.l.t ^ ~ l.W R #XeXdXpX6Xu l d.k w 3 >.1.O.| v.J.b.) E 7X_.6.",
"rX:X9.,.$.-.-.g ~.W.v 4 * ~.=X4X~.4 g * W.!.g -.-.v v v v s p C.G.G.z.r t t l.t r #XwXaXeX$Xw z Z.d.e 8 >.1.+.) ) v. ._ R 8X_.6.",
"rX}.w.$.=.-.-.] ~.^.b 4 :.&X4X:X&X:.v * ^.&Xg -.=.g v v c s p R l.l.^ r t ^ l.f r #XwXaXpX#Xe f.I.C.e 8 O.>.q / )  . ._ T 7X[.0.",
"rX}.8.J $.$.%.g o o a * O * < i * a * 4 4 a 7 -.-.7 g c c x p f l.l.^ = t R f r = $XwXpXwX$Xe h c.l e 8 >.>.8 Y Q  .) _ T 7X[.8.",
"tX:X7.$.#.=.-.g ~.~.;.4 :.~.=X4X&X:.4 :.~.~.5 -.%.a g b v x p D.G.G.D.r ^ ^ ^ R r $X6XpXwX Xe y k h O 3 q q < T _  .' ) Y 7X[.6.",
"9X:X7.J #.@.@.g Q.R.C.4 * ~.-X*X~.x p 4 W.Q.5 -.@.g g v c s i ^ l.l.W f T ^ ^ t r $X#XpX6X$Xe y k h e < 9 q < Y )  .( / t 7X).6.",
"0X:X6.&.#.&.@.g R.R.v * * /.*X*X!.g o 4 W.Q.7 -.%.g g c x p i W ^ ~ t r t E R T r  X6XeX6XoXe y g.h e > 8 8 , E ) ) ( E t 7X[.8.",
"0X:X8.G <.&.@.g W.a E.& ;.* /./.4 W.* E.O Q.4 %.@.a g s d a O ' z.z.l.= r l R t r .X#XwX6XoX+ k S.d.O , < 2 1 T _ _ ~ R ; 7X[.9.",
"9X{.6.#.#.&.@.v E.f K & E.a !.W.4 W.* ;.4 R.5 %.@.a a a d e O f f ^ r = t f R t = oX#XeXwX$X+ w f.h e . 1 9 1 T E Q / N ; 7X[.0.",
"9X:X0.D #.#.@.3.o I I f K ;.a a K K f K I g 5 %.%.5 p p p i O r t ^ r = t t ^ t -  X#XeX6XoXO w h w O . 1 8 < U T Q E R - 7X[.8.",
"9X:X9.F #.#.&.%.7 a ] x a v a o a c a 5 v g %.%.<.* 1 i i i O = t Y : = r R ^ t = .X$XqX6XoX+ e h w + X 1 2 , ; T E Y t - 9X[.0.",
"7X:X8.S F #.&.&.&.@.@.1 & & < 4 4 < < @.%.$.$.<.#.o i i i i + * t f r = = t R r =  XoXwX$X X+ e h w e X 1 2 , % T Y Y t - 7X[.8.",
"7X:X2.XXXX<X<X<X<X,X>X>X>X>X:X|.<X2X>X,X2X<X|.|.<X,X,X,X,X>X<X[.<X>X,X>X>X<X.X|.:X<X>X,X>X>X.X<X|.>X<X>X<X<X<X<X.X<X<XXXXX7X[.8.",
"7X_.7.[.XXi.[._.<X3XtX3X}._.[.{.:X3XtX3X}.[.|.{.:X3XtX3X:X[.:X:X:X1XtX3X}.XX{.|.:X3XtX1X{.XX|.[.}.1XtX3X:X).)._.:X2X8X<Xi.9X[.0.",
"9X[.0.XX(.`.e.(.(.(.[.2X:X).`.(.(.(._.:X:X).`.`.(.).{.:X{.(.i.(.).(.[.}.{.).`.`.(.`.).{._.(.e.y.`.(.).:X|.).y.`.`.`.`.XXi.7X|.8.",
"7X).0.<.6.6.8.9.7.9.6.6.8.9.9.9.q.9.6.6.9.9.8.8.8.9.0.6.8.8.7.8.q.q.9.6.8.8.9.9.9.9.7.6.9.9.7.7.7.9.7.6.9.9.6.6.6.9.6.,.<.7X[.0.",
"9X).8.D ] D H H H G F F D D G G G S S S S S S S S S S S S S 6 S C S S S S S S C  .N.F.b. .N.N.b. .N.F. .L.U.U.U.P.F F ] D 7X).8.",
"0X[.9.D D F H H H H G D D D 8 q 1.O.8 8 0 1.O.5 OX@X@XOXD D S C.h.d.x.A.A.Z.Z.C.| n.m.| | n.N.| | n.m. .L.P.I.U.L.H H H F 9X).8.",
"9X[.9.S D D D D D D S D G D 3 0 >.q 8 3 9 >.+.8 OXiXuXOXyXyXyXs.c.A.S.S.S.S.c.A.) n.N. .) m.N. .) n.N. .Z.I.U.U.P.F H G D 9X).8.",
"7X[.8.S S D F F F sXgXjXhXpX1 q >.q 8 3 +.+.+.3 '.@XiX+XyXiXyXs.V.S.S.A.S.S.c.C.) b.m.v.( b.m.v.) n.N. .L.P.U.U.P.F F D S 9X).7.",
"7X[.8.D D D D D D pXgXhXgXpX3 1.p.2.q 1 1.p.2.q '.@X@XOXT.yXT.c.d.A.A.c.S.A.c.C.( b.b. .( b.b.| ( n.b. .x.P.U.U.P.F D D S 9X).7.",
"9X{.9.B P { } { L eXgXhXgXpX< *.p.2.3 < 1.p.2.7 H.OX+XH.T.Y.U.c.g.C.g.S.h.g.C.3._ b.n.) _ b.n.| (  .n.) x.P.T.U.P.F D D S 9X).6.",
"9X{.9.V L { } { V eXfXgXgXeX3 0 1.O.3 1 q 2.q 3 H.+X@X'.U.yXU.b b s.c.c.S.A.V.B.( b.F. .( b.N.v.l.n.N.v.L.U.U.U.P.{ X.} { 0X[.6.",
"9X{.8.B Z { { { L 6XeXdXeX6X2 q >.0 < 1 q >.q < F.+X+X'.I.T.U.c.b A.C.h.S.A.C.B.( uXuXb.( uXuXv.( uXuXv.x.U.I.I.L.o.X.} [ 5X[.6.",
"9X|.8.B Z { } { P 6XpXdXpX6X3 0 >.9 3 3 q >.9 3 b.'.+XH.P.Y.P.y C.C.c.c.A.b h.V.( OX@X| ( OX@X| ( OX+Xv.Z.P.I.I.Z.} } } [ 9X[.6.",
"9X|.9.# M Z L L B #XqXaXeX#X3 3 q 0 3 3 3 q 9 3 | '.'.N.L.U.P.t y y C.h.A.h.b h.Q b.b.) / v.b.) Q v.v.v.x.P.I.L.x.{ } } Z 9X[.6.",
"0X|.0.m M Z { [ B wXdXfXdXqX, 8 O.+.3 < 8 O.q 8  .'.+XN.L.U.P.c b c.C.g.A.s.V.n /  .b.( /  .b.( Q v.v.( x.Z.L.x.j.L } } [ 9X[.6.",
"0X}.8.# M ! ! Z N 6XdXdXdXqX1 0 r.O.3 < 9 r.>.3 | '.'.b.L.I.L.x b ` g.V.A.C.C.x T |  ./ Y ) | / Y v.v.Q k.x.L.j.h.L X.} [ 0X{.6.",
"0X}.8.N L { { { V 6XpXfXaXqX. *.p.1.< > *.p.*.< | H.'.v.x.I.x.x z h h.A.B.b h.n U _ ) E U ( ) E U ( _ Y d.x.x.j.f.[ X.X.[ 0X[.6.",
"0X{.6.B V P P L B 6XeXdXaX6X, +.2.9 > > +.2.9 > / H.N.| x.P.x.j h B.V.V.g.B.x x U ( ) E t ( ) Q U / v.E l f.x.k.f.{ X.X.[ 9X[.6.",
"0X{.8.M V [ L L V 6XeXdXeX#X> 9 q 2 , < 9 q 2 , / b.N.b.x.P.x.h x b h.V.V.b j c T ) v./ T ) v.( U ) v.Q s.k.x.k.f.{ X.} ! 7X[.6.",
"0X{.6.N B Z L P V #XeXfXpX6X> 3 8 1 . > 3 8 1 , E m.N.v.k.Z.L.z h n B.B.B.n j c T ) ) / T ( ( / U ) | / k k.k.x.f.{ o.{ V 7XXX6.",
"9X{.6.@ # A A B m #XwXsXpX$XX 3 *.2 . , 1 +.9 . / m.N.| k.L.x.h p x b V.b n j s T ( ( Y Y / _ Y Y / ( Y s.f.x.x.f.| X.} ! 7X).6.",
"7X[.6.# N A L A N #XqXsXeX5X. 9 r.+.X . +.1.+., Q  .N.| h.Z.k.s p c h B.n n j c U Q ( Y U Q ( Y U Q ( Y k k.x.k.d.V [ [ B 7X).6.",
"9X[.6.$ N M V N @ $X6XpXwX$XX > +.2 . . 1 +.2 . Q  .b./ d.x.h.s h j c B.l c x s U Q Q U U Y Q U U Y Q U k f.x.f.s.B { [ A 7X[.6.",
"7X{.6.m V Z V V N $X6XpXwX$XX , 1 , . . , 1 , . Q | / U s.x.k e s d c c j b s d % T U U ; T T ; ; Y T ; s.f.k.f.s.o.8.....7X).6.",
"7X[.0.m M Z Z B N $X6XpX6X$X  , 1 , .   , 1 , . T ( | U k f.y e p j h z b s f u % U T % % U T ; % U T ; k s.d.s.y V [ L M 9X).<.",
"9X[.6.# N B V B m  X6XeX6XoX. > +., . . , +., . N Y / U y d.y u i s x c c c h u % U Y % % U T % % U T % k s.s.k y V ! A N 9X[.0.",
"8X[.6.# m B B B N oX#XwX6XoX  2 *.9 .   2 *.9 . m U E U w s.k i i h p x x j s p % ; U ; % ; U ; % ; U ; y k s.k y [ [ [ E 9X[.6.",
"9X_.6.# m M B B m oX5XqX6XoX  > 0 1 .   , +., . % T / U w s.k i i s h j e i s i % t U % $ U U % $ U U % w y h k y N B B # 7X[.6.",
"7X[.6.@ m N B M m  XoX6X5X.X  . > X     . , .   % Y / t y s.h i i p i h x i i i $ m U % % ; N % $ ; t % w y h y w m N N # 7X{.7.",
"7X[.5.@ m M B N @ ].oX#X$X].  . > X     . , .   % U Y - w l w i O i i i d p O e $ % ; $ $ % ; $ $ % = $ w w h y w @ m N # 7X[.6.",
"7X{.u.@ @ N M m @ ].XXoX X].    < X       > X   % N U - w z w + O i e w e i O O $ % : $ $ % : $ $ % ; $ O e y w e @ m m # 9X[.0.",
"7X|.).).,X2X>X,X,X,X1X1X2X7X2X1X1X1X2X1X2X1X1X1X1X5X7X5X3X>X1X7X,X>X,X,X>X>X,X1X1X8X8X8X8X8X8X1X1X1X5X2X<X,X1X1X,X7X7X1X0X7X[.0.",
"7X[.).(.).[._.[.[._.[.:X:X{.{.:X}.{.[.[.[.{.{.}.}.}.{.|.:X:X:X:X:X[.{.{.[.{.[.|.}.2X2X2X2X:X2X}.}.<X}.[._.:X:X:X:X:X:X:X:X).XX6.",
"[.7.6.8.7.9.7.7.7.7.9.u.q.9.9.q.q.7.q.q.q.8.7.q.7.q.q.9.u.q.9.q.q.9.q.9.8.9.9.q.w.u.w.u.u.w.q.9.q.u.u.9.7.q.9.q.q.9.q.9.8.7.9.0."
};
