/* XPM */
static char *result[] = {
/* columns rows colors chars-per-pixel */
"64 64 229 2 ",
"   c #050302",
".  c #0B0603",
"X  c #0E0905",
"o  c #120A07",
"O  c #150D09",
"+  c #190E0A",
"@  c #1C120C",
"#  c #17130B",
"$  c #17111E",
"%  c #22150E",
"&  c #241512",
"*  c #251A12",
"=  c #2B1C14",
"-  c #2C141B",
";  c #271419",
":  c #34191A",
">  c #3A140D",
",  c #1F250B",
"<  c #252C0E",
"1  c #2A2613",
"2  c #34231A",
"3  c #39281B",
"4  c #2D3513",
"5  c #333C17",
"6  c #1B1424",
"7  c #1F1728",
"8  c #23192D",
"9  c #261A2E",
"0  c #351A22",
"q  c #3B1D25",
"w  c #3B1D26",
"e  c #271D32",
"r  c #291E33",
"t  c #3E2128",
"y  c #2B2136",
"u  c #2D2339",
"i  c #31253D",
"p  c #32283E",
"a  c #363222",
"s  c #49180A",
"d  c #571D0A",
"f  c #491914",
"g  c #5B1C1C",
"h  c #541919",
"j  c #611E1F",
"k  c #5D220D",
"l  c #5B2303",
"z  c #412E17",
"x  c #4A2416",
"c  c #56291B",
"v  c #413017",
"b  c #443219",
"n  c #4A361B",
"m  c #4D3A1D",
"M  c #533D1E",
"N  c #583F1F",
"B  c #66270A",
"V  c #783809",
"C  c #6C2B12",
"Z  c #652711",
"A  c #732D13",
"S  c #7C3B1C",
"D  c #773417",
"F  c #6E310B",
"G  c #461C26",
"H  c #5B1F21",
"J  c #631F20",
"K  c #44232D",
"L  c #482828",
"P  c #5A2624",
"I  c #4C3629",
"U  c #533E21",
"Y  c #573728",
"T  c #4C2A35",
"R  c #492833",
"E  c #522E3A",
"W  c #582835",
"Q  c #57323D",
"!  c #4B3039",
"~  c #642222",
"^  c #6D2A2A",
"/  c #6B2627",
"(  c #732B2C",
")  c #792D2E",
"_  c #653425",
"`  c #6B3928",
"'  c #733C28",
"]  c #63313D",
"[  c #7B3434",
"{  c #773535",
"}  c #6B2D36",
"|  c #3A441A",
" . c #414A1E",
".. c #59401F",
"X. c #57401E",
"o. c #434E21",
"O. c #554021",
"+. c #5C4422",
"@. c #5C4926",
"#. c #4A5325",
"$. c #525C2C",
"%. c #5C4639",
"&. c #604623",
"*. c #644A25",
"=. c #694D27",
"-. c #6A4E28",
";. c #614F2A",
":. c #79422C",
">. c #65532D",
",. c #6A542D",
"<. c #764332",
"1. c #7B4836",
"2. c #695731",
"3. c #6D5932",
"4. c #675530",
"5. c #715D36",
"6. c #745B39",
"7. c #735931",
"8. c #58632F",
"9. c #7E632E",
"0. c #75613A",
"q. c #7D6536",
"w. c #656F3A",
"e. c #7F400B",
"r. c #352A42",
"t. c #392D46",
"y. c #392D47",
"u. c #3E324C",
"i. c #42344E",
"p. c #5B3641",
"a. c #5E3944",
"s. c #433551",
"d. c #463953",
"f. c #4B3C5B",
"g. c #493B57",
"h. c #623D49",
"j. c #663845",
"k. c #723B4B",
"l. c #4E405E",
"z. c #51415E",
"x. c #5A4941",
"c. c #68434C",
"v. c #6C4853",
"b. c #734D5A",
"n. c #774453",
"m. c #754D56",
"M. c #534462",
"N. c #5A4B69",
"B. c #574966",
"V. c #574967",
"C. c #7D5563",
"Z. c #635471",
"A. c #73635C",
"S. c #823C1C",
"D. c #883F1C",
"F. c #843A3A",
"G. c #803D21",
"H. c #84450E",
"J. c #8B4C11",
"K. c #854419",
"L. c #965715",
"P. c #8F5113",
"I. c #9E621B",
"U. c #A3661D",
"Y. c #8A4624",
"T. c #924E2A",
"R. c #86533B",
"E. c #8C5135",
"W. c #846933",
"Q. c #866C39",
"!. c #8D733D",
"~. c #90763F",
"^. c #80652F",
"/. c #A76B22",
"(. c #AA7026",
"). c #883F41",
"_. c #8C4444",
"`. c #93494A",
"'. c #885843",
"]. c #995353",
"[. c #885255",
"{. c #A25B5B",
"}. c #94624C",
"|. c #8D7647",
" X c #917641",
".X c #957A44",
"XX c #9A7E49",
"oX c #977D49",
"OX c #9C6B53",
"+X c #9A7954",
"@X c #8B664B",
"#X c #A2735B",
"$X c #A6785F",
"%X c #845B67",
"&X c #88626E",
"*X c #926B78",
"=X c #97707D",
"-X c #AA6465",
";X c #A87A64",
":X c #B57374",
">X c #9D824D",
",X c #978051",
"<X c #9C8556",
"1X c #9F8859",
"2X c #9F8758",
"3X c #A48C5C",
"4X c #A38853",
"5X c #AC915C",
"6X c #AD816A",
"7X c #A68F62",
"8X c #B0846D",
"9X c #A79165",
"0X c #A99264",
"qX c #AA956A",
"wX c #AC976C",
"eX c #B28670",
"rX c #B58B75",
"tX c #B98F79",
"yX c #B9927C",
"uX c #B29C72",
"iX c #B59B68",
"pX c #9C7683",
"aX c #BC9681",
"sX c #BF9984",
"dX c #C19B86",
"fX c #C39E8A",
"gX c #C4A28D",
"hX c #C8A48F",
"jX c #C8A591",
/* pixels */
"uX2X<X2X4X1X2X<X<X1X5X0X3X3X0X3X5X3X3X3X3X<X1X3X3X3X3X3X0X3X3X0X3X2X3X7X<X2X3X3X3X0X0X0X0X0X0X3X0X5X9X1X2X3X3X3X5X9X3X3X3X2X2Xq.",
"qX.X.X X~.~.~.!.~.~..X>X>X.X>X>X>X.X>X>X>X~. X.X>X.X~.>XXX.XXXXX.X X.X.X X X.X.X>X,X>X>X>X>X>X,X>X>X>X,X~.~.>X.X.X>X.X>X>X.X.X2.",
"qX.X5.>.2.2.3.2.2.7.5.5.0.5.5.5.0.,.3.3.,.7.7.9.5.3.3.0.5.0.0.3.5.5.3.3.3.3.3.3.0.0.0.0.0.0.0.3.3.0.0.0.,.0.3.7.0.0.3.0.!.>X.X>.",
"qX.X>.n n n b v v 5 z z z z z v v v v b 5 z 3 v v v v m m m m m M m U m U m m U m m U m U m m m X.m m n m m m n b v 3 v 5 >X X>.",
"qX X@.m m n v 3 v 3 3 v z z z v b v v 3 z z z z v v n m m M M M m O.X.M m O.U m M M m O.M M N X.X.m m m m n n n b z z z v 0X.X>.",
"qX X2.m X.m d d l k S F C :.Z C :.S S S D A D ' S.G.S M O.O.+.+.+.+.O.+.+.O.O.+.+.+.+.+.O.+.O...O.X.M m m m m n n b z z v qX.X>.",
"qX X2.m X.m B B Z C :.D S E.K.S E.Y.T.T.T.T.Y.Y.Y.T.T.X.+.+.+.+.+.@.+.+.*.+.@.@.+.+.+.+.@.+.&.@.@.X.M m n n n b k.[.%X[.j.0X.X>.",
"qX X2.X.X.X.Z C Z F :.D S E.K.S.E.T.T.E.T.T.T.T.T.T.T...+.@.*.@.&.@.@.*.*.*.&.&.&.+.&.@.*.*.&.*.@...M m n n n n j.[.[.n.Q qX>X>.",
"qX X,.N +.N d d B k ` Z A E.D D :.S ' Y.Y.Y.Y.G.Y.D.Y.N &.*.*.*.*.*.*.*.=.=.*.*.&.&.*.*.*.*.=.*.*...) F.)._.F.) k.[.[.k.] wX+X4.",
"qX X,.U +.&.- - ; : 0 0 w 0 ; : 0 t K L G 0 0 0 G R T E &.*.=.-.=.=.-.=.=.=.=.*.=.=.=.=.=.=.=.=.*._ ) F.F.).F.( k.k.%Xk.W eX+X2.",
"0X X>.N N N : 0 0 w w w K R t 0 0 R K R T K K t E E Q E &.&.*.*.=.*.*.=.*.&.*.*.*.*.*.&.&.*.*.*.&.&.) F.).F.F.( W j.k.j.R wX>X2.",
"qX X>.&.&.&.t K t t t K R ! t R t T p.p.h.! E T p.a.p.p.*.*.-.-.-.-.-.-.=.=.=.*.=.*.*.*.*.*.=.*.=.&./ F.F.).F.{ W j.k.j.R qX>X3.",
"wX.X,.+...+.K K K K K G R R K ! ! E E p.p.p.p.T a.p.a.h.+.&.-.-.,.-.-.=.&.&.+.&.&.&.+.&.&.+.+.+.&.N j / { { ( / W Q k.Q L 0XoX3.",
"wX X>.+.+.+.0 t w K w q K K 0 K t ! T T T K ! ! p.E p.p.N &.&.-.-.-.-.=.&.....X.N N X.X.....N N N N ~ / { F.[ ^ ] k.n.k.W 0XXX3.",
"qX X>.+.....- - 0 - 0 : 0 : ; 0 0 t R K t 0 K t E R K T M +.*.=.-.-.-.=.+...M N M M M M N N N M N N c ^ { { ( J W k.n.k.W 0XXX2.",
"wX.X2.+.+.> > f f f x x f x c P Z _ c c P _ _ / _ ' ' <.{ R.*.=.-.-.-.=.Q m.&XpX*XC.j.E m.&XpX*XC.j./ ) ).F.F./ W k.k.j.W 0XoX3.",
"wXXX3.+.+.f f x x c c c c c P N ` ` ` ` ` Y ' <.{ <.1.1.R.R.*.-.,.-.=.*.R v.%X*X%XC.h.T v.C.*X&Xb.h.( ) F.[ [ / W j.k.j.W 9XoX2.",
"wX.X6.N U x x x c c _ ` _ ` _ _ <.<.1.1.1.<.<.<.1.R.1.R._.'.&.=.=.-.=.*.R c.%X*X&Xb.p.K h.%X=X&Xb.p.^ ( F.[ [ ( W j.k.j.G 6X.X>.",
"wXXX5.+.X.x c x c c _ Y _ _ _ :.` <.1.1.<.<.1.<.1.1.R.R.'.'.+.&.=.-.-.=.K a.%X=X&Xv.E K h.&XpX%Xv.E / ) { { [ ^ W j.k.W R 7X X>.",
"uX>X3.U X.f s h x x c c _ Y P c _ ` ` <.<.<.{ <.<.' 1.R.1.R.+.=.-.-.-.=.K a.%X*X%Xj.T R a.%X*XC.j.T h j / ^ / H W } k.j.G 7X X>.",
"uX>X3.X.M > > s s f s x c k c c c P _ ` ` ` _ ` _ ' ' ' :.:...*.-.-.-.=.K c.C.&XC.h.K R h.C.&XC.j.K h ~ } { ^ J W ] k.j.W 7X X4.",
"uX>X2.m l l l B F V V V V V S.V V V e.J.P.P.L.L.L.L.L.L.L.I.U.&.=.*.*.+.R j.b.C.b.p.w R a.b.C.C.p.w h ~ ^ ^ J f G W j.W G 7X X4.",
"wX>X>.X.l B F V V V e.H.H.H.H.H.J.H.P.P.P.I.I./.U.U.I.U.U.U.(.*.*.-.=.&.w E h.b.v.p.K w ! a.C.v.p.G J ( { ( ( j W W j.W G 7X X>.",
"qX>X>.X.F F F V V V e.J.H.P.P.J.J.P.P.L.I.I./.U.(.(.U.(.U.(.(.+.&.*.*.+.0 E h.b.b.p.w 0 R c.b.b.p.q J / ( ( / j H W p.W G 7X X>.",
"qX.X3.m B F F V V V V H.J.J.P.J.J.J.P.P.P.I.I.I./.(./.U.U.U.(...+.*.+.+.0 K h.b.v.a.w - K h.b.v.p.G J ~ ( / J g G W j.W G 6X X2.",
"qX>X>.m l d B B B B F V V H.H.H.H.H.H.e.J.P.L.I.I.I.U.I.U.L.U...+.&.+.+.; K a.b.v.T 0 - R a.b.v.T : g J / ( J g G W ] G 0 ;X X3.",
"qX X>.X.. . . . . X   X o o + + + o # # @ & % * % % % * = = = +.+.@.+.O.0 K a.v.h.R 0 - K h.v.c.K - g j ~ / / g G W j.W q 9X X4.",
"wX>X>.n X . o o X o o + @ @ % % % % & * * = %.A.= 2 = 1 : 2 2 U O.+.@.+.0 K a.c.p.q - - G h.h.p.w - h J / ^ J g G W } W q 9X X2.",
"qX>X3.m X o o o o + + + + % & * = * = * = = %.A.3 = = 2 2 2 a +.@.+.+.+.; w p.p.Q w ; ; w p.a.E G ; h g / ^ ~ h H G ] R : 0X X2.",
"qX.X2. ..   X   X X X X o + + @ @ + + @ % & = = = * * = * = = U U O.O.O.& 0 R p.E 0 ; ; 0 R a.p.0 ; h g / / j h G G ] R G 7X X2.",
"qX.X>.q.|.+XoX,XXX3X<X<X4X<X+X,X,X3X<X<X<X<X,X,X,X4X2X<X4X4X+XoX,X<X<X<X<X<X+X+X+X4X<X4X<X<X,XoX,X<X+X<X<X<X,X+X+X<X+X|.@XqX X,.",
"9X~.2.,X!.!.|. X>X5XiX5XoX X X.X>X5XiX5XXX X.X.X4X5XiX5XoX XXXoX>X5XiX5XoX X.X.XXX5XiX3X.X X.X X>X4XiX5X>X X X XoX4X5X<Xq.qX X,.",
"qX~.3.Q.Q.9.7.W.W.W.!.3X>X!.W.Q.W.!.~.>X>X!.9.^.Q.Q..XXX.XQ.^.W.Q.W.~.>X.X!.9.^.Q.W.!.oX XW.7.^.W.^.!..X.X!.9.9.W.9.q.Q.Q.qX|.3.",
"qX~.3.@.;.>.3.3.2.3.;.>.2.2.3.3.3.3.,.>.3.2.2.7.3.5.,.>.2.2.2.>.3.0.3.>.2.2.2.7.3.2.>.-.2.3.4.,.,.5.7.,.3.2.>.>.>.3.>.@.+.9X X2.",
"qX!.>.3 3 v b z yXgXgXgXsXaXgXgXgXsXb b v b 5 n n m U U U U U b n 3 b n v v v v b b b b z b b b v n n n n m U U O.U U m b qX!.2.",
"qX X3.X o @ O X yXgXgXgXyXaXsXfXgXyXn n n I %.>.I M N U U M U f.l.N.Z.Z.Z.Z.B.l.l.z.N.Z.Z.Z.Z.V.f.n n n m m O.+.@.O.O.m m qX!.4.",
"qX X3.. X O o X yXgXgXgXdXaXfXhXgXdX= 3 = I %.m.I m m m m m n f.M.N.N.N.Z.B.B.l.f.z.V.N.N.Z.N.B.l.b b b n m X.+.+.O.O.M m qX!.2.",
"9X~.2.. X o X X yXdXgXgXdXyXdXhXgXdX= 3 * I %.c.Y m m m m m m g.f.M.N.N.B.B.z.d.f.g.M.V.N.N.B.M.g.#.8.w.w.#...@.@.@.O.O.m qX~.>.",
"qX X2.  # a , o tXdXhXhXfXyXsXjXhXfX* 2 = I %.%.I n m n m n n g.f.z.M.N.N.N.z.g.g.f.z.B.N.N.N.f.g.o.8.w.$.o.X...@.+.+.X.X.qX!.>.",
"qX X5.  # a * X tXdXhXhXdXrXsXjXhXaX% 2 * L I Y z D S Y.Y.D.D u.f.f.M.N.M.M.f.u.i.g.f.B.N.z.z.f.u.o.$.w.8.o.X.@.&.&.+.+.m qX!.>.",
"qX.X3.. . @ X . aXfXjXfXsXaXgXjXfXdX@ 2 & 3 Y %.b D S.D.Y.D.A r.y.u.M.M.B.i.i.r.p y.s.M.B.B.d.y.t. .#.w.$.| ..&.=.&.&.....wX X>.",
"qX.X3.. X # o   yXfXfXdXaXyXfXgXdXaX@ * @ 3 I I t A S.D.S.S.A r.y.u.g.g.g.d.i.p r.r.i.d.d.g.d.i.r.a o.$.o.| &.*.=.*.&.+...0X X>.",
"qX,X2.. X o X . aXaXfXfXaXyXsXfXdXaX+ = % = I I 3 A S.K.Y.S.D r.y.u.u.l.d.i.i.y.p y.i.i.g.d.i.i.y.5 o.$.#.| ..&.+...+.X.N qX~.>.",
"wX.X3..   o X X rXaXsXaXeXrXaXsXaXrX+ % + = a L 2 d C D D D C i r.g.g.l.f.f.i.r.p t.g.d.M.f.f.i.r.4 | #.o.4 ..&.+.&.....N qX X>.",
"wX.X2.. X X o . rXrXaXrXeXrXrXaXtXeXO @ + = a L : B C D ' S C i r.y.i.M.d.i.y.i i i y.i.M.d.i.y.u | #.$.#.| +...X.N M m m qX X>.",
"uX.X3.  X 1 # X 8XrXyXrX;X6XrXyXeX;XO % + & L b : d C S S D d e u u.f.M.z.f.y.i r i i.f.f.z.f.y.r.| #.$.#.| M M N M M m m qX.X>.",
"wX.X2.  # a @ . ;XeXrXrX6X;XeXrXeX6XO @ o * 3 3 & A D Y.D.S.C e u r.u.f.s.u.r.i r i r.i.M.s.i.i u 5 o.$.#.| F.].-X:X-X].{ wX X>.",
"wX.X2.  X * X   ;X;XeXrX;X+X6XeXeX6Xo @ o % 3 3 = A D S.S.A A r u s.g.g.d.i.i u r u i.d.g.d.i.i u | | $.o.| ) `.-X:X-X].{ qX X>.",
"wX.X3.  . X . . #X8XeX6X6X#X8XrX6X6Xo @ O % = 3 = A A S.S D A e u r.y.f.y.r.u r r r r.r.g.t.i i u 5 | $.o.5 ( _.-X:X-X`.) 0X X>.",
"wX.X>.  . . .   #X8XeXeX;X#X6XeXeX;XX # O @ 2 2 = C D D S D A e e u.u.u.u.y.u e e r t.s.i.i.y.u r 4 | $. .5 ( E.-X:X{.).^ 7X X>.",
"wX X>.    # X   ;X6XrXrX;X;X6XrXrX6XX + o @ : 2 = d k Z A Z d 9 e u t.u.r.r.u r e e y r.s.r.i i y 4 | $. .4 ) F.-X:X{.F./ 7X X;.",
"qX X>.  X , #   #X8XeX8X;X;X6XeX:X;XX + X @ = 2 & d Z D D A k 8 e r.y.y.u.t.u r 8 e r.y.y.i.t.i y 4 | #. .5 ) `.{.-X].F.~ 9X X;.",
"qX X>.    # X   #X6XeX8X;X#X6X8X8X;X. O . % = = @ s Z C C k d 8 7 e u r.r.r.e 8 8 8 r u r.r.i r 7 4 5 o.| 4 ( F.].{.].[ h qX X;.",
"qX X>.      X   $X6X8X;XOX;X6X6X;X#X. o . @ * % + Z A D D C d 8 e r.r.y.y.r.r e e e u r.y.y.r.r e < | #.| < / [ _.].`.{ P qX X4.",
"qX X>.          #X;X;X$XOX#X;X;X#XOX. . . + % % o k C A D Z k 8 7 y y u u r 8 6 7 7 u u u u e e 6 4 5 o.| < g ) _.].[.[ g 9XQ.>.",
"qX!.>.    o     OX$X#X#X}.OX;X$X#X}.  . . o + % o B B A C Z d 9 y u p r.u r.r 8 8 r u i r.r.i e 8 < 5 | | < h ( _.].`.[ h qX X>.",
"qX X>.  X # .   OXOX#X#X}.OXOX#X#X}.  . . . o + + d Z B A Z k 7 7 u u u r.u e 8 8 8 r r p r.u e e < 4 | 5 < h ( ).]._.^ h qX|.>.",
"9X X>.    X     }.OXOXOX}.}.OXOXOX}.  . . . + % O d d Z Z Z d 7 e r u u u r e 8 6 8 e u u u r e 8 < 4  .5 < g / _.`._.~ f 9X X>.",
"9X X>.          R.}.OX}.'.'.}.}.}.'.    . . o + o d Z Z Z Z d 6 6 e r u r e 9 7 6 7 9 r u r r 9 6 , 4 | 5 < f / ).F.{ P f qX X>.",
"qX|.>.          '.'.}.@XR.'.'.}.@XR.  .   . o + . s d Z B k d 6 6 7 e r r e 7 6 6 6 8 e r r r 8 6 < < | 4 , f j { k.( H > qX X>.",
"9X.X0.          7.m.'.'.1.1.m.!.'.1.      . o O . s s d Z d s $ 6 6 8 e e 8 7 6 $ 6 6 8 9 9 8 7 $ , < 5 < , s h / { ^ f > wX|.>.",
"9X.X!.!.2X3X<X1X4X2X3X3X0X3X4X5X3X3X3X3X<X4X4X3X4X0X5X3X0X3X3X3X3X<X<X3X1X2X2X3X7X5X7X0X0X7X0X3X7X3X3X<X,X3X7X3X1X9X0X7XqX7X X4.",
"9X~.!.Q.!.~.~.~.~.~..X>XXX.X.X>XXX.X.X X X.X.XXXXXXXXXXX>X.XXXXX.X XoX.X X.X XoXXX4X>X4X4X4X4XXX>X,XXX X!.>X.X,XoX>X>XXX.X X|.>.",
"!.2.>.2.2.2.,.>.7.7.3.6.5.3.3.5.6.2.3.6.3.3.3.3.7.3.6.7.6.5.5.5.6.3.5.3.2.3.3.3.0.0.0.0.0.0.5.3.5.0.0.3.>.0.3.0.0.5.6.5.3.,.2.4."
};
