/* XPM */
static char *result[] = {
/* columns rows colors chars-per-pixel */
"64 64 256 2 ",
"   c black",
".  c #E91778",
"X  c #E21C8A",
"o  c #EB194C",
"O  c #EB223C",
"+  c #EB1655",
"@  c #EB166B",
"#  c #EB165B",
"$  c #EB1660",
"%  c #EB1751",
"&  c #F9BD2D",
"*  c #EB1666",
"=  c #DE1F8F",
"-  c #CE2CA0",
";  c #EB1947",
":  c #EA1772",
">  c #9957C2",
",  c #ED3732",
"<  c #935DC5",
"1  c #EB1E42",
"2  c #F8B82D",
"3  c #B63FB1",
"4  c #8569C9",
"5  c #8F60C7",
"6  c #955BC3",
"7  c #E8187E",
"8  c #EC2939",
"9  c #BC3AAD",
"0  c #A250BD",
"q  c #A74CBA",
"w  c #7D70CB",
"e  c #5098D0",
"r  c #ED3E32",
"t  c #C830A5",
"y  c #7974CC",
"u  c #6E7DCE",
"i  c #EC3134",
"p  c #9E53C0",
"a  c #B143B4",
"s  c #F3822E",
"d  c #C235A8",
"f  c #816CCB",
"g  c #D3279B",
"h  c #6882CF",
"j  c #6288CF",
"k  c #F7A92D",
"l  c #F6A32D",
"z  c #F9C32E",
"x  c #36B1CE",
"c  c #FDF864",
"v  c #F4882E",
"b  c #FBD230",
"n  c #F37B2D",
"m  c #5693D0",
"M  c #EF592E",
"N  c #F0602D",
"B  c #FBD731",
"V  c #FDEA3F",
"C  c #8A64C9",
"Z  c #F8B32D",
"A  c #FACD2E",
"S  c #AC47B7",
"D  c #FDEE45",
"F  c #7378CE",
"G  c #2CBCCC",
"H  c #FDF24F",
"J  c #D92393",
"K  c #FCFD91",
"L  c #F7AE2E",
"P  c #3EAACF",
"I  c #4B9DCF",
"U  c #FAC82E",
"Y  c #FCFB79",
"T  c #FCF86E",
"R  c #FCDC33",
"E  c #FAFEA5",
"W  c #FDF65A",
"Q  c #30B7CD",
"!  c #E31C82",
"~  c #EE4533",
"^  c #FCE639",
"/  c #F2732F",
"(  c #F69E2D",
")  c #EF522E",
"_  c #5C8DD0",
"`  c #F16C2E",
"'  c #FAFE9C",
"]  c #22CBCB",
"[  c #F5FEC2",
"{  c #FCE135",
"}  c #F48E2E",
"|  c #DB2387",
" . c #FCFD85",
".. c #F1662D",
"X. c #25C3CB",
"o. c #6BE6D5",
"O. c #5AE1D2",
"+. c #51DFD1",
"@. c #48DDD0",
"#. c #27D4CB",
"$. c #F0FDCD",
"%. c #EB1F49",
"&. c #46A0CF",
"*. c #F5982D",
"=. c #EEFAA3",
"-. c #EDFCB3",
";. c #F5932D",
":. c #62E4D4",
">. c #75E9D7",
",. c #9DF0DC",
"<. c #FAFFB3",
"1. c #33C2CD",
"2. c #F9C939",
"3. c #ED363D",
"4. c #EE4B2F",
"5. c #2BCFCC",
"6. c #EA324D",
"7. c #88EDDB",
"8. c #D0F9DF",
"9. c #EB2450",
"0. c #37D2CD",
"q. c #DE2877",
"w. c #E6FBC1",
"e. c #3EB9CE",
"r. c #FBDA3F",
"t. c #FBF466",
"y. c #B2F3D4",
"u. c #77E1CF",
"i. c #E8FCD7",
"p. c #BBF6E0",
"a. c #A8F3E2",
"s. c #38DCCE",
"d. c #EB1863",
"f. c #8C64C3",
"g. c #43A4CF",
"h. c #F3993A",
"j. c #E9196A",
"k. c #EB1D58",
"l. c #F8BD36",
"z. c #42D5CF",
"x. c #A654AF",
"c. c #E72063",
"v. c #36CACD",
"b. c #CB3691",
"n. c #F9D141",
"m. c #FBEF5C",
"M. c #6D88C8",
"N. c #F7DA51",
"B. c #9AEBCE",
"V. c #5FCECC",
"C. c #BEF5D3",
"Z. c #C8F6CE",
"A. c #F1EC75",
"S. c #DDFBDC",
"D. c #9B59BA",
"F. c #AF4AAB",
"G. c #CC4B81",
"H. c #B842A6",
"J. c #D62E81",
"K. c #C13C9D",
"L. c #E4226D",
"P. c #E3455A",
"I. c #41C1CE",
"U. c #B8F1C7",
"Y. c #E3F092",
"T. c #80EAD6",
"R. c #EB4B44",
"E. c #A7EDC8",
"W. c #EB3F44",
"Q. c #A8F1D6",
"!. c #53B9CC",
"~. c #D5F9CD",
"^. c #C6F1B8",
"/. c #EEDD6A",
"(. c #94EEDA",
"). c #E7FCCD",
"_. c #D2F0A8",
"`. c #DDFAC9",
"'. c #8AE6CD",
"]. c #E4B464",
"[. c #C5F7E0",
"{. c #ED8F46",
"}. c #9862B6",
"|. c #F7B338",
" X c #A466A8",
".X c #D22C8D",
"XX c #D73A78",
"oX c #D74D6F",
"OX c #AE7D9A",
"+X c #E92558",
"@X c #E2565A",
"#X c #EC5643",
"$X c #DFF8AE",
"%X c #5B9ACC",
"&X c #757DC7",
"*X c #53ADCC",
"=X c #FCE33D",
"-X c #F6E864",
";X c #E0F4A1",
":X c #AFDDB0",
">X c #75CDC6",
",X c #EDCA5E",
"<X c #A5C3AA",
"1X c #C1E2A6",
"2X c #E3CC70",
"3X c #30D8CC",
"4X c #B3F4E1",
"5X c #EE613C",
"6X c #F07B3C",
"7X c #9176B5",
"8X c #F5FB97",
"9X c #8182BD",
"0X c #6E96C5",
"qX c #EF6D3B",
"wX c #958AAE",
"eX c #F4A63A",
"rX c #CF6677",
"tX c #8090BC",
"yX c #DB6766",
"uX c #C16389",
"iX c #55A1CD",
"pX c #EDA24C",
"aX c #D19075",
"sX c #66DED0",
"dX c #ECF086",
"fX c #F9E457",
"gX c #4CC7CE",
"hX c #88A2B7",
"jX c #6192CB",
"kX c #D0BE81",
"lX c #71D9CC",
"zX c #8FB7B5",
"xX c #67C1C8",
"cX c #BCCD9C",
"vX c #D3AA78",
"bX c #C9797E",
"nX c #9D79AA",
"mX c #DB7E66",
"MX c #B66C95",
"NX c #9B9AAA",
"BX c #E39F5E",
"VX c #63D7CE",
"CX c #B4EBBC",
"ZX c #54C3CD",
"AX c #9FAEA9",
"SX c #7FC3BF",
"DX c #DD9165",
"FX c #5FA9CA",
"GX c #EDAF51",
"HX c #C5EBAD",
"JX c #B9BE98",
"KX c #A2D4B3",
"LX c #96D2B9",
"PX c #89CDBE",
"IX c #D0CD88",
"UX c #C0B48F",
/* pixels */
"< < < 5 5 5 C C C 4 4 f f w y y F F u u h h j j _ _ m m e I I &.g.P P x x Q Q G G X.X.X.] ] ] ] #.#.#.#.3Xs.s.@.+.O.o.>.T.7.,.a.",
"6 < < < 5 5 5 C C 4 4 f f w w y y F F u h h j j _ _ m m e e I &.g.P P x x Q Q G G X.X.X.] ] ] ] #.#.#.3Xs.s.@.+.O.:.o.>.7.(.,.a.",
"6 6 < < < 5 5 C C C 4 4 f f w y y F F u u h h j j _ m m e e I &.g.P P x x Q Q G G X.X.X.] ] ] #.#.#.3X3Xs.@.@.+.:.o.>.T.7.,.a.4X",
"> 6 6 < < < 5 5 C C 4 4 f f w w y F F u u h h j j _ m m e e I &.g.P P x x Q Q G G X.X.X.] ] 5.#.#.3X3Xs.@.@.+.O.:.>.T.7.(.,.a.4X",
"        < < < 5         4 f f w         u h h j         e e I &.        x Q Q G         ] 5.5.5.        @.+.O.:.        ,.a.4Xp.",
"        6 < < <         4 f f w         u u h j         e e I &.        x Q Q G         5.5.5.3X        +.O.:.o.        a.4Xp.[.",
"        > 6 6 <         C 4 f f         u u h h         e e I &.        x Q G G         5.5.0.0.        O.:.o.>.        a.4X[.[.",
"        > > 6 6         C 4 4 f         F u h h         m e I &.        x Q Q G         5.0.0.z.        :.o.>.T.        4Xp.[.8.",
"0 p p p p > > 6 6 < 5 5 C C 4 4 f w y y F u u h j j _ m m e I &.g.P P x x Q G 1.1.1.v.v.0.0.z.z.@.+.O.:.o.>.T.7.(.,.Q.4Xp.[.8.8.",
"0 0 0 p p p > > 6 6 < 5 5 C C 4 f f w y F F u h h j _ _ m e I &.g.P P x x Q G 1.1.v.v.0.0.z.z.@.+.O.:.o.>.T.7.(.,.Q.4Xp.[.8.8.S.",
"q 0 0 0 p p p > > 6 6 < 5 5 C C 4 f w y y F u u h j j _ m e I &.g.P P x x e.1.1.1.v.v.0.z.z.@.+.O.:.o.>.T.7.(.,.Q.y.p.[.8.8.S.S.",
"q q q 0 0 0 p p p > 6 6 < 5 5 C 4 4 f w y y F u h j j _ m e I I g.P P x e.e.1.1.v.v.0.z.z.@.+.O.:.o.>.T.7.(.,.Q.y.p.[.8.8.S.S.i.",
"        q 0 0 0         6 < 5 5         w y F u         m m e I         e.e.I.I.        @.+.O.sX        (.,.Q.y.        S.S.i.i.",
"        q q q 0         > 6 < 5         w y y F         _ m e I         e.e.I.I.        +.O.sXo.        ,.Q.y.C.        S.i.i.i.",
"        S q q q         > > 6 <         f w y F         _ m e I         e.I.I.gX        VXsXu.u.        Q.y.C.C.        i.i.i.$.",
"        S S S q         p p > 6         4 f w y         _ m %XiX        e.I.gXgX        sXu.u.T.        y.C.C.Z.        ).$.$.$.",
"3 a a a a a S S S q q 0 0 p p > 6 < 5 f.4 4 w y F u h j j jX%XiXiX*X*X!.!.ZXgXgXV.V.VXsXu.u.'.'.B.B.Q.y.C.C.Z.~.~.`.).).$.$.$.$.",
"3 3 3 3 a a a a S S q q q 0 p p > 6 6 5 f.4 f w y &Xu M.j jX%X%XiX*X*X!.!.ZXZXV.V.VXlXu.u.'.'.B.B.Q.y.C.Z.Z.~.~.`.).).$.$.$.[ [ ",
"9 3 3 3 3 3 3 a a S S S q q 0 0 p > 6 6 f.f.4 f w &X&XM.M.jXjX%XiX*X*X!.!.ZXV.V.VXlXlXu.'.'.B.B.E.y.U.Z.Z.~.~.`.).).$.[ [ [ [ [ ",
"9 9 9 9 3 3 3 3 3 a a S S q q 0 0 p > > 6 f.f.4 w y &X&XM.M.jX%XFXFXFX!.xXxXV.V.lXlXu.'.'.B.E.E.U.U.Z.Z.~.`.`.w.w.w.[ [ [ [ [ [ ",
"        9 9 9 3         a S S q         > 6 f.f.        M.M.0X0X        xXxX>X>X        B.E.E.U.        `.`.w.w.        [ <.<.<.",
"        9 9 9 9         a a a S         D.D.6 f.        &XM.0X0X        xX>X>X>X        E.E.U.U.        w.w.w.-.        <.<.<.<.",
"        d d d 9         3 3 a a         0 D.D.}.        9X9XtX0X        SXSXPXPX        CXCXU.^.        w.-.-.-.        <.<.<.<.",
"        t d d d         9 9 3 3         q 0 D.D.        9X9XtXtX        SXSXPXLX        CX^.^.^.        -.-.-.-.        E E E E ",
"t t t t t t t t d d d d d 9 9 9 3 3 a a S x.x.D.}.}.}.7X7X9XtXtXhXhXhXzXzXPXLXLXKX:X:XCX^.^.^._.$X$X$X-.-.-.=.E E E E E E E E E ",
"- - - - t t t t t t t d d d d 9 9 9 3 3 F.F.x.x.x.}.}.7X7X7XwXwXhXhXzXzXzX<XKXKX:X:X1XHXHX_._.$X$X$X=.=.=.=.E E E ' ' ' ' ' ' ' ",
"- - - - - - - - - t t t t t d d d 9 9 H.H.F.F.F.x.x. X XnXnXwXwXNXNXAXAX<X<X<X:X:X1X1XHX_._.;X;X;X=.=.=.=.' 8X' ' ' ' ' K K K K ",
"g g g g g - - - - - - - t t t t d d d d H.H.H.F.F.x. X X XnXnXwXNXNXAXAX<X<XcXcX1X1X1X_._.;X;X;X=.=.8X8X8X8X8XK K K K K K K K K ",
"        g g g g         - - - -         K.K.H.H.         XOXOXOX        JXJXcXcX        Y.Y.Y.Y.        K K K K          . . . .",
"        g g g g         g g - -         K.K.K.K.        MXMXOXOX        UXJXcXIX        Y.Y.dXdX         . . . .         . . . .",
"        J J J J         g g g g         b.b.b.K.        uXMXMXOX        UXkXkXIX        dXdXdXdX        Y Y Y Y         Y Y Y Y ",
"        J J J J         J J J J         .Xb.b.b.        uXuXuXbX        vXkXkXIX        A.A.A.A.        Y Y Y Y         Y Y Y Y ",
"= = = = = = = = = = = = J J J J J J .X.X.X.X.Xb.b.G.G.G.G.uXrXbXbXaXaXvXvXvXkX2X2X2X/./.A.A.A.A.A.T T T T T T T T T T T T T T T ",
"= = = = = = = = = = = = = | = | | | | | | J.J.J.J.XXG.G.G.rXrXrXbXaXaXaXvX].].2X2X2X/././.-X-X-Xt.t.t.t.t.t.t.c c c c c c c c c ",
"X X X X X X X X X X X X X X | X | | | | J.| J.J.XXXXXXoXoXoXrXyXmXmXDXDXBX].].].,X,X,X/./.-X-X-Xm.m.m.m.t.t.c c c c c c c c c c ",
"X X X X X X X X X X X X X ! ! ! ! ! ! ! q.q.q.q.q.XXXXoXoXoXyXyXyXmXmXDXBXBX].].,X,X,XN.N.fXfXfXfXm.m.m.m.m.W W W W W W W W W W ",
"        X X ! !         ! ! ! !         q.q.q.q.        P.@X@XyX        BXpXGXGX        N.N.N.fX        H H H H         W W W W ",
"        ! ! ! !         7 7 7 7         L.L.L.L.        P.P.@X@X        {.pXpXGX        n.N.N.N.        H H H H         H H H H ",
"        7 7 7 7         7 . . .         L.L.L.c.        P.P.@X@X        {.{.pXpX        n.n.r.r.        D D D D         H H H H ",
"        7 7 7 7         . . . :         j.c.c.c.        P.P.R.#X        {.{.h.eX        2.n.n.r.        V V D D         D D D H ",
"7 7 7 7 7 7 7 7 . . . . . : : : j.j.j.j.c.c.c.+X+X+X6.6.6.W.R.#X#X5XqX6X6X{.h.h.eX|.|.l.2.2.n.n.r.r.r.=X=X=XV V V V D D D D D D ",
"7 7 7 7 . . . . . . . : : : : j.j.j.* d.d.c.k.+X+X9.6.6.6.W.R.R.#X5XqX6X6Xv h.h.eXeX|.l.l.2.2.2.n.r.r.r.=X=X=X=XV V V V V D D D ",
". . . . . . . . : : : : : @ @ j.* * d.$ $ k.k.+X9.9.6.6.W.W.R.R.#X5XqXqX6Xs } h.h.eX|.|.l.l.2.2.2.b B R R { =X=X=X^ ^ V V V V V ",
". . . . . : : : : : : @ @ @ j.* d.d.$ # k.k.k.9.9.9.6.6.3.W.W.R.#X5X5XqX/ s v } h.( k L |.l.l.z 2.A b B B R { { { ^ ^ ^ ^ ^ V V ",
"        : : : :         j.* * d.        k.k.9.9.        3.3.W.~         / n s v         L 2 l.z         B B R R         ^ ^ ^ ^ ",
"        : : : @         * * d.$         + % 9.%.        3.3.r ~         ` / s v         L Z 2 &         b b B B         { { ^ ^ ",
"        : @ @ @         d.d.$ $         % o %.%.        3.3.r ~         ` / n s         k L Z 2         A b b B         { { { { ",
"        @ @ @ @         d.$ $ #         o o %.%.        3.3.r ~         ../ n s         l k L Z         U A b b         R R { { ",
"@ @ @ @ @ @ @ * * d.d.$ $ # # # + + % % o %.%.%.1 O 8 8 3.3.r ~ ~ ) M N ..` / n s v ;.*.( l k L Z 2 & z U U A A b b B B R R R R ",
"@ @ @ @ @ * * * d.d.$ $ # # # + + % % o o %.%.1 O O 8 8 i , r ~ ~ 4.) M N ` / n s v } ;.*.l k L Z 2 2 & z U U A A b b B B B B R ",
"@ @ @ * * * * d.d.$ $ # # # + + % % o o %.%.1 1 O O 8 8 i , r r ~ 4.) M N ..` / n s v ;.*.( l k L Z 2 & & z U U A A b b b B B B ",
"@ * * * * d.d.$ $ $ # # # + + % % o o o ; 1 1 1 O 8 8 8 i , r r ~ 4.) M N ..` / n s v } ;.*.( l k L Z 2 & & z z U A A b b b B B ",
"        d.d.$ $         + + % %         ; 1 1 O         i , r r         N N ` /         } *.*.l         2 & & z         A b b b ",
"        $ $ $ #         + % % %         1 1 1 O         i , , r         M N ..`         } ;.*.(         Z 2 & &         A A A b ",
"        $ $ # #         % % % o         1 1 O O         i , , r         M N ..`         v } ;.*.        Z Z 2 &         U A A A ",
"        $ # # #         % % o o         1 1 O O         i , , r         M N ..`         v } ;.*.        L Z 2 2         U U U A ",
"$ $ $ $ # # # # + + + % % o o o ; ; ; 1 1 O O O 8 8 8 i i , , r ~ 4.4.) M N N ..` / n s s v } ;.*.( l k k L Z 2 2 & & z z U U U ",
"$ $ # # # # # + + + % % % o o o ; ; 1 1 1 O O O 8 8 8 i i , , r ~ 4.4.) M M N ..` / n n s v } ;.*.*.( l k L L Z 2 2 & & z z z U ",
"$ # # # # # + + + + % % o o o ; ; ; 1 1 1 O O O 8 8 8 i i , , r r ~ 4.) ) M N ..` / / n s s v } ;.*.( l l k L Z Z 2 2 & & z z z ",
"# # # # # + + + + % % o o o ; ; ; 1 1 1 O O O O 8 8 8 i i , , r r ~ 4.) ) M N ....` / n n s v } ;.*.*.( l k k L Z Z 2 2 & & z z ",
"        + + + +         o o ; ;         O O O 8         i , , r         ) M N N         n s v v         l l k L         & & & & ",
"        + + + +         o ; ; ;         O O O 8         i , , r         ) M M N         n s s v         ( l k k         2 & & & ",
"        + + + %         o ; ; ;         O O O 8         i , , r         ) M M N         n n s v         ( l l k         2 2 & & ",
"        + + % %         ; ; ; ;         O O O 8         i , , r         ) M M N         n n s v         ( ( l k         Z 2 2 & "
};
