/* XPM */
static char *result[] = {
/* columns rows colors chars-per-pixel */
"64 64 210 2 ",
"   c #372D1C",
".  c #38301B",
"X  c #302A22",
"o  c #3E3528",
"O  c #373434",
"+  c #3D3C3E",
"@  c #47391D",
"#  c #513F1A",
"$  c #443924",
"%  c #453C39",
"&  c #4F401B",
"*  c #53421D",
"=  c #5B461D",
"-  c #5D491D",
";  c #624C1E",
":  c #6C531E",
">  c #755A1E",
",  c #554523",
"<  c #594622",
"1  c #5C4A24",
"2  c #554729",
"3  c #57492A",
"4  c #5C4C2A",
"5  c #4C423A",
"6  c #574B34",
"7  c #634E21",
"8  c #614E2B",
"9  c #655126",
"0  c #6D5623",
"q  c #65542C",
"w  c #69542B",
"e  c #6E5928",
"r  c #705722",
"t  c #725924",
"y  c #795E22",
"u  c #735C2C",
"i  c #6A5833",
"p  c #745F34",
"a  c #7B6126",
"s  c #7D632B",
"d  c #796334",
"f  c #3F3E41",
"g  c #403F42",
"h  c #444244",
"j  c #4B4543",
"k  c #4A4748",
"l  c #494848",
"z  c #4C4B4C",
"x  c #504643",
"c  c #524945",
"v  c #594C45",
"b  c #524C4A",
"n  c #5A4F4A",
"m  c #55514E",
"M  c #5B514C",
"N  c #4F4E51",
"B  c #514F52",
"V  c #535254",
"C  c #5C5553",
"Z  c #5B5856",
"A  c #565559",
"S  c #585659",
"D  c #57585D",
"F  c #5B595C",
"G  c #61514B",
"H  c #6A554B",
"J  c #675A4A",
"K  c #625652",
"L  c #6B5650",
"P  c #635955",
"I  c #6A5C55",
"U  c #635C5B",
"Y  c #6A5D5C",
"T  c #75634E",
"R  c #6B6255",
"E  c #64615D",
"W  c #6D635C",
"Q  c #73645D",
"!  c #77695A",
"~  c #5D5D61",
"^  c #625F61",
"/  c #6C5F63",
"(  c #596167",
")  c #646264",
"_  c #6B6463",
"`  c #6D6866",
"'  c #666569",
"]  c #69676A",
"[  c #6A6A6D",
"{  c #726561",
"}  c #736A63",
"|  c #7A6C65",
" . c #736C6A",
".. c #796E6B",
"X. c #7C7365",
"o. c #76726C",
"O. c #7D746C",
"+. c #616E71",
"@. c #6E6D71",
"#. c #716F72",
"$. c #737174",
"%. c #7B7574",
"&. c #7C7973",
"*. c #75757A",
"=. c #79777A",
"-. c #7C7A7D",
";. c #82641E",
":. c #846624",
">. c #846527",
",. c #866926",
"<. c #8B6B25",
"1. c #87692A",
"2. c #8A6C2B",
"3. c #916F24",
"4. c #8F7027",
"5. c #927026",
"6. c #997426",
"7. c #93722A",
"8. c #8A6D31",
"9. c #886F36",
"0. c #8C7133",
"q. c #997A36",
"w. c #92763B",
"e. c #9A7C3A",
"r. c #A57D25",
"t. c #A57E2A",
"y. c #FF7C03",
"u. c #836C56",
"i. c #84725D",
"p. c #816E67",
"a. c #85766A",
"s. c #82796D",
"d. c #927E6D",
"f. c #897770",
"g. c #837873",
"h. c #837B74",
"j. c #8C7D74",
"k. c #847C7C",
"l. c #A6812B",
"z. c #AB832A",
"x. c #B48826",
"c. c #B58929",
"v. c #B58A2A",
"b. c #AB8433",
"n. c #AA8634",
"m. c #AD893A",
"M. c #B78D31",
"N. c #B98F32",
"B. c #B48E38",
"V. c #BA9034",
"C. c #BC943B",
"Z. c #FF8404",
"A. c #FF8C03",
"S. c #FF9403",
"D. c #FF9B03",
"F. c #FFA303",
"G. c #FFAB03",
"H. c #FFB303",
"J. c #FFBC02",
"K. c #C8972A",
"L. c #C69936",
"P. c #CA9B31",
"I. c #CDA03A",
"U. c #FFC302",
"Y. c #FFCB02",
"T. c #FFD302",
"R. c #FFDC02",
"E. c #FFE401",
"W. c #FFEB01",
"Q. c #FFF401",
"!. c #9D8143",
"~. c #BD9641",
"^. c #B39149",
"/. c #8C8274",
"(. c #83807B",
"). c #8B827C",
"_. c #968775",
"`. c #91857A",
"'. c #938A7D",
"]. c #7D7D82",
"[. c #897F82",
"{. c #7F8084",
"}. c #838185",
"|. c #8C8584",
" X c #8D8885",
".X c #85848A",
"XX c #89868A",
"oX c #87888D",
"OX c #8C8A8C",
"+X c #928B84",
"@X c #9B8E84",
"#X c #918D8B",
"$X c #9B9185",
"%X c #94908E",
"&X c #98948A",
"*X c #9A948C",
"=X c #8D8D92",
"-X c #918E92",
";X c #8F9095",
":X c #939294",
">X c #9A9695",
",X c #9D9996",
"<X c #95959A",
"1X c #999699",
"2X c #9B999C",
"3X c #A1978B",
"4X c #A29C97",
"5X c #A39E99",
"6X c #A6A19B",
"7X c #AAA49E",
/* pixels */
"K n c G + l N z V V N D F V m z c z c z l V V N A A F A A z z N z z l z l z z l l z V N ~ A D A V c c l j % O O N D D b P P M M ",
"j j v 5 f l l Z 5 l h z Z Z m m z z z 5 m ( V A ~ A A V V A A N N N V m m z l z N V N N z N Z F m c 5 5 5 % O h A ( A N h c j c ",
"+ g m B N ) *.` P M m N +.&.[ o.` _ V ) $.W o.$.#._ _ ) _ =.].=.=.*.$.#.] ` ' ' [ #.[ ] +.' $.(.o.O._ C z z A ) -.].=.' A V O O ",
"h h S P } /./.a.T J R J R X.s.s.} } o.s./././.&X'.'./.a.! ! a./.`./.(.&.O.&.g./.h.s.g.s.&.o.} } ! X.! R R W ! X.d./.a.} U A h + ",
"V V #.2 0 ,.7.9.d e a >.4.3.3.4.>.s t y >.<.3.3.5.:.s e y :.5.5.5.4.:.s 0 a ,.4.7.7.5.:.>.t a ,.5.7.7.2.s t y ,.7.2.u & R F k l ",
"F S &.0 D.J.J.J.J.M.G.Y.J.J.H.F.A.Z.x.D.G.G.A.Z.Z.Z.A.x.Z.S.D.D.S.A.Z.Z.x.Z.Z.A.D.D.S.S.Z.x.S.H.Y.Y.Y.G.F.x.F.G.G.H.G.0 T M h z ",
"V A k.y D.J.J.J.J.P.J.Y.Y.J.J.F.A.Z.K.D.U.Y.J.F.F.G.S.K.D.G.J.U.Y.U.G.A.K.D.F.F.H.H.D.A.y.K.F.Y.Y.T.T.J.S.K.G.H.H.H.G.a i.K % k ",
"b N o.u D.F.F.F.F.C.S.D.G.H.G.D.A.A.M.H.U.J.H.H.H.H.D.V.G.J.J.J.J.Y.Y.F.V.G.J.J.J.H.H.S.Z.N.D.G.J.J.G.D.A.V.G.G.G.G.G.u a.Q c j ",
"c l E $ 0 ,.3.:.y 0 a 1.4.5.3.3.:.y 0 > ;.5.3.3.3.,.> : > :.7.3.3.<.:.y : a ,.5.5.3.4.a > : > ,.6.7.7.>.a t y ,.3.:.t @ f...M b ",
"b c W C Q ! )./.u.H i G M } /.$X$X(.,X,X>X&X*X&X@X$X@X+X@X>X3X@X_.T W h.(.h.).).'././.! } Q h.s.'.&X$X@X$X#X+X).'.`.j.%.O...m K ",
"Z C P V z F V ' W b l z D [ *.-.{.-.-..X.XoXOX-XOX Xk.}.|.|. X[.&.I V ' $.$.#.[ [ ] E E E F #.[ %.XX|.[.}.{.[.].=.[.=. ...{ U P ",
"Y C P V z N N ) F V F ] $.#.$.$.=.*.=.#.&.(.-X>X:X|.[.}.OX|.k.[.h.W N [ -.*.[ ' [ [ ` W ) F [ *.g.[.|.k.*.-.-.-.=.#.#. .` $.U U ",
"Y K { Z l V ) [ ] ] _ #.=. .W F ^ ) *.*.@.) [.-X#X X[.k.+X|.k.k.g.W l ] ].=.] ) ) ) [ E P F $.=.g.}.+Xk.-.-.-.].].].*... .$./ / ",
"C b | U h S [ =.$.`  .%.(.+X).a.| } Q { [ ] F -.k.j.k.%.g.%.k.g.| B N @.[ *.] ' ) F ) E Z F #.=.k.k.[.k.=.].}.k.].[.g.k.%.[./ U ",
"K b { U h F  .-.|.).j.).'.#X).O.p.O.f.p.{ S B g V _ } `  .%._ C z z ~ ) A ' ' U F U E U A ) @.$.=.].*.*.[.}..X[.[.].=.k.k.[./ P ",
"_ n _ ^ l F =.%.%X#X+X+X@X#Xf.p.p.g.f.f.T v h g z B B V F D S A A ~ ' ) @.A V V V F Z F S ] #.[ [ -.=.$.=..XoXoXoX[.[.[.[.[.P / ",
"I K  .z z ^ @.XX#X|.+X'.$X@X'._._._.`.d.i.i.J M P _ o.O./.h.g.o.#.$.&.g.O.} W F U R ! W } $.%.&.O.s.h.=.%.-.XX#X=XoX[.oX[.k.Y / ",
"P m | k B [ [ [.#X).).@Xq >.2.8.p q 4 0 :.6.,.d 8 1 t :.5.,.u 6 2 , t ,.6.,.u q 1 0 ,.2.a q 4 t ,.<.a w ).&.-.XXoX.X[.[.-.k./ { ",
"P m ^ B D ' @..X X'.6 >.z.Z.A.A.A.2.>.Z.A.S.S.D.2.:.F.F.D.D.D.d 1 : D.D.F.F.F.,.<.D.S.S.A.,.,.D.A.Z.Z.x.>.8 h.-.[.|.[.[.=.g.| / ",
"C k B F ) @.*.=X*Xi 6.A.A.S.S.S.A.n.l.Z.A.S.S.D.P.z.G.G.G.F.G.w.0 ,.F.F.G.G.F.v.K.D.D.S.A.n.z.D.S.A.A.A.Z.6.7 %.=.=.[.k.g.g.Y / ",
"f f A ) [ -.}.,X4 6.S.A.A.A.A.S.A.V.v.Z.A.S.S.D.D.P.P.H.G.H.H.!.t 5.H.H.G.H.L.K.D.D.S.S.A.V.v.D.A.A.A.Z.A.A.6.* =.#. .' ]  .g g ",
"f h ~ ] @.*.oX,Xy F.D.A.A.A.A.A.A.V.M.Z.A.S.S.S.D.D.P.P.D.F.F.!.u 7.D.F.F.I.P.F.D.S.S.S.A.N.v.D.A.S.A.A.Z.A.S.> I ~ F ~ B V g g ",
"h h ) ' [ [ }.6X<.G.D.A.A.A.A.A.A.C.M.D.D.S.S.S.S.S.F.P.G.G.H.w.u 2.H.G.G.P.D.D.S.S.S.S.D.V.v.D.S.S.A.A.A.A.S.,.W S B B V F g g ",
"N V U F ) ) ) *X7.G.D.A.A.A.A.A.A.C.v.D.A.A.S.S.S.F.D.P.P.J.G.0.w >.G.J.I.K.F.D.S.S.S.A.S.V.v.D.S.S.A.A.A.S.S.3.a.F ~ ^ / ] k b ",
") ] } b F F ) O.6.G.F.S.A.A.A.A.A.M.v.A.A.F.F.D.D.D.G.F.P.L.G.T 8 i G.C.P.F.G.F.D.D.F.F.A.V.v.G.H.D.S.A.Z.S.S.3.X.] ) ` [ ' N Z ",
"E ) ` j b F [ h.5.F.D.D.A.A.A.A.A.M.v.Z.G.H.J.G.G.G.G.F.F.V.8.i 5 3 8.L.F.F.G.F.G.G.J.H.G.V.M.D.F.F.S.A.A.A.A.6.s.] ] ) ] [ V U ",
"D E } M b ~ [ ).;.F.F.D.S.A.A.A.A.n.r.A.G.H.J.J.J.H.G.H.F.D.s 6 $ $ d F.F.G.G.H.J.J.J.H.G.m.l.F.D.D.S.A.A.A.A.<.s.@.] ] [ ] A E ",
"` E } M % z $. Xu F.F.D.D.A.A.A.A.0.a A.G.H.J.H.H.G.G.F.G.G.d 5 X o i F.G.G.G.G.H.H.J.J.F.w.2.D.F.D.S.A.S.A.A.t } ' [ $.@.[ F F ",
"} Z W M c N ] $.8 2.m.C.C.C.C.m.0.i 8 2.m.C.C.~.C.C.C.C.B.q.i $   o 9 w.^.~.~.~.~.C.~.m.w.p w 2.m.C.C.C.C.m.8.= ` [ } %.=.` N F ",
"P M I M C z ) h.* :.l.v.v.v.v.l.:.; 7 :.r.c.v.v.M.M.v.v.v.t.a , o # y t.B.N.N.M.N.v.v.b.,.w w ,.r.v.v.v.v.l.,.* _ #.g.g.} ( l z ",
"P Z K v V V ] s.t S.D.D.D.D.S.A.A.>.:.Z.A.A.A.A.A.S.F.G.F.S.H.p = : F.F.D.S.H.G.G.H.H.G.F.,.>.D.F.A.A.A.A.A.A.: } ' O.&.X.Z g f ",
"F C U C z F ] '.2.A.S.D.D.S.S.A.A.l.r.A.A.Z.A.S.S.D.F.D.S.D.H.w.0 :.H.F.D.G.J.H.F.G.G.G.F.b.r.D.D.A.A.A.A.A.A.,.R F ` | Q M + h ",
"g + V V ~ ' _ '.7.A.S.S.S.S.S.S.A.N.x.A.A.A.S.F.D.S.D.A.A.S.J.e.u 7.U.J.G.Y.Y.J.G.G.G.G.G.M.v.D.F.D.Z.A.A.S.A.7.J A A V m A h g ",
"5 l ^ ) @.*.o.3X7.Z.S.S.S.S.S.D.D.M.x.A.S.S.F.H.G.S.S.S.A.A.D.q.e 7.U.E.U.Y.Y.J.U.U.U.H.J.M.x.D.S.S.A.A.A.A.A.7.J A ) ' ` _ l l ",
"j 5 F ( =.{.-.7X7.A.A.S.S.S.F.F.F.N.x.S.D.D.G.J.H.F.D.D.A.S.S.q.r 6.J.R.R.T.T.U.U.T.R.R.T.M.x.S.A.A.A.A.A.A.A.7.R F  .} p.| v j ",
"j l R W [ *.[ ,X7.Z.A.S.S.D.F.G.G.V.v.S.D.G.J.J.J.G.F.F.A.A.D.q.r 3.U.R.E.W.E.H.F.J.Y.J.J.N.c.G.G.S.A.A.A.A.A.7.R F E O.f.g.n v ",
"n v Q } ) ] ) /.7.Z.Z.A.S.D.F.G.H.N.v.S.D.H.T.R.U.G.F.F.D.D.D.q.0 5.T.R.E.W.R.H.G.H.T.S.Z.V.x.Y.E.F.S.S.S.S.A.4.R _  .j.j.j.P M ",
"n n Q } _ ) ' } 7.y.A.A.A.S.D.F.G.N.x.A.A.D.G.T.R.J.H.H.J.J.H.q.0 5.Y.R.Q.E.T.J.Y.R.T.S.y.V.M.G.R.U.D.D.D.S.A.7.} $.f.`.).f.G b ",
"G G { | | S ' a.2.Z.Z.A.A.S.D.F.G.V.v.Z.y.y.y.y.Z.S.H.J.U.Y.U.e.0 7.Y.Q.Q.Y.G.E.E.Y.H.S.A.C.M.S.D.H.F.S.S.D.S.7.s.o.f.j.j.p.G G ",
"H G p.p.| C ) h.7.y.Z.A.S.S.S.D.F.M.x.A.y.y.y.y.y.y.Z.F.U.U.T.e.0 7.E.Q.W.U.Y.F.A.S.A.Z.A.C.V.S.S.S.J.J.D.D.D.6./.` ! j.j.p.L G ",
"H v p.p.| Y / f.7.y.Z.A.A.S.D.D.S.v.v.A.y.y.y.y.y.y.y.y.G.T.W.e.0 4.W.R.U.R.U.y.y.y.y.y.y.C.V.S.D.S.D.G.D.D.D.7.).].! f.).f.Q J ",
"L L p.f.p.I ] (.7.Z.Z.A.S.D.F.D.S.N.x.A.y.Z.y.y.y.y.y.A.J.J.U.e.u 4.H.H.Y.E.Z.y.y.y.y.y.y.~.N.G.U.H.G.F.F.D.S.7.'.-.o.f.j.f.I L ",
"n G p.f. .) $./.7.Z.Z.A.F.F.F.S.S.N.v.A.y.y.y.y.y.y.y.G.J.F.A.q.u 5.D.U.Y.A.y.A.A.Z.Z.Z.Z.~.N.G.Y.J.H.G.G.F.S.7.(.) _ } p.j.L G ",
"b j I S U ' $.$X7.y.Z.Z.D.G.G.D.F.N.v.S.S.A.Z.y.y.y.Z.F.S.y.Z.q.e 8.H.Y.D.A.Z.S.A.A.D.y.y.~.N.D.F.D.D.F.G.A.A.7.! V D ) _  .b b ",
"F V ' ) ' [ $.$X3.Z.y.y.y.S.S.A.S.M.v.D.F.D.S.A.A.S.S.D.A.A.A.q.u 4.F.A.A.S.S.S.A.S.S.A.A.C.N.D.D.S.A.S.F.S.A.7.T m ' ].].#.V b ",
"b V &.$.] ] $.`.>.Z.y.y.Z.Z.Z.Z.A.n.l.S.H.H.G.G.F.H.H.D.G.U.Y.0.w ,.D.D.D.D.F.F.F.F.D.D.D.n.b.S.J.H.H.S.D.D.S.2.J V #.#X=...b j ",
"b b } _ W W ) &.u Z.Z.Z.Z.Z.Z.Z.y.2.,.S.A.S.S.S.S.F.D.A.F.F.H.p , 0 D.G.G.S.G.D.S.F.G.F.F.8.2.F.U.J.J.S.S.G.A.0 J A %.k.W Q b c ",
"b z U W { | } E $ 0 ,.7.7.7.3.,.0 , * 0 ,.3.3.5.7.7.3.<.4.:.0 @ . @ 0 1.4.7.4.7.5.5.4.,.0 , # e 8.7.7.7.7.2.0 @ n U _ Q Q W n b ",
"c -.=X<X<X<X<X<X2X5X5X5X5X7X7X5X5X2X2X5X4X6X6X6X6X6X6X7X7X5X,X<X:X:X,X5X6X6X7X6X5X6X5X4X1X>X>X,X5X5X4X5X5X5X5X1X-X=X:X<X<X:X^ z ",
"c ].:X<X2X2X2X<X<X;X=X-X;X<X<X2X2X<X<X<X:X:X<X<X<X<X<X<X2X:X;X;X;X=X:X-X:X<X2X<X<X:X>X-X-X-X<X<X<X-X=X=X:X:X:X:X;X=X-X<X<X].F x ",
"c ].:X=X:X:X=X=XXX[..X.XoXOX=X=X:XOX=XOXoX=X=XOXoX=X=X;X=XoXoXOXoXoXoX.X.X=X=X=XOXoXoX.XoXoX=XoXoXoX.X}.}.}.}.oX.X}.oXoXoX*.~ c ",
"M ].:X=X;X:X=X=XXX=XoXOX#X:X:X1X,X:X:X#X#X#XOXOXOX X%X:X>XOXOX#X-X=X%XOX:X:X>X:X%XOX%X-X#X#X*X-X#XOX#XOXOXoXOXoXoX.XoXoXOX*.~ K ",
"C *.<X=X=X=X=X=X-X$ 4 1 w 4 w < q , q , 9 , w 2 w , 9 * w * ; = w = q < q , q 4 q 3 q , q 4 q 2 w < q 6 i < 4 @ =XoX.XoXoX*.D / ",
"{ *.-XoX=X=XoXXX%X, S.,.S.>.D.:.S.:.F.:.S.:.F.:.F.:.G.a D.:.H.y F.;.H.:.D.,.F.,.F.,.F.>.D.>.F.:.S.;.D.1.D.>.A.* #XoX.X.XXX#.A  .",
"Y *.;XoXoXoXOXOX*X9 S.l.S.r.D.r.D.r.D.r.D.r.H.r.H.r.H.r.F.l.F.r.D.r.F.r.F.l.H.l.G.l.G.t.F.l.D.t.S.r.D.l.D.t.S.7 :XoXoX}..X#.A ) ",
"` *.=X.X.X.X.X.X&X: S.v.S.v.D.x.D.x.D.v.S.x.G.c.H.v.G.v.D.c.F.x.F.v.H.x.D.v.G.v.G.v.G.v.D.v.F.v.S.x.D.v.D.v.D.w $X.X.X.X[.@.V [ ",
"[ @.=X{..X{..X.X*X: S.x.S.x.D.v.D.x.D.x.S.x.H.v.G.v.G.v.F.x.F.x.G.v.H.c.G.x.G.v.G.v.G.v.F.v.F.v.S.x.D.c.D.v.D.0 *X[.}.oXoX#.B %.",
"C *.=X.X{.{.}..X*X; S.r.D.r.D.r.F.l.D.r.D.6.H.r.J.t.H.l.G.r.G.l.F.r.F.l.G.r.H.t.G.t.H.t.G.t.D.t.D.t.F.t.D.t.D.7 %X}.oXoX.X#.A P ",
"h *.=X{.}.].{..X%X3 S.2.S.2.S.2.D.2.D.8.F.,.F.1.F.2.G.2.F.2.F.,.F.2.G.4.D.2.F.8.F.8.F.8.D.2.D.8.D.0.D.2.D.2.D., #X}.}.{.[.[ N + ",
"S ].=X.X}.].{.{.XX. & & - * - * - & 1 & = * = & - & = & = & - * - * 1 * ; * 7 * 1 * - * 1 , 1 * 1 * 7 , 7 * #   OX.X].].].@.B S ",
"/ ].=X[.{.{.{.].}.oX XoX XOX X#X#XOX#X#X:X>X>X:X%X%X#X X#X X%XoXOX X#XOX#X#X:X:X1X1X>X:X:X X#XOX#XOX X XXX|.OXoX}..X[.].].@.A P ",
" .*.].@.@.@.[ @.[ [ [ [ #.#.#.$.#.@.$.*.*.*.*.*.*.*.$.#.@.@.@.[ [ @.#.@.#.*.%.=.*.*.*.=.*.$.#.@.$.#.$.#.[ ] @.[ @.@.@.@.@.@.A ^ ",
"` ~ B A V V V N V V N V V D A A A V S D D ~ ~ ~ ~ A A N V V N V V V V V V V A ~ ~ ~ ~ ~ D A Z A V A D A V V A N B A B V A V A { ",
" .I G v O O f N V N Z +.+.F V V m b b z k h N N N V A V V V A Z S C b j j g j k z l l V ( ~ D N N z h 5 l 5 O O + z z I Q Q P Y "
};
