/* XPM */
static char *result[] = {
/* columns rows colors chars-per-pixel */
"64 64 129 2 ",
"   c #060604",
".  c #080704",
"X  c #070806",
"o  c #0B0A06",
"O  c #0C0D0A",
"+  c #110F0A",
"@  c #0F100E",
"#  c #13110D",
"$  c #1A150E",
"%  c #1C180F",
"&  c #141411",
"*  c #191711",
"=  c #171815",
"-  c #1C1A13",
";  c #161818",
":  c #20170E",
">  c #21180F",
",  c #231D13",
"<  c #262116",
"1  c #292317",
"2  c #242119",
"3  c #2A251A",
"4  c #2F291D",
"5  c #323133",
"6  c #3A3535",
"7  c #373738",
"8  c #3D3C3E",
"9  c #433935",
"0  c #443E3C",
"q  c #493F3A",
"w  c #46433E",
"e  c #4A453E",
"r  c #4B483F",
"t  c #52463F",
"y  c #3F3E41",
"u  c #403F42",
"i  c #464442",
"p  c #4A4642",
"a  c #4C4944",
"s  c #474749",
"d  c #494748",
"f  c #4D4B4B",
"g  c #504643",
"h  c #514B45",
"j  c #5A4C45",
"k  c #524D4A",
"l  c #5A4F4A",
"z  c #54514C",
"x  c #5A524D",
"c  c #4F4E51",
"v  c #514F52",
"b  c #535254",
"n  c #5B5652",
"m  c #5C5955",
"M  c #565559",
"N  c #585659",
"B  c #57585D",
"V  c #5B595C",
"C  c #624E46",
"Z  c #61514B",
"A  c #68524D",
"S  c #625652",
"D  c #6B5650",
"F  c #625955",
"G  c #6A5C55",
"H  c #635C5B",
"J  c #6A5D5C",
"K  c #715D55",
"L  c #63615E",
"P  c #6D625D",
"I  c #766157",
"U  c #796456",
"Y  c #74645C",
"T  c #78675F",
"R  c #5E5D61",
"E  c #625F61",
"W  c #6C5F63",
"Q  c #596167",
"!  c #646264",
"~  c #6B6464",
"^  c #6D6866",
"/  c #666569",
"(  c #69676A",
")  c #6B6A6D",
"_  c #726561",
"`  c #736964",
"'  c #7A6C65",
"]  c #736C6B",
"[  c #796E6B",
"{  c #70706D",
"}  c #7E726C",
"|  c #616E71",
" . c #6E6D71",
".. c #716F72",
"X. c #737275",
"o. c #7B7574",
"O. c #797B77",
"+. c #76757A",
"@. c #79777A",
"#. c #7C7A7D",
"$. c #816E67",
"%. c #84736B",
"&. c #827772",
"*. c #897770",
"=. c #847974",
"-. c #8C7C74",
";. c #847C7C",
":. c #887E7A",
">. c #8A807D",
",. c #91837B",
"<. c #7D7D82",
"1. c #897F82",
"2. c #7F8084",
"3. c #838184",
"4. c #8C8584",
"5. c #8E8885",
"6. c #85858A",
"7. c #8A868A",
"8. c #86888C",
"9. c #8A898D",
"0. c #938A84",
"q. c #918C89",
"w. c #8D8D92",
"e. c #918E93",
"r. c #8F9095",
"t. c #929296",
"y. c #95959A",
"u. c #99979B",
"i. c #99989D",
/* pixels */
"S l j C 9 s c f b b c B V b z f a f f k s c b b b B B b b c f f f d d d f f d p s f c c R B B N b k d p a q 6 7 f R B f F S x n ",
"p p j q 8 s f M g p i c M n z z f a f p b V b N R N M N B N M c c b b v f c s c c b c c s c m B z h q p e 9 5 i M R B c p g p p ",
"9 u v v b ! O.) F x v f ) O.{ { ( ~ b ! X.^ ) X...~ ~ ! ~ +.#.+.+.+.X.X.) ) ( )  . .) (  ./ +.;.[ [ Y S k d b ! @.<.@./ b v 6 6 ",
"s u N M ! { { ` Z j b d f Q ( ) E B ) ] o.} o.3.;.;.o._ H F ~ o.+.+.X.) ) ) )  .) ) ( ) | ( R V m E V v b V V / ] o.[ ~ E M u u ",
"b v ( z p p f f z f a r p r p p e h a r w e i e e w k f a e e p p r r k a a p r r r e e k h g a d a a a k a r r a g z h S F d s ",
"V V X.i # = = * = p # - % & $ @ o . w # # $ o . . . . w o o O @ o o X X w .   o @ @ O O o e O # - , , # # w # # & # # a S l i f ",
"b M  .i @ * * * = a & , % * & # o . 0 + % , $ # # & + e + # = - - = # o e @ # # * & o o   e # - - - - * o r # * * & & g J S 0 d ",
"f c  .f o # # @ & z + @ # $ # + o o k $ - $ * & & & + k & & * * = - - + z & = # * * * o o k + # $ % # # o x # # & # + f [ _ j p ",
"g d N p i p i i w r p p i i w w e p p w w w p i i i e w e e p i r w w e i w a a p p i w w e w r a a h d p a p a r w p a o.[ l k ",
"l g ! b V H o.o.I x t i i V +.3.3.+.t.r.8.8.7.4.3.4.>.3.4.9.7.1.o.n b X.+.X.@.+.O.] ( L H V ) ) O.3.4.4.7.3.1.O.#.O.o.] } [ v S ",
"F n F v f V v ( L h s f B ) +.#.2.@.<.3.8.8.5.q.9.4.>.3.3.4.7.1.&.H c ( +. ...) ) ~ ~ ! ! V X.) o.7.4.3.1.2.3.3.;.;.@.[ [ ^ S J ",
"W m H b d v c R V c V ) X.X.X.X.@.+.+...O.;.t.y.t.4.4.3.5.4.1.1.O.P c ) @.o.) ( ) ( ^ ~ ~ V ) X.=.1.4.;.+.+.@.<.+...X.] ~ o.S H ",
"H S _ N d b E  .^ ) ^ X.O.] P V ! ~ X.+. .! 1.e.0.4.4.;.0.4.=.:.&.P s  .<.+./ E / ! ) P V V X.@.*.4.7.;.@.#.<.@.<.+.+.[ ] o.E W ",
"S k ' H p b  .@.X.^ ` } :.5.>.%.' ` Y ` ) ( V #.>.:.;.o.=.@.:.&.' z c  .) X.( ( ! V ! H m V X.X.;.;.;.;.@.<.3.;.1.1.;.;.o.1.W E ",
"S k Y H i V X.#.>.5.>.>.0.0.>.%.} ' %.%._ N c u b ~ ^ ` ^ o.^ n f f R ! N / / V V F H H b !  ...@.<.+.o.<.1.6.1.3.<.+.;.1.1.W S ",
"~ l W E d V O.O.q.5.0.0.0.0.&.%.} *.*.%.U j u i f c v b V V V b N ! ! !  .M b M b V V V N ( X. .) <.@.X.<.3.9.9.7.1.1.1.1.1.S W ",
"G S ` c f E ) 7.q.5.5.>.0.0.>.>.&.>.>.%.I P s s b R ! ( {  .{ ( X.)  .) ~ Q B b v m V N ! ) { ) / ) X.X.o.#.7.9.9.9.1.7.1.;.J W ",
"S b [ d v )  .3.5.>.>.4.n k a s z x k a w a r x n h a p a p k L m z a a a r z n l r r r z n z h a r h x +.X.<.6.7.7.4.1.;.1.W _ ",
"S b H v V /  .6.8.>.b s r X O O o a r X X O @ o a r @ @ @ @ @ n h r @ @ @ @ # p i O O O o h a O X X X e a l +.@.3.1.3.1.o.;.` W ",
"N g v V !  .@.9.q.z p X X O O O o z p X O O @ @ a a & # & @ @ V h e @ @ # & # a e O @ O o z a O O O o o o r p  .@.@.;.:.&.&.J W ",
"0 8 N ! ) @.3.y.z r O X O X O O O z a X X O @ @ o a k & & & & R h r & & & ; x a @ @ O O o x a # O O O X O X p e +... .~ ( ] d u ",
"y i Q (  .+.8.y.s @ @ O X O O O O z a X @ O O O @ @ a a @ @ @ L k r # # # z a @ @ O O O o z a O O O O X X O O e b V V R v v u 8 ",
"i i Q ( ) ( 2.t.f & @ O O O O O X b f @ O O O O @ @ @ a & & & m k a & & & k @ O O O O @ + x r @ O O O X X O O p b N v v M V u u ",
"c b H V ! ! / 5.s @ @ O O O O X O z s @ O O O O @ @ @ k k ; # m k f @ = n h @ @ @ O O O @ x r @ O O O X X @ O s E E R E W ( d d ",
"! ~ ] g N R ! ! p & @ O X O O O O f a X O @ @ @ @ @ & & a k & L z f & n a & & @ @ @ @ @ O z h & & @ @ X X O O t W / ! / ) / c M ",
"E ! ` p k R /  .e # @ @ O O O O O f p o & & * @ & @ & & # r n ~ m b b f @ # & @ & & & = # z r @ @ @ @ O O o O a ( ( ( W ( ) b H ",
"V ! ` x k R ) <.e @ @ @ O X X O X f w O @ = = = ; & & & @ @ x L n h f @ @ & & & = = = = & n a @ @ @ O X O O o t (  .( ( ( ( V L ",
"^ V ] Z 0 s  .1.z @ @ @ O O O O X b i O & & * & & & & @ # + L F z a z # & @ ; @ & = & & @ m z @ @ @ O O X O O h E )  ...X.) B m ",
"` m Y l k c ( ( z a n m m m n n n b s a m n m V B m m m m m m z h a a M Q L m m V m m m H m k z N n n m n n z a ! ) ] &.O./ f V ",
"H x G x n d ! +.a r p p r r i p r w i w r p p p f p a a r r a a a r r a z h f a a a a k a f p p i i w p i s p p E { o.&.` Q d f ",
"F m S j b v ( ] a O @ @ @ O O O O r w o O O O O O O @ & # @ # z h w # # @ @ & & # * * # # p p @ @ O O O O X o r R / %.o.[ V i y ",
"n n H n f E ( ;.a o O @ @ O O O X f r X X X X O O @ @ @ @ @ & m h r # @ # # % & # # # # # z i @ O O X O o o o e b V ) ' K l 8 i ",
"i 8 c b V / ~ ;.a X O @ O @ o # o k e + + o o + @ O @ O X O = m g d = - # - - $ $ # # # # z r @ # @ X o O O O d d b b n b N i y ",
"i d R ! X.+.) q.f X O O O o @ + O k 0 o o + + $ & O O O O o @ m h a = 3 * , - * & % % & $ z w @ @ o O O O O X d s B ! / / ~ s i ",
"e 0 H L @.3.<.u.f o O O O @ + + # k q o + + $ $ $ + @ @ O @ O n r r * , , , , % % , < < , h r + O O X O O X o d c R ( ` $.' l a ",
"g g L ~ ) X.) 9.p X o O O O + + * k t o + $ $ : $ $ O @ O O O n h e - , < < < % + % % % $ z r # # O O X o o o a f H L %.*.*.l h ",
"l k Y ' ! ) !  .p X o O + + + $ $ k a o + $ > , : $ + + # O # z a e - < < < < # # % > o o x r - < # O + O O o a b L ` -.-.-.D l ",
"l j _ ` ~ ! / V p X X o o + + $ # k p o o + $ > , $ $ : % > $ n p w , < 4 < , % > < , +   x a $ < * + + + O O d V o.&.,.>.=.l l ",
"Z Z T ' ' N ) / d . o o o + + + # f p o     . . . + $ : : > % n a p - 3 4 , # < , > # o o x h o + # # O O O O a / ] *.-.-.%.Z Z ",
"A C ' $.$.x Q ) p X X o o + + + # k w o       . . . . + % > - m p p 1 3 1 % > + + + o o o m h # o + * * + # + a X.) T -.-.$.D Z ",
"D j $.$.$.G W  .p X o o o o + + + h p o .             . # > 3 n f i 2 < % < -             m l o + o + $ + + @ a +.2.~ *.,.*.I A ",
"D A $.*.$.G / +.p X o o + # + + o k i O . . X         o % : % n a p & # % 2 o             F k # % $ $ + + # o r 2.@.} *.-.*.K D ",
"Z A $.*.] !  .X.p X X o # # + + + k w o   X         . # $ + o n f p # % > + X o o o X X   m h # > % $ + # # + a ) ! / ` %.-.D x ",
"k p H b V / o.3.p     . + + $ + # k p o O X X     o o # o o o x a p % - o o o + o o o X o m k + + + + # $ o o k n b V ! P ] k k ",
"B b / ! ( ) X.3.i X     . o O o o z p # + + + o o + + + o o X n a s @ o o + + o o + o o o x k # + o o + + o o k g b / #.@...b c ",
"z b o.X.( ( ..O.p .     o . . . o z p o & & $ # + # $ + # - - n f p + + + + # # + # + # # x a @ % $ $ + # # o h l b X.9.#.} k i ",
"g z ] P _ P ~  .k . . . o . . .   z e O o o o + @ # O o # # # z p p @ # # + # @ + # # # # z a # % % $ + O # o a f N o.:.Y P g k ",
"k a H P _ ' _ V p p p f a p p a r e e a d w p p p p e w r r p s w r r s r a p p a r e e p e p d f a h r a a e w k H ~ Y Y P k l ",
"k <.e.t.y.y.t.y.y.y.r.t.t.i.i.y.y.y.y.y.t.y.y.y.t.t.y.i.y.y.w.w.r.w.r.y.y.y.i.y.y.t.t.t.t.r.r.t.t.t.w.r.y.y.y.y.w.w.t.y.y.y.! a ",
"g <.t.y.i.i.i.u.y.e.r.r.r.y.i.y.i.y.y.y.t.t.u.u.y.y.y.i.u.y.r.y.r.w.y.r.t.y.i.y.y.y.t.t.w.t.y.t.y.t.w.w.w.r.t.w.t.w.r.t.y.@.V a ",
"l <.y.8.r.y.w.9.7.8.6.2.6.8.w.w.r.9.w.8.6.5.w.8.6.8.w.w.w.8.8.8.6.8.6.6.6.w.w.w.7.6.7.6.6.8.w.8.8.6.6.3.3.6.6.8.3.6.6.w.w.+.R g ",
"x @.t.w.r.y.e.w.7.6.1.6.6.w.w.r.r.r.w.w.8.8.8.6.3.6.w.w.w.6.7.8.9.8.9.6.8.w.r.w.8.6.9.8.8.8.9.w.8.6.6.6.6.3.6.3.6.6.w.6.7.+.R S ",
"S @.t.w.w.e.w.8.9.z z k b k z a z a z p f a z f b p z p k r a a k a l a z a z f b a z f z f f a k k b z z a z a 6.8.8.8.9.+.M W ",
"~ +.r.7.w.w.w.9.8.a o r O p O p o w # w + w @ r # w @ w @ w # w @ i & e # i @ p # p # w @ p # r o e @ p @ i O w 9.8.6.6.6.X.B ] ",
"J <.w.6.7.7.9.9.8.a o p O e # e @ w @ r + w & w & w * r @ w # w O e # p # p & p & a # p # p @ p O w + s @ s O p 6.8.6.3.6. .M ! ",
"~ +.w.6.6.6.6.6.7.w o w @ w @ i O w O r o w & w & p & i # w # w # p & e # p & p & p # d @ p @ p O e + w @ p O p 1.6.1.6.6. .b ) ",
")  .w.2.6.2.2.6.6.w O e O w O p @ w @ 0 o w & i & i @ r # i O w & p & r # e # p & p # p # e # p O w # w O s O p 6.6.6.9.6. .b +.",
"N X.w.6.3.<.6.6.7.w O w + w + w # w @ w @ w & w & p * p # e # w # e # r # p = p # s & d # e @ p + p # e # e # d 6.<.8.9.8. .v H ",
"s X.w.3.3.<.2.6.8.f O a O z O k @ k # f # a # a # f # z # z # f # h # z + z # z + k @ k @ z @ z @ z O z O k + d 8.1.<.2.1. .v y ",
"R +.r.6.2.<.2.<.6.w w e w e w w w w w i w w w w w w y w w w w i w p i e w e e p p p u s i i w i i p a a r w u u 6.6.<.<.<. .v M ",
"J +.w.1.6.<.<.<.2.6.3.2.3.6.3.6.6.6.6.8.w.r.r.w.w.9.8.6.6.6.6.3.6.6.6.6.8.9.w.e.w.r.w.8.w.6.6.6.6.3.6.3.1.<.6.1.2.6.1.<.<. .b F ",
"[ <.<. . . . . . .) ( |  .X..... . .X.+.+.+.+.+.O.X...{  . ... . . . . ...X.+.+.+.<.<.+.+. . . .X.X... .) (  .|  . . . . .X.b E ",
"] R v M b b b c b b b b M B M M N M N R B R R R B B M b b b v v c v v b v M N V R R R R R M M M N B B M v M M M b b v M b M M _ ",
"` G Z j 6 5 y c b c B | ! V M b z f f d s i c c c c M b b b N V m b l p i i i d f s s b R B R c k p i i i e 6 5 y s g G _ K H J "
};
