/* XPM */
static char *result[] = {
/* columns rows colors chars-per-pixel */
"64 64 156 2 ",
"   c #332926",
".  c #3A2924",
"X  c #342D2B",
"o  c #3D2E2A",
"O  c #3C312E",
"+  c #3E3533",
"@  c #43332E",
"#  c #433632",
"$  c #4A3731",
"%  c #453935",
"&  c #4B3A34",
"*  c #473C39",
"=  c #4B3D39",
"-  c #533C35",
";  c #5A3E36",
":  c #503E38",
">  c #4B413E",
",  c #54423C",
"<  c #5B443D",
"1  c #62453C",
"2  c #69473D",
"3  c #66493F",
"4  c #6C493E",
"5  c #764B3E",
"6  c #7C4D3E",
"7  c #4D4441",
"8  c #544641",
"9  c #5B4740",
"0  c #554945",
"q  c #5C4943",
"w  c #5C4D49",
"e  c #5D524E",
"r  c #5F5552",
"t  c #644B44",
"y  c #6B4D44",
"u  c #634E49",
"i  c #6A4F48",
"p  c #724E44",
"a  c #794F42",
"s  c #65514C",
"d  c #6C524C",
"f  c #745046",
"g  c #7B5145",
"h  c #74544B",
"j  c #7B554B",
"k  c #76584F",
"l  c #7C594E",
"z  c #645652",
"x  c #6C5750",
"c  c #6C5954",
"v  c #6E5D59",
"b  c #725750",
"n  c #745B53",
"m  c #7C5C53",
"M  c #745F58",
"N  c #7D6057",
"B  c #75625C",
"V  c #7C635B",
"C  c #6E6360",
"Z  c #766662",
"A  c #7B6761",
"S  c #756A66",
"D  c #7D6963",
"F  c #7B6E6A",
"G  c #7F726E",
"H  c #845445",
"J  c #8A5242",
"K  c #82564A",
"L  c #895748",
"P  c #845A4D",
"I  c #8C5A4C",
"U  c #905645",
"Y  c #945847",
"T  c #935C4C",
"R  c #995F4E",
"E  c #835E53",
"W  c #8B5E51",
"Q  c #925F50",
"!  c #9A604F",
"~  c #846156",
"^  c #8B6255",
"/  c #83645B",
"(  c #8B665A",
")  c #85685F",
"_  c #8C695E",
"`  c #946354",
"'  c #9A6454",
"]  c #9F6857",
"[  c #936659",
"{  c #996758",
"}  c #946A5D",
"|  c #9B6B5C",
" . c #A06756",
".. c #A06857",
"X. c #A26D5D",
"o. c #846B63",
"O. c #8C6C63",
"+. c #836F69",
"@. c #946E62",
"#. c #9B6E61",
"$. c #8E7066",
"%. c #86726C",
"&. c #8C736B",
"*. c #957165",
"=. c #9D7164",
"-. c #94756B",
";. c #9C766A",
":. c #95786F",
">. c #9D796D",
",. c #867671",
"<. c #8B7770",
"1. c #857A76",
"2. c #8E7A73",
"3. c #8E7D78",
"4. c #957A73",
"5. c #9B7C72",
"6. c #937F79",
"7. c #A16F60",
"8. c #A37364",
"9. c #A97565",
"0. c #A27669",
"q. c #A87768",
"w. c #A4796C",
"e. c #AA7C6D",
"r. c #A37E72",
"t. c #AA7E71",
"y. c #9E8076",
"u. c #96827E",
"i. c #9D817A",
"p. c #A58176",
"a. c #AB8275",
"s. c #A4847B",
"d. c #AB857A",
"f. c #AC887E",
"g. c #B28274",
"h. c #B2867A",
"j. c #B18A7E",
"k. c #9B8984",
"l. c #9C8D89",
"z. c #A48A83",
"x. c #AC8C82",
"c. c #A98F88",
"v. c #B28D82",
"b. c #AD9087",
"n. c #A6938D",
"m. c #AC938C",
"M. c #B29187",
"N. c #B3958B",
"B. c #B9998F",
"V. c #A69691",
"C. c #A99792",
"Z. c #AF9891",
"A. c #B59C94",
"S. c #BB9A90",
"D. c #B5A29C",
"F. c #B9A59F",
/* pixels */
"s.x.-.k / >.#.0.d.z.>.#.#.#.T g h j E | { Q 8.e.a.7.7.` >.d &.5.^ =.=.=.0.8.=.0.w.w.8.w.0.^ t O X ~ P =.=.8.w.=.P L @.A o.$.) 4.",
"x.x.a.r.0.[ s.t.t.s.r.w.| W p y j E E } | ` 0.0.8.8.w.{ @.| =.P | X.p @.a.0.8.r.0.0.-.*.h s @.m # B -.=.w.{ { } *.4.n % s 2.V.V.",
"a.r.r.>.s.6.r.g.t.t.0.0.=.h u m o.y t *.w.8.9.8.X.| =.] 8.K y *.>.=.; / v.r.^ ~ d l >.O.u > / ^ g h p | #.^ | | D <.o.*.y N z.5.",
"t.=.;.h -.<.E =.>.r.w.[ <.+.4.n.p.@.( ~ #.8.8.8.8.8.' ' | ^ } k %.b E [ O.V O.h E / -.*.y t ) < } { =._ { ` ` ( k O.s.=.#.0.e.w.",
"-.0.s.+.s.O.= x M t.e.( / 5.@.x.4.} 0.| ` =.8.8.| #.` | { ; t o.,.t d m d 0 o.<.w.0.w.O.9 o.$.~ ^ | 8.[ | =.| / E l ^ | E ~ | N ",
"v l.+.<.4., t b / 0.0.m o.4.>.z._ =.0.} E | =.=.| L ` 8.*.1 d %.A n -.=.2.&.t D -.t.} 1 p ( ^ w.*.0.8.#.8.8.*.m , $ b } , % % = ",
"M -.&.:.h i =.#.} 0.w.d d / m &.O.0.w.w.8.7.X.P =.` W r.y.i n V n N &.N o.p.l ~ >.-.3 6 I { ` } | } =.;.=.#.;.) d q ~ h i < o q ",
"h Q =.=.b O.@.5.;.w.5.V / 4.V V $.*.#.8.8.8.X.P ;.m v 5.>.t s n M O.n s m @.>.$.w.=.j 1 < ` ` ^ 0.w.w.0.-.0.;.o.d t h V E < w V ",
":.=.| ' { @.s.h k =.-.O.O.A & h =.w.=.#.0.w.$ + S F ,.6.8.P h / m | } P } | ;.=.;.;.=.m i } { =.} =.| =.0.-.*.*.=._ @.m k m ) O.",
"b.>.=.{ R | 5.O.#.a.p.r.O.d q m @.=.| } =.` h -.l.C o.-.| W j E O.[ =.~ [ | w.r.5.8.X.d 9 O.( | { { | >.p.u.w.{ =.~ m @.[ m / w.",
"&.4.>.^ | w.;.^ #.0.w.d.r.@.@.5.;.w.8.| } _ ` o.F   4 | b m d ) @.| =.>.~ ` w.5.w.| { & s z d d k 0.5.~ n i._ h m h k ( m m | 8.",
"t = 5.o.W W 0.{ [ { | r.p.4.5.5.r.p.0.^ ^ = , s 0 v O.^ V @.4.i.;.| | ( n =.r.r.;.| { N ) 8 8 < l l z s &.p.@.d < y k l @.-.` ` ",
"9 > n.-.  t 0.` T W | r.p.>.r.s.x.x.@.E & $ *.*.d o.5.N p.>.w.} f l P #.;.r.s.w.| 8.{ 8.j s m i $ y c / ~ p.o.0 , E V ) / a.w.0.",
"i.s.N.A.c ) _ I W &.>.a.z.z.x.c.N.j.w.0.< K { 8 / b 3.+.0.} 8.} @.-./ #.^ | r.r.0.8.{ =.O.m @.m d ( E l y 1 A V m m l m ( 0.9.8.",
"d.M.N.m.b i h ^ } 5.;.0.h.c.x.x.x.M.d.-.< s &.c d 0 w w P [ 4 ^ 8.r.#.I a { 8.w.#.I Q #.;.=.5.d.=.| | { 0.m s 4.V q ;.w.w.| { | ",
"w.v.M.p.*.q q / / w _ [ | s.x.x.v.M.p.~ ) C G G o.d x %.` =.n ^ ` { ' R L W @.{ O.>.-.#.#.s.b.w.| ` =.| >.V z o.u.n 0.| a.d.8.| ",
"w.0.;.p.d.~ 8 @.#.V @.X.{ ;.c.M.v.f.f.h q 1.Z ,.A u :.>.#.8.5.$.` L Q Q W E @.{ P _ #.` 7.a.h.X.T | #.{ =.) ) -.-.u ~ ~ ~ p.P | ",
"=.0.r.r.>.< = #.#.P #.0.q.0.j.h.v.x.x._ x ,.V &.&.4.z.>.t.8.>.O.=.P [ $ # H ` L I Q ! ! ] h.g.X.R [ =.0.w.=.E ( ( u d N _ y.K ^ ",
"w.a./ t # # i =.8./ ` 7.7.7.a.v.v.a.@._ v.C.4.>.d k 6.0.O.~ 0.{ w._ ( y   6 ] 8.8.X.] =.w.a.h.{ L ;.d.a.) ( k { y i ) =.p.p.7.8.",
"k ^ & h _ ) O.8.9.E H X.7.7.a.h.v.s.=.*.w.s.5.:.b d 4.>.W ^ =.| Q 0 w B B ` >.d.a.0.| -.p.h.f.7.H | p.t.;.w.} -.h l } #.0.e.| h ",
"O.5.-.E =.} i *.*.c E 9.| | w.p.g.j.c.0.#.p @.r.m ) M &.#.#.0.8.` 1 < >.p.{ p.s.f.0.*.y.s.p.p.a.X.| =.{ w.e.w.8.| 0.a.8.e.g.w.d ",
"#.=.0.=.#.} p o.<.3.^ X.9.| #.p.d.N.N.e.E < } t.r.5.p.5.0.0.8.W 5 N :.>.t @.#.:.b.=._ -.a.:.f.p.e.=.*.` =.w.t.j.p.8.a.0.=.| 8.^ ",
"X.` =.p.#.T ' | w m ` ' ' X.| w.N.S.g.E k W 0.9.w.x.r.>.=.#.0.t t _ $.:.& } 0.@.p.0.[ [ =.p.f.~ ~ } =.8.8.| ` s.0.p.a.8.| I 8.{ ",
"' ' { w.8.j ` J < % y ' | 9.X.8.j.h.t.-.5.8.7.| 0.d.n.u.*.>.s./ i } } *.@.[ p.f.0._ E Q 9._ ( } E [ w.t.e.=.` { | a.r.#.] { X.| ",
"| ' Q ( @.=.=.X.T s i ! ] X.X.X._ ;.M.w.` =.| 7.0.p.z.) @.r.>.E -.w.| =.@.;.p.b.h   f ..7.h , { ~ ^ 8.w.w.e.g.8.0.=.| X.{ | X.' ",
"|  .I / r.8.` w.w.=.~ ! L ` { X.[ s.Z.t.' } W p } e.;.} 8.p.z.d.a.w.| _ [ } 0.0.p.N ^ 7.` P P ^ ~ ^ P ` q.e.e.9.{ H Y ' 7.8.X.8.",
"` ` *.s.w.8.` w.0.~ % - @._ { 7.w.w.a.a.8.7.1 # ) @.=.;.8.@.;.d.p.a.>.@.u _ =.8.a.w.7.7.` f g ( w.^ a | | 8.| Q W ` R I { ..' | ",
"9.8.x.d.r.w.r.r.w.| t ) s.a.a.e.@.` #.8.| 7.^ / &.o.>.m 2 l K #.f.w.#.@ w *.` T | 7.| w.! V ( *.p.=.p h >.w.9.X.` { ` ` 7.R ` 9.",
"X.8.;.r.0.0.d.e.w., % -.8.q.g.d.r.e.8.0.#.| } m c u s d j E j | =.| P < d } [ | P T ] ;.x.Z.;.;.r.8.& s 5.t.e.g.X.` { | ......X.",
"X.8.0.w.` r.d.0.o.q E w.a.9.e.8.t.g.9.#.r.x.s M +.x 8 w { ` | ` | { { ] f k ~ 8.^ { 0.[ s.>.;.w.w.] f ) r.g.9...' ' ' | ' R R ' ",
"' | 0.e.;.r.c.r.&._ ] ~ ) r.5.} 0.d.@._ i.F 7 V 4.o.c w 8.{ { s.w.0.' T 1 y [ w.s.e.0.{ < # t 9.9.a.g.~ ( a.8.' R ..9.' Y Y '  .",
"R 9.h.a.t.j.a.m >.a.8.h < $.O.N } =.j E 5.0 > / +./ m &.=.| #.a._ ^ P W E N s.y.y.7.8.[ 4 d _ ;.a.j.a.w.h o.V {  .X. . .! R  .! ",
"X.e.j.v.a.v.^ t _ @.#.#.=.m V $.a.w.^ l -.d w B %.q N a.=.a.=.| | ~ V u.o.*.p.K g j p.=.| ^ @.V >.h.w.p.n w > n 0.' ' ! Y L ! ] ",
"w.v.x.t.0.=.0.;./ m #.{ { o.o.{ a.| >.*.N h _ +.+.4.p.w.8.e.} P =.*.u.n.c m [ I 6 H ~ { | { =.) +.z.>.[ ~ 0 0 * d 8.T Y ! ! L { ",
"w.f.v.8.^ m } 9.P y ^ ` @.6.5.w.w.p.>.N ) f -.~ V e.w.0.8.0.N / 0.8.( _ k $.*.O.~ j N =.;.| ` | | O.) >.w.N s & d a.{ ` I K h =.",
"w.a.X.=.#.[ 0.| T g < c O.r.;.;.p.s.0.w.>.` ` ` d *.w._ =.} / =.0.w.h ` ' 8._ $.4.) -.p.0.| ! ` { ~ O.j.a.>.t.^ ^ w.0.l > f n ( ",
"=.>.( _ ;.0.| ' Y J 5 l V X.8.0.p.f.a.j.d.t @ < _ a.>.} [ y.;.| =.| y [ I #.*.y.:.) &.n _ } 0.0.w.*.l m l f ^ I } w.m % Z } j y ",
"i t , t _ } 8.U U H H H P 9.e.a.f.b.v.f.a.p.d - f | >.w.$.i.=.0.w.*.d _ :.>.} =.8./ / =.;.$.>.;.w.>.*.} -.m < 1 g #.t e $.e.0.^ ",
"[ $ i E } N [ J J T H k { =.0.w.d.h.a.d.w.#.] d.) *./ , N % % -.A.n.C.b.A.p.[ 0.w.[ } >.p.=.P ~ a.;.e.8.8.} _ f ~ 0.w.:.0.8.p.p.",
"j ^ @.=.=.m E a T ' ^ q O.r.r._ q ~ 0.f.} 4 t *.) :.o.) h c c ~ N.D.A.v.0.=.} =.` } $.} >.p.p.a.w.d.a.*.d N n -.r.r.d.5.~ >.z.) ",
"_ 8.e.} _ O.` y { 8.( | X.;.;.m 0 / O.f.=.| ~ ~ V n / =._ D B y m.F.x.a.8.7.=.f . i q ( X.` } d.r.w.r.{ m *.5.*.| X.0.=.j @./ n ",
"0.| a.t.p.>.W W q.7.y @._ [ 0./ B ) >.x.=.| ~ _ p.p.5.>.d q A = / a.e.8.;.p.f._ < O m 0.' ! { 0.8.0.` { 0.d.w.@.K g { W : } / p.",
"0.-.{ w.s.0.L ^ e.X.n r v o.&.B N k V w.| 8.8.^ | q.p.s.l / p.8.` 7.a.p.s.f.b.:.-.*.8.X.{ ` X.0.0.| X.w.w.s.k.O.t & , E o j w.d.",
"w.=.' 8.=.>.-.^ W @ n e z F 1.5.) $.} | 7.{ { ^ j =.r.p.-.o.p.;.=.a.;.r.p.f.p.;.;.p.p.=.( l 7.;.t.8.t.e.9.` >.( p I E m m @.W =.",
"[ T | | | *., d E $ x S r B k.O.{ ` J Y { I { w., V w.*.k V N :.p.p.;.| ` 0.e.7.w.a.d.0.>.d j @.w.t.a.e.8.W y 1 ` ' 9.e.0.8.0.8.",
"` ` { | p._ q k #.` 0.n.2.%.&.O.` T T Y { =.:.m y c x d % d *.>.>.9.0.! ` 7.w.| =.d.M.j.7.P ` 8.r.a.e.r.x.-.b | X.{ 7.j.h.t.t.[ ",
"@.{ 8.=.r.=.^ ) #.[ | r.c.s.o.@.` ' ' ' ' #.5.( g , q y.u t *.>.;.X.8.=.' ' | { =.p.j.j.p.9.| 0.0.;.w.>.n.N.e.8.{ | 0.w.j.r.} / ",
"_ [ 8.w.;.0.0.w.` I { =.0.p.) [ ` R ' ! ` #.8.0.o./ >.x.d y [ 8.9.! | =.{ | 7.X.X.e.a.g.a._ 3 ^ 0.w.@.2.c.8.X.' X.' { 8.v.N.w.M ",
"@.=.8.a.O./ 0.a.0.{ | #.r.d.r.s.N { ` I { w.0.a.f.j.h.a.N =.7.0.g. .] y.0.{ X.X.` X.9.g.a.( < k w.=.*.k.*.#.X.8.X.{ ` r.B.w.d D ",
"} =.j.h.m m t.a.t.8.s.t.0.0.c.v.-.p.0.>.p.*.p.h.h.h.w.w.~ 0.~ ~ | ' X.=.p.#.{ { X.8.9.9.7.=._ < O.{ ` p * *.d.8.X.' 0.f.h.#.m o.",
"E a.d.0.#.r.0.w.r.a.v.g.s.t.c.v.@.;.a.d.-.>.d.a.a.h.f.8.} l O O < T ' X.d.;.[ @.0.8.7.8.| ` =.t t =.X.6 , h d.d.9.9.d.h.0.0.n < ",
"i r.0.0.s.N.v.a.x.d.d.t.t.z.&.-.i 0.e.^ >.=.k ~ K } >.=.=.g O X u ` ! X.X.Q s.d.a.8.7.7.X.] 8.^ O.w.| R m = ( w.8.e.d.a.t.h.h $ ",
"j *.t.@.@.c.N.x.x.s.s.=.{ r.z.&.d 0.j & ~ >./ l l K } N ` ` d d @.] ! X.X.=.f.a.8.8.X.X.{ 8.8.q.a.t.-./ O = ( #.X.8.t.a.d.p.w.} ",
">.O./ @.t.a.N.N.N.p.t.8.| P @.r.w.8.p > 3 l *.} ;.-.3 0 I L g 3 ' ` { X.0.f.d.w.8.8.{ X.| X.#.8.q.^ B u.q q _ { j i =.a.r.>.>.E ",
"t.w.>.t.#.| O.p.s.x.c.w.` W { t.g.K 0 i N ) ;.@.-.N d z ' ` 6 j =.=.8.0.#.0.w.w.0.8.] { { | ;.} o.n w D q n E } = z <.O.=.w.e.=.",
">.O.#.t.w.e.m 6.s.s.r.>.@.0.9.t.g.[ w 4.n l } } / >.$.+ 7.` k [ =.| 0.;.} =.q.w.w.8.7.{ | 0.| c 1.V O 7 A %.n ` < 7 ,.o.p.9.{ ( ",
"D s >.h.w.a.i.c.s.x.r.5.*.#.` 8.a.w.O.s.V l ^ ~ *.^ 4 o a.X.m ^ Q ` p.a.X.8.8.w.8.w.0.9.8.9.P . r d ) F l.u.u./ _ K @.4.s.8.| -.",
"O.O.z.s.w.s.p.;.m B i.z.*.O.@.h _ i ;.@.^ _ m 3 w.^ @.P j.a.p.;.^ { =.7.X.=.9.a.e.a.0.0.9.a.e.4 < *.w.s.F V u.%.~ ' { } 8.a.t.w.",
">.5.n.z.d.d.5.-.e = ( t.#.@.i.-.-.~ @.^ } [ ~ [ #.-.y.h } ( -.{ I X.| =.9.7.8.w.w.w.0.9.w.w.y.7.| =.0.O.d Z 3.1.5.{ | #.;.w.=.#.",
"*.-.i.%.o.O.r./ X i w.8.=.s.z.i.s.@.^ O.~ c m ;.) k / e *.P Q ` { X.X.;.0.p.8.8.7.9.9.a.0.w.-.a.*.m / 8 -.4.c %.n.w.8.0.8./ i.s.",
"/ 5.@.m i = x t h ;.w.8.| 7.r.5.u.y.>.*.) =.9.0.l t l { P ^ E { | 8.7.=.8.a.8.a.0.9.0.0.9.w.w.8.l = $ t G %., B z.a.9.8.y o.y./ ",
"r.>.^ :.m s t =.e.t.r.t.0.0.=.#.%.u.:.y.d.7.8.0.} I ] 8.> u 3 4 ~ 7.9.9.=.0.8.8.w.7.9.7.w.p.0.=.< ; l d e D t.=.*.0.t.0.n ,.x B ",
"j h / / 4 ~ } 8.e.0.r.r.r.t.0.;.d h +.c.w.{ =.w.0.| T ` c c k P Q } 8.w.w.9.X.=.w.q.8.=.p.a.< d y 3 m / ) %.f.e.8.=.8.=.2.k.d m ",
"p / u.d t 5.#.9.e.w.t.w.=.8.#.8.d < m p.| #.| 8.7.` Y Y ( @ c *.#.[ =.w.w.w.8.w.w.q.9.=.=.=.< + t j P { / %.s.8.{ | X.-.i.@.y t "
};
