/* XPM */
static char *result[] = {
/* columns rows colors chars-per-pixel */
"64 64 228 2 ",
"   c #3C3C2D",
".  c #3A3C33",
"X  c #413E3F",
"o  c #3D4432",
"O  c #3C4726",
"+  c #464C2D",
"@  c #4A4C2C",
"#  c #444A27",
"$  c #4B522C",
"%  c #4D5C2C",
"&  c #4A5429",
"*  c #52552F",
"=  c #545B2C",
"-  c #595A2A",
";  c #565B26",
":  c #434535",
">  c #4C4E34",
",  c #44493A",
"<  c #4B4C3B",
"1  c #44403F",
"2  c #4D5334",
"3  c #4D5837",
"4  c #525434",
"5  c #545B34",
"6  c #53553C",
"7  c #535B3B",
"8  c #5C5E3D",
"9  c #5A5A34",
"0  c #594F3D",
"q  c #55642D",
"w  c #5C642D",
"e  c #5D6A2C",
"r  c #576829",
"t  c #556333",
"y  c #5B6334",
"u  c #5D6B33",
"i  c #55633B",
"p  c #5C633B",
"a  c #556B3B",
"s  c #5D6B3B",
"d  c #546B36",
"f  c #5D7234",
"g  c #5E733B",
"h  c #5C7839",
"j  c #4F6739",
"k  c #636D2A",
"l  c #66682C",
"z  c #65732D",
"x  c #6A742E",
"c  c #667A2C",
"v  c #717C2E",
"b  c #636533",
"n  c #636E33",
"m  c #61643A",
"M  c #636C3C",
"N  c #696E35",
"B  c #647434",
"V  c #6B7534",
"C  c #667A35",
"Z  c #6B7B34",
"A  c #63733B",
"S  c #6B763C",
"D  c #667A3B",
"F  c #6B7A3C",
"G  c #727C3D",
"H  c #757D36",
"J  c #403E45",
"K  c #4A4946",
"L  c #4D5644",
"P  c #525543",
"I  c #545C42",
"U  c #5A5D43",
"Y  c #5B5C4C",
"T  c #54574C",
"R  c #5C5D53",
"E  c #5B5B5C",
"W  c #57575D",
"Q  c #4E4D55",
"!  c #615F4F",
"~  c #566242",
"^  c #5C6343",
"/  c #5D6B44",
"(  c #5D664C",
")  c #5D6B4A",
"_  c #556845",
"`  c #5D7344",
"'  c #5E6552",
"]  c #5E6557",
"[  c #616544",
"{  c #636C44",
"}  c #63654C",
"|  c #646C4C",
" . c #6A6D4E",
".. c #6B6941",
"X. c #647343",
"o. c #6B7444",
"O. c #657B42",
"+. c #6B7B44",
"@. c #66744C",
"#. c #6B744B",
"$. c #6C7A4B",
"%. c #727C44",
"&. c #737B4B",
"*. c #737448",
"=. c #636554",
"-. c #656C53",
";. c #6B6D54",
":. c #63645B",
">. c #666C5A",
",. c #6A6D5B",
"<. c #696752",
"1. c #706D56",
"2. c #6B7352",
"3. c #6D7953",
"4. c #6C735B",
"5. c #6E7C59",
"6. c #657155",
"7. c #727553",
"8. c #737B53",
"9. c #72755C",
"0. c #747B5C",
"q. c #797C5C",
"w. c #5E5D62",
"e. c #605F63",
"r. c #626266",
"t. c #6B6D63",
"y. c #66656A",
"u. c #69676D",
"i. c #6A6A6E",
"p. c #676B69",
"a. c #6D7263",
"s. c #6F716B",
"d. c #6E7962",
"f. c #727464",
"g. c #757B64",
"h. c #7A7D63",
"j. c #73756C",
"k. c #757A6B",
"l. c #7A7D6C",
"z. c #787768",
"x. c #6D6C71",
"c. c #706F74",
"v. c #747474",
"b. c #777A73",
"n. c #7A7C74",
"m. c #76767B",
"M. c #78777B",
"N. c #7B7C7C",
"B. c #777879",
"V. c #706F6C",
"C. c #807F7D",
"Z. c #75872C",
"A. c #7C912F",
"S. c #6B8234",
"D. c #6B823B",
"F. c #6B893B",
"G. c #738434",
"H. c #748A35",
"J. c #73843D",
"K. c #7C8A3C",
"L. c #788939",
"P. c #7A923C",
"I. c #7B9536",
"U. c #6C8542",
"Y. c #6E844C",
"T. c #738242",
"R. c #7A8444",
"E. c #758B44",
"W. c #7C8B42",
"Q. c #72834B",
"!. c #79844C",
"~. c #7C8C4B",
"^. c #768B4A",
"/. c #7C9346",
"(. c #6D8253",
"). c #758354",
"_. c #7B8B54",
"`. c #77835B",
"'. c #7B825D",
"]. c #7B8857",
"[. c #7B9159",
"{. c #7B8263",
"}. c #7C8B63",
"|. c #7B826C",
" X c #768167",
".X c #7D8274",
"XX c #7E817C",
"oX c #859A39",
"OX c #80972B",
"+X c #82A139",
"@X c #848E49",
"#X c #839245",
"$X c #84954B",
"%X c #828D58",
"&X c #849659",
"*X c #8AA648",
"=X c #8BA556",
"-X c #828A64",
";X c #81866C",
":X c #838C6B",
">X c #818560",
",X c #889369",
"<X c #818473",
"1X c #848A73",
"2X c #82837D",
"3X c #888C7B",
"4X c #8D9676",
"5X c #929E76",
"6X c #7D7D81",
"7X c #807F84",
"8X c #7F8082",
"9X c #828285",
"0X c #868982",
"qX c #8A8C85",
"wX c #85858A",
"eX c #88878C",
"rX c #87888A",
"tX c #8A8A8D",
"yX c #8F918E",
"uX c #8D9086",
"iX c #91938B",
"pX c #8D8D91",
"aX c #908F94",
"sX c #8F9092",
"dX c #929195",
"fX c #969599",
"gX c #98979B",
"hX c #99989D",
/* pixels */
"dXdXdXdXdXdXpXpXpXdXdXaXfXfXfXfXfXfXfXfXfXfXgXfXfXaXaXN.|.0.@X#X@Xl.3X;X&X[ 8.=XM ,.l.9.$.K.%XiXgXgXgXdXwXt.k.:X4X7XC.{.$.&Xr.r.",
"dXdXaXdXpXdXaXaXaXdXpXpXaXfXdXdXdXdXfXfXfXfXgXgXfXfXaXpXqX2X0.&.!. .2.[ o.K.9 ^.{ +.%.$.2.%X5XiXfXaXgXdX3X%X9.q.,X,X;.o.7.A y.u.",
"tXtXsXdXdXdXdXdXdXdXpXpXpXaXdXaXpXpXaXdXfXfXgXgXfXfXaXaXpXpXtXh.*.*.+.R._.{ m 8 { 8 ~ ].1XtXpXtXpXdXpXtX-X#X#.^ &.| Q.8 $ > r.u.",
"#.q.4XwXeXtXwXwXeX8X8X8X8XwXwXwXwXeXeXpXaXaXpXeXwXrXwXwXwXwX9Xk.8 M g G.G.L.'.;X4.w % H.k.wXwX9X0X9XwX9Xn.M 4 @ +.^ y q u u r.u.",
"U.{ =X,XtXeXtXwX9X9X9XwXwXwX8XwX9X6XwXpXpXpXtXwXwXwXrXrXwXwXwX9Xf..X.X>.( q.0XrX1X@.U -X2XwXN.a.-.=..X8X|.>.G I Z.` +XH.d u r.u.",
"2.2. Xn.wXtXN.;.M #.b.9X6X8X6XwX9X6X2X2X9XwXwXwXwXwX9XC.l.{..XrXwXwXwX8XN.2X4X-Xa.h.1X2XrX9X,.J.= @.b.f.E.u G U * ` & e S.V w.u.",
"q.`./.y f.rXb.s 5 q p g.6XwXwXwXN.9.J.p 8.l.;X.X7XwXl. .V D.).9XtXeX2X4.[ ].<.[ R z.<Xl.|.}.^ q } l.N.} 8 A.> P H H q 7 U F w.y.",
"[ ).2.n :.wXN.p c D s J.s.wX6XwXN.8.A m W.4 n >.n.wXl.U B @.Y N.eX9Xg.y 7 ; / P V.=.U R.G I.q < ] N.9X9Xn.7.&.T #X#X5 v M 4.w.y.",
"q.z.f.f.C.0Xb.3.g U.` $ ^.2XwXwXn.Y @XG.6 s B B {.wX9Xa.2 : ! v.6XN.g.F.g ,  .|.;.y ; n n D U., #..X7X7X7X0X2XF %.J.4 x Z [ r.y.",
"4X9XrXwXwXn.#.&X|.b.|.-XN.wXwXN.:.$ Z.O.) P < Y.k.wXXX6.> t o.t.m.s.T 3 a #.k.n.' 0 x o.M L ~ (.3.|.N.7X9XwX7Xk.@Xi E.H.H.@.r.u.",
"rXtXwXN.N.wXN.9X9XrXtXtXtXtXwXN._.#X& 6.b.N.v.2X9X9Xl.6 K /._.j.d.' K Q R 4.9.#.Z c M o.L L d.a.b.N.N.2XN.N.9Xn.} A *X#XG { w.p.",
"tXtXwXb.;XwXeXeXrXtXpXtXtXrXwXwX8X'.t =.9XXX9X8X.X3.K g { 7.b.v.`.6.a.p.4.| o.M G.M 2.=.5.0.j.v.N.9X0X.X8.#.0.Y = M F C r R.w.u.",
"iXdXyX2X7XrXtXtXtXpXaXpXtXwXwXwXwXv.1.=.b.a.4.>.L d q Q.k.N.N.6X8XN.N.R 2 k 3 7 @ V R.4.v.N.m.6XN.7XN.{.!.+.+.4 = q D u $.R.r.u.",
"dXdXsX9XwXrXtXaXpXpXaXtXrXwXwXwXwXwX9X;X#.Y.3 L , o C @.`.8. .k.wX9X6XN.Y 5 9 : b 9 7.j.N.N.6X6XN.n.f.2.$.{.f.>.n & 5 = w M u.x.",
"iXdXpX9XwXwXtXtXtXpXaXeXwXwXwXwX9X9Xb.P 4 K.B A -., ).P.c @ 2 ^.0X8X1Xq.;.~.R.=.}  .,.n.N.6X6X6Xm.j.4.(.[.{.l.9.A #.| G Z & y.x.",
"dXdXdXwX7XwXrXtXtXtXtXtXrXwXwXwX2Xk.>.9 s 8 G.H.i }..XX.w 2 { k.XX}.^.= $ X.8 +.9 7 =.b.6X6X6X6XN.N.a.a.f.l.|._._.|.|./.x * r.x.",
"dXdXyXwX9XwXrXwXwXqXpXtXpXtX9XXXg.^ { N M 2 o.4 4 `.XXl.9.'.l.wX;X[ N x w K.( * F @ [ s.6XwXwX8X6XwX6Xj.z.N.<Xg.$X_.[.S x ; r.u.",
"sXdXaXwX7XN.C.N.2X9XwXtXpXwX.X}.U./ U < < 4.7 q u T 6XwXwX0XwXwXN.f.q.y v W.!.,.} m 8 f.8X9XwXwX7X6X6XM.N.b.{.&.p D.F.5 t t r.x.",
"tXyXiX<Xn.h.>.4.i.rXwXtXeXrX8X|.{.5.,.' 2.4.E.u d K z.t.2.~.{.7X7XwX9XC.].].k.N.n.S > q.2XwX9XwXwX7X6X7X6X6X4.M l _ i P -.,.y.x.",
":.:X4Xq.| P 3 +.q.wXeXpXeXeX9X8XN.N.XXs.s V S.E.u : p > N v 9 j.C.7XrXwXwXC.b.2XtX%.M 4.2XwXwX9XwXeXeXwXwX9Xl.,.3.y.V.v.v.n.u.x.",
"*.8.7.J.T.N ; Z {.C.eXtXtXwXwX9X9X9XN.=.C q q % 6 Y =.=.&.V V < U n.tXtX,.{ m g.qX0.^.2.d.XXN.8XwXwXeXtXwX9X7X6Xn.N.0X6X6XN.u.x.",
"n.&.o.C = @ w n !.<XwXtXtXrXwXwXwX9Xl.'.% F & 5 =.v.7XwXC.<.m m a.v.tXl.n k $ &.4.%.t @.).f.j.N.6X7XwXwXwXwXeX7XN.g.n.6Xv.n.x.i.",
"dX3X;._ 7 g l %.-.n.wXrXqXqX0X9X2XN.t.o.$.I t 6.v.7XeXaXtXC.V.n.wXtXrX:.  X 4 p .   o 6.&.7.b..X,.g.2XwXwXwXwXwXwXwXwXt.U ( x.x.",
"fXfXqX5.` Z.@ /.^ n.wXeXtXrXn.f.>.].).+.B A [ 6.C.wXtXtXtX0XrXrXtXtXtX2X,X,.j.R ~ ` H.=.n.XXXXXXU A 2.z.wX7XwXN.g.-X:X8 o.s.i.x.",
"aXdXyX4.n G.w ; & } 9XtXdXpX2X>.T./.2 s o.E >.:.2X9XwXwXrX.X0XtXtXtXtXrXwXeX3X,.t ] k.wX9XN.9Xz.~ t w 9.wXwX0X].^ P.+Xe { .Xu.u.",
"aXiX%Xb l K o k t @.{.qXdXpX9X4.x @ n * Z o t #.j.8X9XwX9XXXn.k.3XtXeXrXtXk.*.T } 2XtX0Xt.$.[ %.w S.^ b.rXeX7Xj.T.t I.c 3 4.p.u.",
"qXqXf.3 = 7 h j O p 4 R 0XwX6Xj.{ / K.9 o.- q y f.2X9XXXk.#.t 6 ;.2XtXpX3X;.X k 7.2XtX1X[ B P.+Xp = %.2XrXeXeXwXn.2.s 3 ^ a.r.u.",
"-X,XQ.f t t F.3 , .   2 X.k.N.t.4 E.K.H - V , K t.n.q.#.@.S.( a.N.tXtXdX3X0 @ 4 ,.0XrXN.8.I.n +.C 2 | 3XwXrXwXeXrX2Xb.=.4.v.w.y.",
"+.+.A % B h d , X 6 5 P 6.j.(.% $ ^ } :.7. .=.:.K i y ; z I s.N.M.6X6X6X7XV.K J < 8.6X6Xj.2.5.k.@.T s.N.6X6X6X6X7X7X6X6XN.M.e.r.",
"T.+.t r i +.g < I i ( b.M.k.X.t 3 >.N.6XN.v.z.S n +.2 7 g ' i.m.m.m.6X6XM.v.o.} 1 R N.6X6Xn.m.m.6X8X9X8X6X6X6X6XwX9X6X6XN.M.e.y.",
"3.< ~ F < Y ' T =.5.6.s.m.M.m.v.XX9XN.c.:.=.2.,.;.i.a.! :.j.v.c.c.m.m.m.m.j.( { W x.6X6X6X6X6Xm.6X6X8XwX7X6X6X6X6X7X6X6XN.M.w.y.",
"w.w.w.e.r.w.w.w.w.r.e.e.r.r.r.r.p.y.y.y.r.r.e.e.e.e.e.r.e.e.w.W W w.w.w.w.w.w.w.w.w.w.r.r.w.r.r.r.r.y.u.u.e.y.y.e.r.r.e.e.W w.y.",
"r.y.r.y.y.y.u.y.u.p.i.u.u.u.u.c.c.c.x.u.x.x.x.i.i.c.i.u.u.u.y.e.e.e.y.u.u.u.y.y.6XW w.6Xw.6Xu.u.u.x.x.x.x.u.x.u.x.u.u.u.y.w.y.y.",
"pXtXaXaXdXaXdXpXaXfXfXfXdXaXdXdXb.=.7.#.o.p L W.&.U 7.&.3.} >.r.u.pXdXaXdXaXpXpXpXpX6XaX6XW +.*X4.;XyXfXdXdXaXfXfXaXaXaXaXpXpXaX",
"pXpXdXfXdXaXdXpXaXdXrXqXaXdXaXyX:XR.G ;.;.o.7.&.%.].U } $.X.Z y.u.aXaXdXdXaXaXaXaXaXaXpX6X}.[.@.p ,XrXaXaXdXdXfXfXfXaXaXpXpXpXpX",
"tXpXaXdXdXfXdXpXdXtX<X0XdXpXpXyXtXN.z.n.0X`.].&.!.&.[.#.;.7 s y.x.pXfXdXfXaXfXdXaXfXaXfX8XpX.X X4XC.aXdXpXaXaXfXfXfXdXaXpXpXpXpX",
"wXwX9XwXtXtXtXwX2X,.&Xk.0XN.9.f.n.wX7X9X9Xa.t 7 $.8 2.i.j.,.Y u.u.2XdXdXwXwXeXtX8XeX8X6XwX6XwX6XwXtXeXeXwXeXeXpXpXtXeXeXeX8XwXwX",
"rXwXeXeXtXtXtX9X|.o.b x 9.,.- = ! C.wXwX9Xj.6 q & i |.2X9.u + u.i.=.2XtXtXeXtXwXpX8X8XpX8XwXeXwXpXpXpXrXwX9XeXtXtXtXeXeXeXeXwXwX",
"wXeXtXpXtXtX0X<X&XL.l &.f.z.l 9 K :.v.9XwXN.E p M [ f.=.= i i y.x.&.#.|.eXtXwXtX8XeX8X6XeXeXeXpXpXpXpX9X9.{..XtXtXpXpXeXpXeXtXeX",
"tXpXpXtXwX2X2Xf.$X@XL.0.wXN.%.M P.5 M l.b.3.S.X.- Z S.~ y t 7.y.i.1.;.XXeXwXeX8XpX8XpXeXeXeXpXeXeXtXeXN.2.s l.rXtXtXwXeXpXpXpXeX",
"pXtXeX6X.Xb.d.' ^ I 1XtXrX7Xf.E.P.< @..X6.c k t S.Z * ^ +.b =.y.c.%Xn.pXwX9XwXwXwXwXwXwXwXeXeXeXwXwXeXwXN.N.m.7XeXtXpXpXpXaXpXpX",
"qXwXXX.Xk.k.g.) _ d.tXtXwX9Xr.p $ S ).3.k u G.V G.F } S H.w m u.c.qXdXdXwX9XN.v.rXwXwX8X7X7X8X6X6X6XwXwXwX7XwXeXeXpXpXaXaXpXpXpX",
"n.b.|.}.d.}.( ` M a.wX9X7XN.( u e r +.5 & 5 @ < : [ ,.S p X #.y.x.pXdXdXn.>.~ [ a.wX8XwX7X7X7X7X7XwX6XwX6X8X7XeXwXtXtXtXpXpXpXeX",
"2.&.U.X.U.` a U._ -.6X9X9Xa.d ; + 5 $ % p @ L.P   m U y P R j.r.u.pXdXqX| M f J.{.9XwX8XwXwXwX7X6XwXwXwXwXwXwXwX6X7XwXeXeXpXl.p.",
"-.R.9 B B Z.I.F.y -.N.XX X) A.M ^ D ( g.3.,.d.Q ~ = 4 8 R m.n.r.r.tXdX1XU.B +..X.Xb.2XwXb.z.n.9XwXwXwXwXwXwXwX7X6X6X7XwXwXC.#.2 ",
"e b G m ^ _ t H.- J.-._ F 7 3 d O.@.n.8X6XwX.X>.r 3 Z S 7.i.>.r.y.n.dXiXl.f.n.1X| { 0.4.A 7 C q.wXwXwXwXwXeXwX7X7X7XwXwXwXC.#.2 ",
"; V q.9.w ~ 7 t A.X.J.X.o.H z F.D.5.8XwXwXwXXX>.6 p E.|.v.T f y.y.'.dXdXtXtXqX-X*XU.>.q.8 Z 4 >.8XeXtXwXeXtXeXeXeXeXwXeXwXwX2.g ",
"#XoXG.S o.Z F # n Z g.C.,.N * E.H.S 9.wXtXwXrXwXC.n.9X9Xf.P % y.y.k.aXdXtXtXrXl.G.).k.n.k.&.@.a.8XeXwXeXtXpXpXtXeXeXrXtXrX9X8.w ",
"<X7 %...d 3 A t l..X<X4.>.F.A.u V /.8.rXwXtXeXeXeXeXtXrXp.^ ~ r.y.<Xh.2XeXtXqX'.[ #..X{. .T.K.t.eXwX6XeXpXeXpXpX6XeXeXeXtXeX|.M ",
"wXf./ H.h 6 = | b.N.;.4 ^ Y.6 S } 0.;XwXwXeXpXtXeXtXtXpXB.p.,.r.y.*X&Xg.9XpXyX.X%Xn.z.B * B H.`.b.wX8XwX7XeXeX6XeX6Xk.B.9XqXrXXX",
"tX0Xj.+.C j 2 D [.0.| < O 3 3.3XqXrXtXrXwXtXpXeXeXrXpXpX6X6X6Xy.u.%.!.n.wXeXpXpXtXwXs.2 M J.F.C t.6XwXwX8XeXwXwX8X.Xi 5 #..XtXtX",
"eXwXwXk.* z D D s 2 n / J.#..XtXpXpXtXrXeXeXeXwX8XeXtXpX6X6X6Xy.x.9.|.pXeXpXpXpXeXwXeX,X( ^ 6.4.6XwX8XwXeX6XwXwX6X%XK.D.J.' tXrX",
"wX9XwX2X0./ a e 2 a s 6.|.3XeXpXtXrX9XrXwXwXeXtXtXeXeXeX6X6X6XW u.pXaXdXpXwX2XrX7XwXwXrXrXN.j.N.9XwXwXwX8XeXwXeX9Xs.%.< 7 (.9XrX",
"z.} j.9XwXXX' 2 # ; K.s.wXrXeXeX3X{.2.6.4..XtXpXpXtXpX8X6X6X6Xw.u.dXdXhXf.7 n U k.7X7XN.n.n.O.-.(.j.XXwX8XeXeXtXwX9X,.) h @.9X9X",
"0.% t a.N.XX .; k ; p f.wXwXeX0X].F z D.Z =.rXpXtXtXwX8X6X6X6Xw.u.fXgXdX7.@.x k ^ n.-.+./ U 4 3 U.P.}.8XeXtXwXtXeXwX9Xj.g.t.9XrX",
";.d G.n #.XX4.Z.v c b *.XXeXeXrX:X@.2 M T.%X9XeXeX8X8XeXu.6X6Xw.c.fXfXdXn.%.d +.s.>.~ x t i 5 l I.I.6.N.8X8X8X8XwXwXwX9X9X6X9X8X",
"b.I w 2 Y m.j.H./ B 6 } 2XeXeXwX0Xt.7 F @.k.eXeXwXwXwXwX6X6X9Xx.v.gXgXfXn.6 ` F.Y.o.I.X.A Q.2.= 7 M &.N.wXwXwX9Xk.N.0XeXwXwX7X9X",
"wXN.&X).s.6XN.5.7 [ R.f.wXtXtXtXrXwXXXn.0XtXeXwXwXwX8XwX6X6X9Xx.m.gXdXdXn.6 o q E.4 %.( ( &.).H.H.} j.wXwXpXtXt.U T.:XN.C.N.N.wX",
"wX6XN.8X9X6XXX( 5 A.G 9.wXrXeXtXtXwX9XwXeXtXpXeXeXwX7X9X6X6X9Xx.c.fXfXsX2X:.< A t J.*XJ.t y y / W.J.0.b.eXtXwX%X- w C } 0.%X>.l.",
"b.;.k.v.m.v.x.>.> + > I b.6X8X8XN..Xg.V.6X7X9X9X6X6XM.6X6X6X7Xu.x.0XsXb.&.F 5 m t x %.8.I $.H.% u # Z ) s.v.l.~.V E.E.Z = 2 $ ;.",
"l.M 9 ! m.m.m.s.=.2 B $.p.M.N.N.f. .K.D t.8X9X9XwX7X6X6X6X6Xb.e.y.-XN.j.6 M 7 i u = [ ( [ R.E.F.u @ +.D _.+.6 3 # E.@ + w ; q m ",
"M.9.b I a.v.x.x.V.t.E t.m.N.N.M.:.e OXoXN 9.N.9X6X7X6Xm.M.N.v.E E v.M.N.V.* * 5 s X.p = 9 r # i g s u 2 & # @ r r @ & 2 X.M s 9.",
"e.e.r.r.r.w.e.w.e.r.w.r.r.u.r.r.r.r.y.y.y.u.u.u.u.y.r.w.e.e.w.w.e.e.w.w.e.r.r.y.y.i.u.y.p.y.r.r.y.r.y.r.e.e.r.e.] w.w.w.r.e.r.u.",
"u.c.u.u.i.u.y.y.y.u.u.u.x.c.x.x.x.u.x.v.x.x.c.x.x.u.u.u.r.y.y.y.y.y.y.y.y.u.i.i.c.c.x.c.c.x.x.x.x.c.x.x.u.u.u.y.y.u.u.x.u.u.x.u."
};
