/* XPM */
static char *result[] = {
/* columns rows colors chars-per-pixel */
"64 64 104 2 ",
"   c #B64D01",
".  c #B34E01",
"X  c #B54C01",
"o  c #AF4901",
"O  c #B04B01",
"+  c #BC5201",
"@  c #B74D01",
"#  c #BB4F01",
"$  c #B14C01",
"%  c #B34C01",
"&  c #BD4F01",
"*  c #B64F02",
"=  c #B34A01",
"-  c #B84F01",
";  c #AE4B01",
":  c #BA4D01",
">  c #B44C01",
",  c #AA4701",
"<  c #BF5101",
"1  c #B14901",
"2  c #B44F01",
"3  c #A74701",
"4  c #AC4A01",
"5  c #C4581F",
"6  c #A44501",
"7  c #AD4801",
"8  c #C7591E",
"9  c #C35403",
"0  c #BE4F01",
"q  c #BEAF9E",
"w  c #B9540B",
"e  c #BCAC9B",
"r  c #B95104",
"t  c #C25100",
"y  c #B64A01",
"u  c #BF5402",
"i  c #CC5C1F",
"p  c #C0561E",
"a  c #B45109",
"s  c #D35E21",
"d  c #C1B4A5",
"f  c #9F4301",
"g  c #C95A20",
"h  c #DE823E",
"j  c #BAAA98",
"k  c #296A72",
"l  c #EE6100",
"z  c #DB7326",
"x  c #D66F24",
"c  c #DF7E37",
"v  c #DE5A00",
"b  c #DE7A30",
"n  c #D35600",
"m  c #DE8646",
"M  c #DC9560",
"N  c #298999",
"B  c #B7A795",
"V  c #DA6122",
"C  c #BE560A",
"Z  c #4F99A5",
"A  c #C5581F",
"S  c #DC8E56",
"D  c #CB5200",
"F  c #E45D00",
"G  c #E07628",
"H  c #DC8A4E",
"J  c #2C7A84",
"K  c #DD6222",
"L  c #D85800",
"P  c #539FAB",
"I  c #D65700",
"U  c #AA4C08",
"Y  c #C5590C",
"T  c #B6A493",
"R  c #B5A390",
"E  c #DE682A",
"W  c #984002",
"Q  c #C5B9AB",
"!  c #2B5354",
"~  c #DE9B6A",
"^  c #3F8A96",
"/  c #DDA175",
"(  c #294442",
")  c #46909C",
"_  c #31808C",
"`  c #E65E00",
"'  c #2894A8",
"]  c #BA531D",
"[  c #D97C38",
"{  c #2F6265",
"}  c #E06E33",
"|  c #A34B0A",
" . c #903D02",
".. c #AF4E10",
"X. c #DE6425",
"o. c #3D8793",
"O. c #265A5E",
"+. c #125D6A",
"@. c #D56618",
"#. c #5DA7B3",
"$. c #FF700D",
"%. c #36919E",
"&. c #40848F",
"*. c #438993",
/* pixels */
"e R j q d d e B B q Q Q Q d d d d d Q d d e B B j B B T T B j j q q e e e q q q q q e e e e j j e q e e j j B R R R T T B j e e ",
"e a ; &.*.o.+ + + m x - * M h M S H M h M 4 $ 2 * * r * 9 9 9 9 u + & # * f ; r r $ 8 V s s V s V s V 5 5 . 2 2 . . n I t ; a R ",
"j O ^ ^ ^ &.6 > < G @.< t <   o > @   $ 2   % 2     2 >   - < t 0 # # @ % * i A 5 ] o 7 X - - @ O ; $ s g 2 2 . % . v ` F v ; j ",
"B _ ) # < > W $ t m z t t m z [ H $ ; o . z M H M   > X > > X @   : # : p p p X.s V 7 o X     - O , , p ] 2 2 2 *   2 ; 3 I n q ",
"T ^ ) + 9 Y 8 x z & < @.@.b x x b z ; ; % @ @ > * * % . ; 7 , , =   - @ s p s   $ 1 1 $ %   . % % O 4 i 5 4 ; O $ $ ; 7 , L L d ",
"T o.) < 9 G H h [ : # / h h b m h c   % . *   * r $ H ; 4 , 6 , O % % A 8 O %   > X % $ $ $ $ .   X . } } s s , 6 3 4 4 3 n I d ",
"R * & t 9 z G G z = # @ X c x z z G # -   * * * a | x o o 7 3 3 4 o ; 8 i   @ @ @ @     * - 2 . % > X -   8 i 4 3 , 4 ; , ; $ e ",
"R - & t 9 c m m c : y X = M b h b c # : * * a a a U m o = 1 , 3 3 4 , A i : 0 # # # - - @ - *   % X @ - # A i ; ; ; ; ; 4 $ X B ",
"R z b @.h 9 9 < : : = 1 1 o % - # ^ P r * r w a a ; [ o > = , 6 3 3 o 5 g : # # & + # # @ _ o.X = X : - - A i . . ; ; ; $   * B ",
"B G h z m < t 0 # : X o 7 7 X # @ _ Z r r C C w 2 o [ O , , 6 6 6 3 = 8 i : @ - - # -   > Z P X > >   X   5 5 5 p p E % % 2 * q ",
"j : @ y : z h : : #   o 7 1 - # $ $ r + w w w * = ; [ , W f f f 6 , > 5 g X = X       % $ = > X X % $ } c V s K s V K $ % ' J Q ",
"j X o 1 y x b O $ > $ O o = - # , 6 . w a a 2 = $ 7 z , 6 3 6 6 3 7 = g i = o 1 o > X $ 1 1 = % % $ O A ] o X & - $ K ] ] p g Q ",
"e $ / o H b [ [ [ ; 4 , , , z ~ S S U a ..; = >   y m y y 7 6 6 , O X 5 8 > = 1 O $ O 7 7 1 o 1 $ E E X.E , 4 $ O ; X.K V } A Q ",
"e * m 1 z x x x x . ; , 7 = @ X 4 | ..w a X   X : 0 : : y X o 6 3 4   g i X X X = o 7 4 7 1 1 $ 2 V ..- 2 o 3 6 3 ; . 2 @   8 d ",
"q - / $ h b h c h - - X @ / : $ U U / S / b ~ S ~ : : @ @   = , 3 ,   - X s i i = 1 $ ; $ $ g i i V . - - 4 6 6 4 . * - + # 5 d ",
"e * H o h z G z z r & < 0 H # % ....a r - : @ X = X   = = @ = 7 4 4 .   % 8 5 p > % % % $ $ p 8 5 } 2 .   ; 4 $ 2 + + r # : 8 d ",
"j * M = @ b c b c r < < < ~ r w w r - - + & > % % $ 1 = = > > = $ $ $ .   % $ = A 8 p i 8 5   - p E 2 $ $ $ 2 - r + + + - * 5 d ",
"j * S @ # + + + o.P < < # * w m w -   X & # % 2 * $ $ > X % >       @ - - - % $ 5 8 p i g 5 - r g E - 2 % $ _ ^ + + + + -   A d ",
"e @ S : - r + r _ Z < + r w w S < & * % - * % 2 . ; O = % > @ # # : - # # -   @ -     @ + & 8 K + # # @ >   Z P u + r r   = 8 Q ",
"e X M :   - + r r + + r w w w S # # X X 2   2 > $ O 1 = % > n l L D - - $ $ - < < # - # # < 5 s + + + - @ # + u u u 2 - - = 5 d ",
"e   c : X   - - - + + w w w r c @ @   > P #.    > = > @ $.%.N l ` J ' > O O - < t 0 P P # & 8 K # < u < + + u u u 9 * . # > g d ",
"e # : : M   : @ * r C w w w * M * > . $ P D -   > X X - D J O.> > O.J   > > - < t t D #.+ 0 ] i < < u u 9 u < u 9 9 9 $ i s p e ",
"q u # # m   : @ 2 a w a a * * x 2 * 2 . * r ) P $ > @ # D N { l F ! J @ - - - + ) ) < # # # g K < < + u 9 t 9 9 C 9 9 u 8 8 - B ",
"q u # @ / @ - r a a ..a ; 4 o % $   - * r + ) t 2   # 0 ' k { l v ! k N - + - - t P 9 < # - 5 s # + u u 9 9 9 9 C u 9 t 5 8 $ B ",
"q r - @ $ * r r a a a $ 4 4 4 7 o   - + + u u + Z Z # < N N k l v k ! _ - + ^ Z 0 9 D 9 & + A K # & u < 9 9 Y Y C < < & 8 8 ; j ",
"q $     * c ~ S S M H ~ m ~ 4 6 , > @ < t < # + ^ t + t < ' k l F { k * 2 r t Z + < t t # - # i 5 E # & t 9 Y Y r # K p 5 < 2 B ",
"q O $   - r w w . 4 ; O $ 4 3 3 3 $ * & t t # - + + ` F ` F n l v I L L n ` - # & # & # y @ # 8 p X.# # < 9 Y Y + # V p p + r B ",
"e 3 6 2 * w w a ; , 4 $   $ 3 6 , $ * # -     : < 9 n I n n D l v v L v I F - - # # @ y > @ # 0 : 8 8 p 5 5 5 8 p 5 g # # & + T ",
"e ; f ; 2 a r . ; ; %   @ #   3 7 > # < @ 6 , N _ 9 L v I J k ( ( k N I n ` X N ' D D $.1 > & & : 5 8 5 g 8 8 g 5 g 5 0 # 0 + T ",
"e u $ ; * r # > $ % > X X @ - $ ; @ # < ' J J k ! k L L N F # ! ( : F J n F ' N k N J %.$ % # & : : r w C C u < < t t t 0 # < B ",
"q u * O $ 2 r > $ $ > X % X - * $   : D J O.! ! k { I v k % t +.( t - k D n k k { { O.N n - : X , o a w C w r # < 9 9 9 0 # + j ",
"q + 4 4 O 4 % = o o X X >   - *   - # L ` # F v v F v v ( ( ( +.+.+.! ( l l l l l l @ l l - @ = o a w w w * > X # t 9 < & # r j ",
"j + = $ O 3 , o 7 3 7   - X $ - - # # l l # l l l l l l ( ! +.+.+.( ( ( v v F v v F = ` L : - - + Y C w r 2 $ o X 0 < + + + u q ",
"j + @ : @   $ = , f 6 ; $ 3 3 % + + # n N O.{ { k k n D k : t ( +.t - k v I { k ! ! O.J D : # + 9 Y Y r r - X 7 > # & < < < u q ",
"B # : # # @ - > o 4 4 4 4 f f O < < # & %.J N k N ' F n J F # ( ! * F N L L k ! k J J ' # # 0 + C Y Y < -   X 1 > : & t u u 9 e ",
"T < # # - 5 g 5 g 8 8 g 5 8 5 7 + < & : $.D D ' N t ` n I N k ( ( k J I v L % _ N - # & 0 0 t 9 C 9 9 < :   $ $   : & t 9 9 9 e ",
"T 9 < < # g 5 p 8 5 5 5 p 8 8 , @ & @ = o % @ # 0 t F I v L v v l D n n I n $ 2 + < + + + < 9 Y C u t < + @ ; O   # < < 9 t u e ",
"B u + p p V   # 2 ; 4 $ $ o X.p 8 = = = > X X @ @ : ` n L L I v l n F ` F ` 3 $ + u + r + u C 9 u + < t + - O O   # + + 9 < + q ",
"B + # 5 p K @ - % 4 ; $ > % E 5 i 7 y   @   = > Z t > r C k { F l k ' O 4 , t *.2 2 * r u C w + u + ~ m ~ S M S S ~ b + 9 t + q ",
"j u 8 8 # - -   $ 4 O   % $     K A X     = 1 = Z ^ $ a N ! k v l k N N ; ; Z Z 4 , ; * C C u + < + # < < - % $ = @ # - < 9 u q ",
"B + 8 5 @ @ > ; 4 ; ; $ $ $     s 5     % o Z t @ r a w N k ! v l { k ' ; O $ . t ) ; . w C u + 0 + # 0 + - $ o 7 O % / - < u q ",
"B * 8 8 @   $ 4 4 4 ; O O . 2   K g X > 1 7 ) ) * w w w * J ! F l { N D o $ $ $ Z ) $ U $ r # # z + + # - % ; 7 3 3 , m 2 r r q ",
"e p s i X $ $ 4 3 4 2 % $ 2 * 2 i ] $ O #.D 3 4 a w w r @ J O.o 4 O.J D = = $ O O $ D Z ; %   @ M #   $ $ O o o 3 f f M % - r e ",
"d g X = = $ 7 7 4   - % $ - * . K 8 $ O P Z 3 U a w a   > ' J ` l N %.$.o 1 o ; ; $ #.P $ ; O O b   % $ = X   = , 6 f 6 $ c r e ",
"d 5 > 1 = $ 7 ; $ @ X $ 2 * > O s 5 ; O o 4 3 U a w r   1 1 D L l n = o 7 7 7 , 4 a a a $ 4 o O H $ > % % >     O , f 6 7 M * e ",
"Q 8 = = $ O 7 O P Z $ ; % 2 $ $ K 8 . $ 4 4 U ..w w r @ = 1 7 , 7 = = o 7 7 4 3 | U ; $ $ ; ; $ H   - -   % Z _ = 4 6 6 , S $ e ",
"d A = % $ ; 7 $ ^ _ O ; >   E g . * 5 g i p 8 5 w r r @ = o O , 7 = > $ o ; $ 3 W W 6 3 ; $ O $ h   r # -   P o.% ; 3 6 3 S $ j ",
"d 5 1 ; 4 3 7 =   = ; o = > E p > * 5 8 i p 8 A a * @ y o 7 $ 4 7 > X X = % . U  . .6 , 4 $ . $ 2 > M # @   - c b [ z 6 6 M 3 j ",
"d 8 f 3 f W f , = O o = > @ } 5 8 p 4 U U | U ; p 5 8 y o 3 6 , 7 X @ X = = $ U f 6 O . ; $ . 2 > > H # - 2 - G z z x [ 3 H  .e ",
"d 5 W 6 f  . .W 6 7 > @ : : V i i g U U | | | , i i s y o f  .6 o O O 1 1 = O ~ S ~ b / H / $ % $ $ / # + @ X h c h [ h 3 / f q ",
"d 8 , 4 6 f f W f f 6 O 1 ..V   * 2 a a | W f 6 , ; X i g f  .W , 3 , o o = o 4 4 $ $ $ ; 4 O $ $ $ 2 r + r   x x x x x 4 m $ e ",
"Q A } V K X., 3 6 W W E X.E E * * a w a U f f 6 3 ; ; 8 5 6  . .f f 6 7 1 m 1 1 $ O ; $ O ; S S ~ G 2 r + + * b [ h [ H = / > e ",
"Q g p ] ] K ; o , 6 , ] A , , . r w w a 4 3 3 6 6 4 4 i g 3 W W 6 3 6 7 X b > > $ O $ $ $ o $ $ $ 2 2 * r u # % X b x = = 1 $ j ",
"Q $ o ; O K V s K s V c } , 6 ; a w a ; 3 6 3 3 6 3 ; g 5 1 3 3 o > 7 7 y h X = o o $ $ $ O . % $ $ 2 - r + # > > h z @ = o $ j ",
"q 2 ; ; ; E p p 5 5 5 4 , ; 4 | | P Z 3 3 6 , , 3 6 o i 8 : o , O X 1 1   c > $ = o O $ 2 Z _ . $ 2 r r r - X > $   # m x h z B ",
"B * 2 ; 4 4 ; 4 4 i A ; , ; . U f &._ , , 7 ; 7 , 3 7 g 5 0 o , o = > = > c .   > $ $ 2 2 P ^ 2 . * + + - . O = O X - h @.b x R ",
"B * - $ 4 ; O 4 4 i A 4 , 3 4 $ 6 f , $ $ $ $ o 3 4 % i A @ $ O O   X > $ m * - > O . 2 * r c b h b M # - O ; [ h m c >   - * R ",
"e *   $ 4 O > $ > i 8 o 3 4 4 O , 6 3 $   @ 2 ; ; . - i 8 $ * - X @   % O z   @ $ O . 2 2 r z z G x c - - O o x x z x     @ 2 R ",
"d I n 2 ; %   X - s s } } $ $ $ o , , O 2 - X $ $ * + 8 A . - # : : @ > $ H = > $ % . 2 2 * c h m b h h / $ $ [ h H G @ @ ) o.T ",
"d L L > $   - @ @ X = 5 i O O $ O o o $ . . $ 4 4 s p s # - - - @ @ y @ % $ O O $ % % 2 * * G b G x b i i % % x z Y Y > > ) o.T ",
"q n I X % % - @ > ; , ] p 4 ; O o ; o ; ; 4 V s X.p p p # - @     y @ - - * $ M H M z 2 2 * X H c z m O % x m >   * %   % ) _ B ",
"j r v F ` v >   % 7 3 g s ; ; O ; o ; , 3 3 ] 5 A i O 2 # @   > @ : > > # r r . ; 4 7 =     X X . ; $   @ i z - # # o.*.o.^ . j ",
"R r * t I n . 2 . ; , 5 5 V s V s V s s V 8 4 ; . $ ; $ r r 2 2 * # r * * ; $ * 2 ; , M h M H S M h M * * x m * r r ^ ^ &.; a e ",
"R e j B T T R R R B j j e e q e j j e e e e q q q q q e e e q q j j B T T B B j B B e d d Q d d d d d Q Q Q q B B e d d q j R e "
};
