/* XPM */
static char *result[] = {
/* columns rows colors chars-per-pixel */
"64 64 27 1 ",
"  c #D55C86",
". c #D95882",
"X c #D55F89",
"o c #D1658E",
"O c #DB648C",
"+ c #D1688F",
"@ c #D26790",
"# c #D26991",
"$ c #DA6E94",
"% c #DC7196",
"& c #DD7599",
"* c #E26F94",
"= c #E47296",
"- c #EA7497",
"; c #E57498",
": c #EB769A",
"> c #EE7C9E",
", c #EF7FA0",
"< c #F07FA1",
"1 c #EF81A2",
"2 c #F184A4",
"3 c #F188A7",
"4 c #F18BA9",
"5 c #F291AE",
"6 c #F395B1",
"7 c #F399B4",
"8 c #F49FB9",
/* pixels */
"5746468666556776476667676566677$6566776665555555446665567577445<",
"6556687754556676677667776556665=866656765455555665565656755654<2",
"6556777753544566676546876666765=77545676655665665545655655554,<<",
"546455552,222456664324433464421o63,144443434423442<<<2<<32<<<,,1",
"55644545332325544333333234443>1%4344645445444<4544,,,<323<:,3,::",
"65744O====*=*==;;;===*=*======%>44===;;;;;;;;=%*;=;=******3,3,::",
"65544@5546545556444446464544564366656676675556555555665533623,,:",
"45424@61,,344441322<<2323<,<>41>63223<32<<<<4244<2223<,:,<643::,",
"454,2@6,,3246643<<<<<<3<>>-,234o453<,,2,1,,33142,333322<<@733,;,",
"66444@5,,X=;:;;====**-=*=****33o43.**=;=====**==**=;=*33<o633::<",
"64334+6><o666766555544644643<4<o64@466645553444444443<743o4<<,,,",
"6763,o6>,o6<,354424564333<<,:63o66@6444455553423233><>443@6><:;,",
"7674>@7:>o7<<,4443<<34333233o6<o74@63346766533<2<44>-o4>,@6,<::<",
"665<,@72>@7>32444<<<23333233+6>#72@63446554441<<<<<>:X5>,@6<2:,,",
"64533o62<o6,44222<<<<36432<:o6<o7,@43476433332,22<<<2o4,,o6,4::,",
"66632o63,o7334322223333343<<o62o61o645333331333222344@4>,@634:::",
"6563<@72>o74333333444443<2<<o7,o62@765433332322>23333o4,>o633:::",
"64434@631o63323333334443<2><+5,o63@635632323532,2333<o5>>o6<2>>>",
"64436#744@52><4334334434<,,<+6>o73@746542224533443<>>o5<>o6>>=:>",
"64443#744@72><4434435434322<+6>O74@733464444534663<>:o623@6>>-:>",
"44744@765@7>3113333343442,<2o74#74@7323444633441<2<><@643@6<>*=>",
"43534@644@722444332363>2<>,,@74#73@7333344344544233:<o633@643*$:",
"44334@633o63544423<,332<,31>@74#66#7344343323444443<<o6<2@7<<*=-",
"63324#733o6343342>>>23432,>1@74@74@734333332444443343o6><@5<<=::",
"442<2@6><o643444<>>><22,2>:<@54$6,$622332222333244413@6,<o62<>::",
"654<<o6><o7455412<<<<<,323:<@43:43>7>22<,,<22222,3443@6,<@722:>>",
"65423@622@74443132,23,,2242<,5445667<>>23<<>><3313433@72>@6<3:>,",
"755<,@643o63345333334,,4433<>2<,61,><>>322,,:<<2341,,$73<@6>,:>,",
"655<,@633o53===;-;===-*=;=333<>o63<<<o-=;;=*;*==;;;=%>634#71,:11",
"76523@6453656556666665664463323@43><,o4666666565676664711@731>11",
"774<4#4643353333<22<<3<14243443@4<,:-@4<432>,12,<<<2>>,>1$633:>>",
"$<<;%:42====;&==;=*=-===&:32==$;<<==$-32;=****==*=;-=*==%>41=OO$",
"4776426455556555664466564355554,46464346544446454466455543464,><",
"74434<63<<2453<3442<<24<,<6,333,74332>433<<>><>><<<231,34,643::>",
"76423@634 *=*==;-;==;;;;$:64443@734<,@4<-*==****=*====32,@6,,:,1",
"66633o5,4@5555555555566654732,1#7442><6664454446565432622@732<,1",
"74633o62:@632<<<<42<<4444432<32$434434456432><334432>>642o633>,,",
"77632@6>,@7242<445442<<<<444X;=,44-344444332<2322444>o6,<@6<3><>",
"77633@7>,@73432444455<<<4224@64474372544323<>222><44>o5>>o7<2:>-",
"446<<@622@7433444<4552<34424@62<74262464322><<23>2333o632o733---",
"4672<o6<2@72333442254433<2>2@62@63@6<443543<3323<4343o623@743>--",
"464<<@6<3@7244334<444424<23<o74#74@62<<343<<343324442o62<o6<3:::",
"74634@743@734444445454<32<3<o63#72o63334432<323444643o644o6>>=::",
"66742@746@63332442453<,<43<2o6<@62o6246676323<2364433@745o6<>-:>",
"56534o665@6232<445542<<44333@6<@63o6<466644443,356433@744o632-:<",
"34422#645@7<<4<244522344333<#6,o61@6<444444452,233434@634@643:::",
"334<3@632@6444234524344<><,,#6,o6,@72444323342,3<3454o6<3@72,:::",
"433<4@622@6244,<444444<<>>>,#62o7,@6<3<,2<>>33<2,,332o6<2@622$=:",
"44433#7>2@7443<2444353222<<3#7>o6,@6:<,,<<:<32:,<<343@623@6<3;;-",
"64644#7<<@744334353434323<23#62o5,X6<:,<><<<3<<,<2<34@6,2@62<:;;",
"64533#73>o632434474434332<32@62o62X6:<42<<22<<,<4<<34@623@6<<::-",
"66423#743@633343464<<2255432o63@73@5<<342<<<::,333322@765@7,<:;,",
"44523#746@4344433432,23243<2@64@6<X523<243<<,,4536433#644@6<<*=:",
"46734#745#44;;;;-==;=;-*;;*$:66@6<@54;;-=;===**==;;*$,62<@5<<-=:",
"55634#7342646676666656766655473#732655555555555555665472<X6<:-::",
"46633#7344432344<2<<<4332<<2333#73444<4234<<<44433443,,,<o52<-,:",
"46634#4344432244232<<34431<2432$644442,,<3<,<24<43442<,<<#742:<>",
"66634@42=-*=;;;;*;***-;:*===;-%,54;**=*==;=-===;===;-*;*$>744<><",
"76523>5556556677646466646544476357666665566655655665666566624,<<",
"6642<356443<<2564432<3343333<,3<64332<<<342<<<43433<<243322<4<<>",
"763<<244443424654443<34643333,,o764<<,2423424<<242<<3343222<<,,,",
"64>**::1,:>,<<<<<<>:-:<,:,,1,,,O21,,,,,,,,:,,<,:,;;,<:->-*:,>--,",
"4>*=;:>1,>,,,,<,:<<;>:,:2::,,,,O3,1,,1,,<,::,,:-:<,:,::::-:,,--;",
"2-=::>11,>>>,,,,:<:,,2,,<,;:,:,%3,,1,,:,:<::,,:::::,>>,,,,<<::><"
};
