/* XPM */
static char *result[] = {
/* columns rows colors chars-per-pixel */
"64 64 161 2 ",
"   c #4D2C09",
".  c #542E07",
"X  c #522E09",
"o  c #593207",
"O  c #563109",
"+  c #5C3409",
"@  c #613607",
"#  c #613709",
"$  c #65390A",
"%  c #6C3C0A",
"&  c #713F0A",
"*  c #74400A",
"=  c #79430A",
"-  c #775532",
";  c #795733",
":  c #7D5A36",
">  c #9D581E",
",  c #AC611F",
"<  c #815E37",
"1  c #866139",
"2  c #8B653C",
"3  c #8F693F",
"4  c #946B3F",
"5  c #A76127",
"6  c #AC6123",
"7  c #AB652B",
"8  c #AD692C",
"9  c #B36726",
"0  c #B76E2F",
"q  c #BC6F2A",
"w  c #BF712E",
"e  c #B36D34",
"r  c #B96F36",
"t  c #B46F39",
"y  c #B47035",
"u  c #BE7336",
"i  c #B7743D",
"p  c #BA753B",
"a  c #BA793E",
"s  c #C27532",
"d  c #C57A3B",
"f  c #C87F3F",
"g  c #8F6A42",
"h  c #936C42",
"j  c #9A6F41",
"k  c #9C7142",
"l  c #94714D",
"z  c #9D754A",
"x  c #A27544",
"c  c #A77847",
"v  c #A97947",
"b  c #AC7D4A",
"n  c #B97641",
"m  c #BB7B43",
"M  c #B07F4A",
"N  c #BC7F4C",
"B  c #AC7F50",
"V  c #C07A42",
"C  c #C87F43",
"Z  c #AE804E",
"A  c #BE8145",
"S  c #B4824D",
"D  c #BE834B",
"F  c #BF894F",
"G  c #AE8152",
"H  c #B68653",
"J  c #B78857",
"K  c #B88955",
"L  c #B58959",
"P  c #B98B59",
"I  c #B58D61",
"U  c #BE9365",
"Y  c #BA946C",
"T  c #C18547",
"R  c #CB8345",
"E  c #CD8847",
"W  c #C2864B",
"Q  c #CD8749",
"!  c #C2894E",
"~  c #CE8B4C",
"^  c #D1854A",
"/  c #D28A4C",
"(  c #D3924E",
")  c #C18C53",
"_  c #CE8E51",
"`  c #C18F59",
"'  c #CC8D5B",
"]  c #D28D53",
"[  c #C49156",
"{  c #CC9156",
"}  c #C4945B",
"|  c #C7985E",
" . c #C9985C",
".. c #D29454",
"X. c #D89757",
"o. c #D59A56",
"O. c #D99855",
"+. c #D4955A",
"@. c #D59B5C",
"#. c #DA9C5D",
"$. c #D7A05E",
"%. c #DCA05E",
"&. c #C49561",
"*. c #CA9662",
"=. c #C59965",
"-. c #C99A64",
";. c #C09669",
":. c #C3996C",
">. c #C99B6C",
",. c #D59D63",
"<. c #D99D62",
"1. c #D19D6E",
"2. c #C49D73",
"3. c #CA9F71",
"4. c #CBA36D",
"5. c #D6A264",
"6. c #DAA465",
"7. c #DFA967",
"8. c #D6A46A",
"9. c #DBA56B",
"0. c #DDA96D",
"q. c #CCA473",
"w. c #CCAB7D",
"e. c #D1A172",
"r. c #D9A672",
"t. c #DDAB74",
"y. c #DEAD7A",
"u. c #DFB17C",
"i. c #E0AC6E",
"p. c #E1AD74",
"a. c #E1AE7B",
"s. c #E1B07D",
"d. c #E1B87B",
"f. c #CAAF83",
"g. c #CBB186",
"h. c #C9B28D",
"j. c #DFB685",
"k. c #DFB884",
"l. c #D2B88D",
"z. c #DFBF8D",
"x. c #CAB392",
"c. c #E2B483",
"v. c #E3BA87",
"b. c #E8BD85",
"n. c #E4BB8A",
"m. c #DFC08E",
"M. c #DCC49B",
"N. c #E7C18E",
"B. c #E4C593",
"V. c #E8C592",
"C. c #E8C896",
"Z. c #E6CC9F",
"A. c #E8CB9A",
"S. c #DDC6A1",
"D. c #DFC8A4",
"F. c #E6CDA2",
"G. c #E5CEAB",
"H. c #E3CEB1",
"J. c #E4D0B6",
"K. c #E3D0B8",
"L. c None",
/* pixels */
"6.V.b.F.F.t.6.t.9.' 4 x S K T 6.9.W 4 x S K ) ..f y 4 x S H -.#.$.l.4 x S K e Q $.m 4 x S K E ( 5. .4 x S H e.s.9.R 9 > ] 9.y.R ",
"*.V.b.G.F.p.i.a.r.} 4 k S S ) 0.5.W 4 k S S ! ..E V 4 x S H *.,.5.h.4 k S S e ] 5.m 4 k S S T ( 5.[ 4 k S S >.t.#.d u 6 R 9.+.+.",
"' <.b.J.F.i.<.y.r.} h x P K ! 8.,.F 4 x P P [ ..E m 4 x P K &.5.$.f.h x P K 7 +.5.t 4 x P K A ( 5.[ 4 x P K >.r.<.C C 0 C ,.] ^ ",
"<.<.<.K.F.i.i.a.r.P 4 x ;.P P 9.,.D 4 x U P D ( R p 4 x U L | o.9.f.4 x U P 7 _ 5.e 4 x U P W o.5.} 4 x ;.P >.r.^ ^ / r C C s r ",
"+.<.<.<.G.p.i.p.r.[ 4 S 2.P D 8.,.W 4 S 2.P F @.R m 4 S 2.P | ..9.f.4 S 2.P i ..,.m 4 S q.P [ o.5.} 4 S 2.K >.r.<.f ] 6.#.#.<.t.",
"<.+.X.X.^ a.p.p.0.) 4 P &.P K 9.,.P 4 P U P D ,.R a 4 P U P | o.9.f.4 P U P i ( @.i 4 J U P W ..5.| 4 K U P =.r.<.d V.N.V.c.n.C.",
"] ^ C C C d & @ + + 4 K H P + $ @ + j S H P + + X X h S S P $ $ & & 4 K H P   + + . h H H P + + $ + 4 F H P $ $ . & n.n.c.v.n.c.",
"p.9.a.p.p.a.& o O + 4 v S P o @ @ + 4 b S P + $ . X 4 b S P + $ % & h v S J O + + + 4 v S K @ $ $ + 4 Z S K $ * % % a.a.a.a.A.n.",
"v.v.v.v.y.v.* = L.L.k x S K L.L.L.L.z x S K L.L.L.L.j x S K L.L.L.L.k x S K L.L.L.L.k x S H L.L.L.L.4 x S H L.L.= = F.S.S.S.F.S.",
"3.w.>.3.>.w.% $ L.L.k v S H L.L.L.L.4 v S H L.L.L.L.j v S H L.L.L.L.j c S H L.L.L.L.j v S H L.L.L.L.4 b S H L.L.$ & 3.&.=.=.&.=.",
"P P P J K H P P G h h v P K h G H g 4 c P P h G G h j v P K h G G h j v P P h G H h 4 b P P g J ) P 4 b P P H P P P K P K S K J ",
"2.U H S S S P U Y l k v U P l I Y l j b ;.P h I Y l k v ;.P h I Y l k v Y P h I Y l 4 b Y P h L :.:.4 b ;.P H U >.;.H S S S P ;.",
"S P H v k v v v b l 4 S 2.P 2 x v h h S 2.K 3 c B l 3 S 2.P 2 x v g 4 S 2.P 2 k c 3 4 S 2.P 2 k M P 4 S 2.P c v b H P b x j x c ",
"4 4 h 4 k k j j 2 ; 4 U ;.P : 4 3 ; 4 U ;.P : h 2 - 4 U U P : h h - 4 ;.;.P : 4 2 - 4 ;.;.P ; 4 4 4 4 ;.&.P 4 j 4 4 4 j 4 4 4 4 ",
"| &. .*.=.| @ + L.L.4 } H P L.L.L.L.j P H P L.L.L.L.4 P H P L.L.L.L.j P H P L.L.L.L.j P H P L.L.L.L.4 P H P L.L.o o D A W D D D ",
"@.@.5.@.@.+.@ @ L.L.4 b S P L.L.L.L.j M M K L.L.L.L.j M S P L.L.L.L.j b S K L.L.L.L.j b S K L.L.L.L.j M S P L.L.$ $ 8.9.8.5.5.8.",
"o...o.$.( ( @ + L.L.4 x b G L.L.L.L.h x Z Z L.L.L.L.j v H H L.L.L.L.4 x b b L.L.L.L.j v H K L.L.L.L.4 x b G L.L.$ $ $.o.o.@.@...",
" .[ [ [ [ ! + + L.L.k v S H L.L.L.L.: 2 3 3 L.L.L.L.z v S S L.L.L.L.: 1 g h L.L.L.L.k b S K L.L.L.L.< 2 3 g L.L.@ +  .! [ | ! [ ",
"P P P P K H K P H g j b P P h G J G z h h z G J H g j b P P h H J G z h h z b L G h j v P K h G P P P K P D H P P P P P P S K P ",
"2.U K S S S P U Y l k b ;.P h I 2.U G v b Z J U Y l k b ;.P h I Y U H b b b H U Y l k b U P h P ;.;.H S S S H I 2.U H S S S P U ",
"S P S Z x Z v Z v l h S 2.P 2 c H J J v k c v v b h h S 2.P 2 x H H Z c k x v c c g h S 2.P 2 k b P K M x x v v b K K M x k x x ",
"4 4 4 4 4 k 4 4 2 ; 4 P U P : 4 3 2 < : ; 1 4 z 2 ; h P ;.P < h h 2 1 : : 1 4 h 2 - h P U P ; 4 4 4 j 4 4 4 h k 4 4 4 j 4 4 4 4 ",
"w.g.q.4.4.4.% % L.L.j P P P L.L.L.L.; h g g L.L.L.L.4 P P P L.L.L.L.; h g h L.L.L.L.j P K P L.L.L.L.: h g h L.L.X X D S n m A n ",
"k.k.y.r.8.0.% * L.L.j M S P L.L.L.L.4 v v G L.L.L.L.k S S H L.L.L.L.4 c v G L.L.L.L.j S S P L.L.L.L.4 c b b L.L.. o .._ T { ~ E ",
"' ' *.1.1.e.$ $ L.L.3 k v B L.L.L.L.4 c S K L.L.L.L.3 k b B L.L.L.L.4 c S K L.L.L.L.3 j v G L.L.L.L.4 c H H L.L.+ $ ,.5.+.5.@.{ ",
"5 e y i N } + O L.L.: 2 g h L.L.L.L.j v H H L.L.L.L.: 2 g g L.L.L.L.k v H H L.L.L.L.: 2 h g L.L.L.L.4 v S H L.L.+ + ! ) D ) D W ",
"P P P P H H P P J G z h h z B L G h k b P P g J L B z h h z b K G h j b P J h H K B z h h z b K P P k M P P K K P P L J P S P P ",
"2.;.H S S S P ;.2.I H v b b L U Y l k b Y P h I Y U H b b G L U Y l z v ;.P g I 2.U b v b b K I >.;.k b ;.P D U :.U H S S S P U ",
"M P H b x c v b S U J c x c c v b h 4 H 2.P 3 x J J Z c j x v c b h 4 H 2.P 2 k M H v x 4 x c v b P 4 K 2.P v b b H K b x k x x ",
"4 4 h 4 x 4 h j 4 1 < : < 1 h j 2 - h P ;.P < 4 3 2 < : ; < 4 z 4 ; 4 P ;.P : h 3 2 < < : < 2 k h 4 4 P ;.P 4 4 4 4 4 z 4 4 4 4 ",
") ) ` } [ } + + L.L.; 3 g h L.L.L.L.h H P P L.L.L.L.; 3 g h L.L.L.L.4 K P P L.L.L.L.; 3 h g L.L.L.L.4 K P P L.L.+ + } } } } [ } ",
",.5.@.@.@.5.@ @ L.L.3 x v G L.L.L.L.j b S P L.L.L.L.3 x v G L.L.L.L.4 b S P L.L.L.L.3 x v G L.L.L.L.4 b S P L.L.@ $ 5.5.5.5.5.5.",
"....o.o.@.@.@ $ L.L.4 x H K L.L.L.L.h x K K L.L.L.L.4 c K K L.L.L.L.3 j Z G L.L.L.L.3 4 Z Z L.L.L.L.3 j b B L.L.$ & 8.+.+...{ o.",
"[ } } } } | @ @ L.L.4 v K H L.L.L.L.; 1 g h L.L.L.L.4 v H H L.L.L.L.; 1 g g L.L.L.L.4 c K H L.L.L.L.; 1 h h L.L.$ % >.| } K D D ",
"P P P P H H K P H g k b P H g G J G z h h z B J G h k b P K h G J B z h h z b J G h 4 b P K h G P P P P P S H H P P P P H H K P ",
"2.U H S S S P ;.Y l k b U P l L Y U H v B b J U Y l k v U K h I 2.U G v b b J U Y z x b U P h L U ;.H S S S H U 2.;.H S S S P U ",
"S J K v x c v b v l k S 2.P 2 c H L G v k c v v B g z S 2.P 2 c b K Z c j x v c v h 4 S 2.P 1 x b P K S x x v v b K K M x k x x ",
"4 4 h 4 k k h 4 2 - h J U P : h h 2 1 : : < 4 j 3 - 4 K U P < 4 j 2 1 : : 1 4 h 2 ; 4 P ;.P ; 4 4 h 4 4 4 4 h k 4 4 4 j 4 4 4 4 ",
"7 7 8 y 8 8     L.L.j H K P L.L.L.L.; h h h L.L.L.L.j H H P L.L.L.L.; 3 g h L.L.L.L.k S P P L.L.L.L.: 3 4 h L.L.+ @ } &.` &.| } ",
"E E ( ~ Q R + . L.L.4 b S P L.L.L.L.2 c v G L.L.L.L.4 b S P L.L.L.L.2 c c G L.L.L.L.4 b S K L.L.L.L.3 c v b L.L.@ $ @./ s q q , ",
"Q Q ~ ~ R Q . O L.L.4 h b b L.L.L.L.k x H K L.L.L.L.4 h b b L.L.L.L.j x H K L.L.L.L.j x H H L.L.L.L.k x H K L.L.+ $ $./ E ~ E R ",
"m m n m D m O O L.L.: 2 g g L.L.L.L.4 v D S L.L.L.L.: 2 3 g L.L.L.L.k v S H L.L.L.L.: 2 3 g L.L.L.L.4 v S S L.L.+ O m i p p a y ",
"P P P J K K K P J B z h h k G J G h z b K K h G J G z l h z v J G h k v P K g H J G z h h z b K P P k v P H K K P P J P K S P P ",
"q.I K S S S P Y 2.U H v b Z J U Y l 4 v U P l I 2.U Z b G H L U Y l j v U J h I Y U b v b v H U >.;.k v U P H U :.U K S S S P U ",
"S P H b x Z v v S I J c k c v v v h 4 S 2.P 2 c H J b x k x v v v g 4 M 2.P 2 k S H b x 4 x x c b P 4 S 2.P c v v K K Z x k x x ",
"4 4 4 4 4 4 4 4 4 2 1 : < 1 4 j 3 - 4 K U P : 4 4 2 1 ; ; < 4 k h - 4 H &.P : 4 3 1 < : : < 3 j h 4 4 H U P 4 k 4 4 4 k 4 4 4 4 ",
") ) K ) D ! @ + L.L.; 2 3 g L.L.L.L.4 S S P L.L.L.L.; 2 3 g L.L.L.L.h S S P L.L.L.L.; 2 2 h L.L.L.L.4 S S P L.L.+ + [ F } } [ ) ",
"@.@.,.5.5.$.@ $ L.L.3 x v G L.L.L.L.k v S P L.L.L.L.4 x c G L.L.L.L.4 x c G L.L.L.L.4 x v G L.L.L.L.4 x c H L.L.@ @ 5.6.9.6.5.5.",
"8.1.,.,.,.8.$ $ L.L.4 k H P L.L.L.L.3 4 Z Z L.L.L.L.h k H H L.L.L.L.2 h b b L.L.L.L.4 x H K L.L.L.L.3 4 b B L.L.$ $ 6.5.@.o.o.o.",
"&.} P } } =.@ + L.L.h c S S L.L.L.L.; 1 3 3 L.L.L.L.4 c S S L.L.L.L.; 1 g g L.L.L.L.4 c S H L.L.L.L.; 1 3 4 L.L.+ $  .| [ W A A ",
"P P P P K S P P G g h v K K h J L Z z h h z b J G h 4 v P K h G J G z h h z b J G g 4 b K H h G P P P P P S H H P P P P K S K P ",
"2.&.H H S S P U Y l k v I J l L 2.U G Z b Z J Y Y l k v P P l I Y U H v b b K U Y l 4 c U P h J ;.;.H S S S H U 2.;.S S S S P U ",
"M P H v x c v b b l 4 M :.P 2 x S L G v k c v v G g 4 S >.P 2 x H K b c j x v c v g h M :.P 2 k M P K M x x v c M H K M x k x x ",
"4 h h 4 j j h j 2 ; 4 P ;.P : 4 4 2 1 : : 1 4 k 3 - 4 P U P < 4 h 2 1 : < < 4 h 2 - 4 P ;.P ; 4 4 4 4 4 4 4 4 k 4 3 h j 4 4 4 4 ",
"h.x.h.h.h.h.% % L.L.4 K H P L.L.L.L.; g g g L.L.L.L.h H P P L.L.L.L.- g g h L.L.L.L.4 K H P L.L.L.L.; h h g L.L.# # ) F D P =.&.",
"r.y.j.j.N.z.& * L.L.4 S S P L.L.L.L.3 v v G L.L.L.L.4 S S H L.L.L.L.3 c v H L.L.L.L.4 S S P L.L.L.L.3 v v H L.L.& $ 8.,.o.o.o...",
"y.y.t.t.r.a.% % @ X 4 x S H + $ $ * 4 x S K $ . @ + 4 4 S K $ + $ @ 4 x S K @ @ + . 4 x S H + $ = % 4 x S P + + o % p.p.i.#.O.#.",
"c.s.u.a.p.a.o o + + 4 x S H $ $ @ * 4 x S S @ + + + 4 x S K + $ $ @ h x S S $ + o + h x S D + $ * % 4 c S H + $ o o i.i.i.#.%.#.",
"s.a.a.a.s.n.X.O.,.&.4 c H H -.9.k.w.4 v K H =.6.$.! 4 b K H =.8.r.&.4 v K K :.,._ S h v K H  .B.M.x.4 v H H =.6.] ^ <./ O.O.O.6.",
"p.i.i.i.9.0.i.i.8.&.j v U P  .9.b.4.4 v U K 4.6.$.[ 4 x U K =.r.r.&.j c U K :.,._ A k v I P [ z.S.x.k v P P =.8.X.] <.X.#.#.O.#.",
"t.0.9.<.j.<.6.7.o.) 4 b :.P ! $.d.>.4 b :.P | o.$.| 4 Z :.P =.r.r.) 4 b Y P =.+.~ N 4 v >.P } j.S.x.h b :.P >.8.+.<.i.+.+.p.p.a.",
"o.#.y.y.c.6.i.i.] ! 4 K U P ! R 9.g.4 K U P [ $.$.[ 4 S U P =.r.r.| 4 K ;.P :.+._ D 4 H U P ) r.S.x.4 K ;.J =.r.<.+.9.] X.<.c.V.",
"r.r.t.y.s.i.6.y.,.S 4 H H K } f { g.4 H K K } 8.6.} 4 K K K :.r.r.=.4 K S P =.+.] D 4 P K K ) r.H.H.4 K H K i.a.i.] 6.#.+.<.p.#.",
"t.y.9.t.c.p.9.p.<.` j M S P -.o.o.4.j S S J } ( ~ W 4 S S P :.y.r.U 4 S S P :. .~ ! 4 b S J } 9.G.H.j b N P p.a.9.] <.<.] 6.p.c."
};
