/* XPM */
static char *result[] = {
/* columns rows colors chars-per-pixel */
"64 64 67 1 ",
"  c #1F1009",
". c #251509",
"X c #2B1609",
"o c #2E1B0B",
"O c #331E0C",
"+ c #36200D",
"@ c #3B240E",
"# c #3F2A0F",
"$ c #41270F",
"% c #442B0F",
"& c #462C10",
"* c #482E10",
"= c #4D3415",
"- c #4C361D",
"; c #533615",
": c #573815",
"> c #533A1D",
", c #593E1C",
"< c #4E3A23",
"1 c #463529",
"2 c #4C3628",
"3 c #4C3829",
"4 c #553D22",
"5 c #583F23",
"6 c #543D2A",
"7 c #5D401E",
"8 c #65421D",
"9 c #72471B",
"0 c #764A1C",
"q c #574127",
"w c #5C4324",
"e c #56402A",
"r c #5C442B",
"t c #5F482B",
"y c #624624",
"u c #694620",
"i c #654926",
"p c #694B26",
"a c #61472C",
"s c #644A2D",
"d c #6B4E29",
"f c #724D24",
"g c #7A4F22",
"h c #714F28",
"j c #6E502B",
"k c #735027",
"l c #7D5123",
"z c #74542D",
"x c #7B562B",
"c c #7E592E",
"v c #684F30",
"b c #6D5230",
"n c #745631",
"m c #785730",
"M c #775831",
"N c #7B5A32",
"B c #7F5F38",
"V c #845625",
"C c #875827",
"Z c #885927",
"A c #805B2F",
"S c #8A5B29",
"D c #815E35",
"F c #836036",
"G c #896134",
"H c #856239",
"J c #88643A",
/* pixels */
"tbnjNMnnzzms@VkjjzzzdkMzt%VkzzDDHDHHs+SDcMczzzjjzj<oZkzzkddzzjdi",
"wdbNjcMMjjzs%Vfzzmzmzjjzt%C9kzMzNNNcs+Zxzdndzjzjjj3oZxzzzzzzjjzw",
"qbBNnnzzpdza@Vkncnznznmct%lpdzzNNNNzs+Vzzzizzzzjjpt+VzzkzjzzzNda",
"4qMMdzpdjjna#Zkznnczzzjzt%VzpznzzzzzdOSAzpdzjzpdzzs#Vkjjjpjjzzid",
"rtbBMidzdzza@lkkzjndkjzpa%VzkkMzzzzzsoVxzjjznkjzzjs%SNBncNnnkjzd",
"wanBBinzzNzr%lckjpnkdpdpt%VxzjNzcNNNvoVzjzkzzmznjia#SAzzzzzNjNMj",
"wsnMnnNnNFNr%Zczzjjzdp,#6%ZkzjzzNNNNsoZczppjzjznzzs+ZljjjzzdjNNj",
"wbnMBiNzzznr%Z8dzjzzzyy>2%SxzzknnNNNsoVxdzpdzpnznzs@Zxjjjkjjzzzn",
"qvNBBNnnzkNq&Vpkzzzzzyzz6*ZcczNzNNNNr+Czkzdddzzczzs@Zxjjjnzzjzpj",
"wvMBNcNNBNN3&VxdMzzzkzzzr&ZcNMMcnkNNe@Sczzzzdzmccza@ZxmknMnpjnnd",
"tsjnNncnzzz1%Zcwp7jzzkjzr*CxNNnNzzzz6+ZczzzNNnjMNjs@ZxmjczjzNNzp",
"tjnNnMnnzzz1%ZczyzjjnpzMr&ZcMNFzNzzd4$VcnzNznzppnzs#Vcnnzzzzzjjj",
"sjnMnzNcNNN1%ZxzzNjdNmmmr*ZDMNHMcznze#ZAzzzzk,zzzms%ZcNzzzNnzzjs",
"tvnnMMnzzNj2$ZcxDzxzmJNmr&ZDNxDNNzzce+ZzzznkzdNNzns%Zxcncznzzzjp",
"tbnMNFNzNcN3@CcNFNNkzNmNa*SGNmNNNzMzqOZxzNzpnkNpnNj%ZxcBzcznzndi",
"vvbNNNnNNMn6+ZcNnznzzmDxa*SDdnNDNzNne.SDNNNyjzBNczv%Vxnndnzzznji",
"vvbnnBBNNNNr+SDNNzzzMNNDs%SGDxNNNNNNe.SGNNNcMccNNNs%SCNncMznmzdw",
"vvnnNNnnzzns&Vx=zdjzzzzza%SDNzxzDNzN< SGMcnnnnnzzzs%Vcjnmnzzjjdy",
"vvnNcBBNDHnr&Z:#hxNzNzcMs&ScNNNzNDNDt.SczMcjcnnNzjv%Skmnczcznjji",
"vjbnMMcmzNza%S:ydNNzzjzzs$ScNNzdzzMMaoSANBmMMNcFnja&SkNNMjBzzjji",
"vvMMMNMzzzMv&0ci7jMzjzzzv$ZAzzzzNzNNtoSccNcnnncnmzs*SxxzBNFMzjja",
"vvvMnBcNNNnd&Vli7jzzjzzzs$SDNzzkMNNNs+SxMBBNNFNNNca%ScnznNcNzNji",
"jvjnMMMNzzMs%SczkzBNNzzzs&ZcnzzzNzzza@ZcMmNFNNcBFBt%SGNFcNMnnzjs",
"vtdbzjjjzjzv@ZzkzzkzNzzzs&ZxzzMzNzzjs%Zxzzppzzzzcne%SDNFNNcNznps",
"tttjMNzjzjjs$Vkpiiijzkjzs%ZxNxMzzzczr%Cxzjppzzzjzzq&ZcBNnNcNnzpi",
"rqvbMNzNzNzv%Zczjdjpdkdzs#SzzNzNMxNza&ZczzN=jzzjznr*ZczMNczzzjpt",
"qtsjzzzzmMzv%Vxjzznjzmjza%ZczzNznzFzr%Zxzzzy*wzznmq&ScMcnMMznnsi",
"qwsjzzzmzzzv%Zkkjjkzjzzza@ZxzzzNzNHzr%ZDNzjN&izzzmq*ScNNzMzzzjii",
"<qsnNBjzNNns@Zpzjjjzzjzmt$ZczzzzzzNNr&SDNzNcjjznzct%Scczzzjzzjji",
"<qjnNBMzNMBs+ZczzzzMzzzzt%ZxzzzzzzzBs&ScNNNzjpzzczr#SxBNNNcmjjsi",
"<tsMNMMzzzzt+Vxzkzkzzznna%Zczzzzknkds%SAzNMzkzzzznr%ZczNMcmzijsp",
"<tbnNjMzzzzi@Vpdizjzncjnr%ZczzNzMjzzs%Zxzjzzzzzczz6%ZxmMzMMMnjjw",
"<tsbzjzdhhzaOZczzzzNkznxt=ZxzjkzzzMza%ZczNcBBcjzzzq*CxdzjzNkddiw",
"qbbMnBNNNNNaOZczzcNNNNNNe%SAznzzNzzzs@ZzzzzNjzipNMr&ZAxNzzdzzzds",
"<ajjzzzzMmNs+SzjzzzznzzNr%ScMNzMNzzcs+VxzzjzzNmjpzt%VcNHFJDzjdiw",
"tsnjznmNBDNv@SckzNNNNMNza*SxzNzzzznzd#VlznzcNBNc7wt%VzNMzzzzjjzi",
"qsjNnnNNDDDs@ZcNNFFNDNNna%ZczNxzzzzzs@SNmmzzzjdpkjr&VpNkNjjpdpdy",
"wsjbnddznmDa%SxcnzNzzzDDa%CczFNnzhzzs@Cczzjzjzdz77r&CpdzNNNddiiy",
"evnjhjnzNmDs%Sxzdzzjzzpds%Vczzmzjdhjs$Zcmzmzmzjn##t&ScNNNNzpiiia",
"qbnnzhznznns%Vkpi7Nzzzizs%ZcDNzzzjzda$Zhnzkjzzjp**s&SGxzzkzzjzjd",
"tbbjNNnNMnns%Zki7yiz;=Jcs#Ccnmzzzzdzs@Zxdddhjjjiw;a%Scdjnzkjdjja",
"tbjjjnzncncs%Zdpdj#ji,Bis+Smzznzzzzzs%Zczzkdzzz7y8a%VApmzjdijpji",
"qssjbcNNBNFs%Sczzy,jjjpia+Vlznkzzzzzs$CcczjNpjz7=pa%Zkknzjjdjjs7",
"evzncMnMcMzs%Zxzkjpjjkjz6oVczzdzzzdza%Cxzw;j8ynwzza%ZkjzNNzkzzjy",
"tjMNMdjjzjjs%ZknznzjzMzN6@ZczzMcNmzza%Zxdd7,j7iNids#VcNBnzjzzzjj",
"rbbbnzmBNMns%ZGMcFBNNNNNt*Zczzzzzzdjs%Vh7izwzi;7d8t%Scmjkmmznzjj",
"wvjjnMjcNNns%ZcccBcNcNNNa%ZcnzcnDNzds&Vxy,ydpzp,zkt@Zkjdzzzjzdip",
"tvjjjBNccBcs+ZxBNzzznnNna%Scznzzmmzzs*Vzpj:jk7yNzia%SxkjMzjzjzsi",
"tbnnnnmzNnks#Vkidpjzzjjji&VxzznNNcmds%Vcjjpdpzzd7za&CxhdzhjzNzzd",
"vvjbzmzcMcza@Zzzjzmmzzmjv#Zkjzzznzzds%Vczpzjzjzdzjr&Zzdzzzdzzdji",
"sivsnzzjzzze%Vfjjzzzzkjjs#ZmNNzzzzzja%Vxdpzzzjmzpit&Cxijdzjddpii",
"vsbjnnzczzz<%Zkzjppjjjmza&ScNzzzmzkja%VzjjzzzMzipdr%Zxdkdkzdjzda",
"stjbnnzzddy2%VudijzzncMca#Zxzkzjjjjdq&VkdzzzNNcjdza&Zczzdippjjji",
"wwsnnmM=dyp2@Vkjjkzmznjzs#Zhpdkzzzjjt&Vmzjjzzzdzzza&Zzydjjjdjdiy",
"qwjncznikzN6OZkddjzMzzmka@Zxdzpjzzzkt%Zcdjdzmzdkdza@Vxkmczjdjzia",
"qtjjNbzzzxd6OVfdpjpjdjdjs#Zxznpjjdzjw%ZkiNBczzmjkdsoSDNzdjjznjki",
"4tjzMMcmNDNsOSAxcNcnzzzjs%Vxjzpjd8Mjt%9;pzzzzdjjjjtoSAnzjjpzpjjs",
"qwbjnnnzzzdvXCxnnzjnnznzs*Vxzjzzjdcjt%9=jjpnnkpdjjt+Zkdjzjjpjpii",
"tsNBcndzzzzsXZxzzjijzzjzj&SxkjzzMzmzs*07zjzNzcnnzzs@Skzdjjjjjjii",
"vibnnnmnzzzsXVxzpzzzjjjks%Zzzdjzjjzzs%Vlpjjnjzzjzks%ZxnNNzzzddpw",
"jjNnnnnjzjzaXVxzzjznnzzjs&Zxnnzzddspt%Vpj7djjjzkzzs&Zxzjjpnjdzia",
"szbjjjdppdpaOVhpdjjjjjjja&Vzjjjznjzjq#lijpjjjjjppdt%lkjpdppjjpjy",
"isssitwyiairXgyywyisiiiiw#kpsjiipssj<+0iwywwwwitwwq#ljsypsydiyiw",
"->q->q7qwww@X85-<>>44<7q@o877q--q7>qo.8:>q>4>4>>>q+o9piypwwwiwq7"
};
