/* XPM */
static char *result[] = {
/* columns rows colors chars-per-pixel */
"64 64 248 2 ",
"   c #3E290F",
".  c #3F2A0F",
"X  c #412B10",
"o  c #422B10",
"O  c #442D11",
"+  c #452D11",
"@  c #462E11",
"#  c #483012",
"$  c #493012",
"%  c #4B3214",
"&  c #4C3315",
"*  c #4E3516",
"=  c #4F3616",
"-  c #45321C",
";  c #4F3619",
":  c #4B371C",
">  c #4C371D",
",  c #4C381D",
"<  c #4F391F",
"1  c #513717",
"2  c #523818",
"3  c #533919",
"4  c #563B1B",
"5  c #51391C",
"6  c #503A1F",
"7  c #573C1C",
"8  c #573C1D",
"9  c #583D1C",
"0  c #593E1D",
"q  c #583E1E",
"w  c #5B3F1E",
"e  c #4B3820",
"r  c #4E3A22",
"t  c #4F3B23",
"y  c #513B20",
"u  c #503C23",
"i  c #513C23",
"p  c #563F21",
"a  c #553E22",
"s  c #553F23",
"d  c #523D25",
"f  c #533E25",
"g  c #543F26",
"h  c #553F26",
"j  c #5A401F",
"k  c #5C401E",
"l  c #5E411F",
"z  c #574024",
"x  c #554026",
"c  c #554027",
"v  c #564127",
"b  c #574127",
"n  c #594021",
"m  c #5A4122",
"M  c #5A4223",
"N  c #5B4323",
"B  c #5D4221",
"V  c #5F4220",
"C  c #5C4223",
"Z  c #5F4322",
"A  c #5E4424",
"S  c #574128",
"D  c #574228",
"F  c #584328",
"G  c #594328",
"H  c #594329",
"J  c #59432A",
"K  c #58442A",
"L  c #5A442A",
"P  c #5B452A",
"I  c #5B452B",
"U  c #5C462A",
"Y  c #59452C",
"T  c #5A462D",
"R  c #5D462C",
"E  c #5C472C",
"W  c #5D472C",
"Q  c #5C472D",
"!  c #5D472D",
"~  c #5E472C",
"^  c #5F472C",
"/  c #5D472E",
"(  c #5F482C",
")  c #5F492C",
"_  c #5D482E",
"`  c #5F482E",
"'  c #5F492E",
"]  c #5F4930",
"[  c #604321",
"{  c #604322",
"}  c #614422",
"|  c #614523",
" . c #624522",
".. c #604524",
"X. c #604625",
"o. c #614625",
"O. c #634624",
"+. c #624725",
"@. c #634725",
"#. c #614626",
"$. c #634726",
"%. c #644724",
"&. c #634826",
"*. c #624827",
"=. c #654824",
"-. c #664925",
";. c #674925",
":. c #644826",
">. c #654926",
",. c #644927",
"<. c #674926",
"1. c #654A27",
"2. c #664A27",
"3. c #684A26",
"4. c #694B26",
"5. c #634928",
"6. c #654A29",
"7. c #674A28",
"8. c #664A29",
"9. c #674B29",
"0. c #60492D",
"q. c #684B28",
"w. c #684B29",
"e. c #684C29",
"r. c #694C29",
"t. c #6A4C28",
"y. c #6B4D28",
"u. c #6A4D29",
"i. c #6B4D29",
"p. c #6B4E29",
"a. c #694D2A",
"s. c #684C2B",
"d. c #6A4D2A",
"f. c #6A4E2A",
"g. c #6B4E2A",
"h. c #6C4E29",
"j. c #6D4F29",
"k. c #6C4E2A",
"l. c #6D4F2A",
"z. c #6C4F2B",
"x. c #6E4F2A",
"c. c #6E4F2B",
"v. c #694D2D",
"b. c #6E502A",
"n. c #6F502A",
"m. c #6E502B",
"M. c #6F502B",
"N. c #6D502C",
"B. c #6E512C",
"V. c #6F512C",
"C. c #6E512D",
"Z. c #6F522D",
"A. c #6D502E",
"S. c #6C512F",
"D. c #70502B",
"F. c #70512B",
"G. c #71512B",
"H. c #70512C",
"J. c #71512C",
"K. c #71522C",
"L. c #71522D",
"P. c #72522C",
"I. c #73532C",
"U. c #73532D",
"Y. c #70512E",
"T. c #70512F",
"R. c #71532E",
"E. c #72542E",
"W. c #74542D",
"Q. c #74542E",
"!. c #74552E",
"~. c #75552E",
"^. c #76562E",
"/. c #76562F",
"(. c #77572F",
"). c #624C32",
"_. c #6F5330",
"`. c #705430",
"'. c #735430",
"]. c #725532",
"[. c #745530",
"{. c #755630",
"}. c #775730",
"|. c #765731",
" X c #745733",
".X c #725735",
"XX c #755834",
"oX c #765834",
"OX c #775935",
"+X c #785830",
"@X c #795831",
"#X c #795931",
"$X c #7A5931",
"%X c #7B5A32",
"&X c #7C5B32",
"*X c #785A36",
"=X c #795A36",
"-X c #7B5C37",
";X c #7E5C34",
":X c #7E5D34",
">X c #7F5D34",
",X c #7F5D35",
"<X c #765A38",
"1X c #775B38",
"2X c #775B39",
"3X c #785C38",
"4X c #785C39",
"5X c #795C39",
"6X c #795C3A",
"7X c #795D3A",
"8X c #7A5D3A",
"9X c #7C5D38",
"0X c #7E5F39",
"qX c #7D5F3B",
"wX c #7C5F3C",
"eX c #7D5F3C",
"rX c #7E603A",
"tX c #7D603C",
"yX c #7D603D",
"uX c #7E613D",
"iX c #7F613D",
"pX c #7F633D",
"aX c #7E613E",
"sX c #7E613F",
"dX c #7F623E",
"fX c #805E35",
"gX c #805F36",
"hX c #815F36",
"jX c #826036",
"kX c #846137",
"lX c #80613B",
"zX c #856238",
"xX c #876339",
"cX c #81623C",
"vX c #80623D",
"bX c #82633C",
"nX c #81633E",
"mX c #81643E",
"MX c #82643F",
"NX c #84643E",
"BX c #85653E",
"VX c #86663F",
"CX c #88643A",
"ZX c #816441",
"AX c #836540",
"SX c #836642",
"DX c #846540",
"FX c #886842",
/* pixels */
"v F F f F F F F D F H F D x x x x D F D g D P D D x g d F h R ^ 0.~ ) 0.v D U P U P P F F v b x v g r x b x D D F D F F F b F E ",
"F.=XXX0XoX0X9X9XXXoX*XoX].].`.*X=X-X9X9X-X X X9X0XoX*Xv.OXc._ SXrXcXVXrXS.rX X-X-XXX9X].-X=X*X*X*XoX*X*X9X-X-X=X=X-X9X9X*X=XrX3X",
"b.$X%X+XP.~.P.W.y.y.W.W.W.j.K.~.&X(.~.~.~.(.W.$X(.P.{ 5 > 7.F MXa 9.@XW.W.P.y.P.P.P.=.P.K.W.W.n.j.y.b.j.y.P.P.P.W.j.W.~.~.$XK.K.",
"j. .+X~.3.P.4.y.b.n.~.~.n.~.y.K.~.+X(.~.W.W.K.W.n.y.O.N -.2.F dXW.U.W.W.~.%X>X;X~.y.y.~.P.P.3.y.W.P.=.K.4.b.j.n.b.y.j.K.~.+X3.~.",
"+Xj.~.+X~. .y.K.y.P.P.K.P.[ y.K.~.n.(.y.K.b.P.4.%.b.n.l.u.:.F dXD.W.~.(.(.hXj.W.P.b.n.W.~.P.b.P.~.b.n.~.%X%X&X(.(.%X(.+XP.n.(.W.",
"$Xn.~.;X;X} ~.P.~.&XW.j.~.k ~.K.b.y.~.n.y.4.j.y.b.K.b.n.W.&.W uX+X$X%X+X%X~.;.P.n.P.W.W.W.+X~.(.K.;.%X~.(.$X~.~.~.~.~.$Xb.$X;X(.",
"$X~.~.~.~.~.%X(.>XhX;X~.W.K.~.~.K.n.n.K.y.y.0 X w 4 P.j.P.1.H dX&X%X%X%X;X+X%X~.W.y.y.b.W.n.W.~.~.~.~.~.~.n.j.b.n.P.K.j.K.&X>X$X",
"~.%X~.~.$X3.$X~.~.K.(.~.y.K.l y.~.K.~.P.~. . .2  .V &XK.W.r.x dX(.%X%X&X+X~.P.K.b.K.3.y.W.4.(.W.~.W.W.n.W.K.n.K.b.K.n.K.P.~.~.&X",
"y.~.>X%XfX(.~.(.P.K.+X$X$Xj. .n.~.P.~.K.(.[ ~.~.&X%X%X~.+Xr.P dX+X(.>X+X+XK.P.P.n.W.j.b.y.~.~.+XW.P.P.y.W.W.b.n.K.~.K.W.n.~.n.(.",
"~.P.&X&X$X+X$X&X&X%X&XhXfXn.~.y.+X~.W.(.P.W.K.W.%X$X~.+X;Xz.L MX+XP.+X$X%X~.+X~.W.K.P.~.y.W.~.&X&XW.~.P.~.~.W.W.~.+X~.y.j.+X$X~.",
"(.W.K.P.W.~.(.(.~.~.W.~.~.+X~.[ 3.k n.~.~.n.n.~.$Xj.K.P.>XC.H DX~.W.~.(.(.K.W.~.W.W.(.+X$X(.n.(.&XP.b.n.P.~.W.n.(.W.P.~.$X%X(.~.",
"$X(.(.~.~.(.(.~.~.~.W.j.y.W.~.~. .W.b.n.~.4.W.(.~.+X~.W.~.C.( mX$X~.W.y.P.~.b.~.(.W.+X(.(.K.y.3.+XW.;.K.K.~.(.~.~.P.W.~.W.~.~.(.",
"&X(.(.~.~.~.$X+X$X&X$Xy.K.~.P.(.(.$Xb.b.+X+X+X+XhX$X(.%XW.Z.) mX(.U.(.W.y.$X+X+X~.~.P.W.K.9 ~.W.n.~.K.j.K.$X&XW.K.W.%X~.~.~.(.+X",
"(.(.~.~.~.~.~.~.~.$Xn.y.n.b.~.(.>X~.(.P.(.xX&X+XP.kXx.A.z d.~ AXs A U.(.~.~.(.n.K.~.~.K.W.y.%X%X~.+X;XK.P.~.$X~.+XW.(.~.W.W.W.~.",
"+X%X+X$X%X>X$X(.&X(.$X;XP.P.+X&XjX$X;XP.~.$X$X&X%XzXfXzX8.d.U FX9.W.+X~.$X(.~.~.~.$X~.3.(.P.;Xy.~.;X;X%XP.W.$XfX~.%X~.~.~.+X~.~.",
"B.k.i.V.L.L.k.L.E.V.V.r.k.k.k.E.m.i.i.e.i.V.{.V.R.E.|.L.@.a.c ,XL.k.L.m.R.R.R.E.[.L.L.j >.i.R.R.m.k.k.i.r.r.V.k.@.m.i.k.k.L.L.U.",
"b F D H F ~ R ~ P U P P P R W W P b b F L P U ~ U P ) 0.W D ' ).U U U P P F U ) W P U P H P P U R U u - H P P H P L x G H H H Y ",
"+X9X9X9XlXrX9X9X-X9X9X9X=X`.=Xp =X XoX*X-X9X9X9X*XlXbXBXlX9X0X-XNXcX9XlX9X9XNXNX0XlX9X0X-X9X9X=X=X9XM NX].-X=X-X9X9XF.Q sX-X9XqX",
"~.~.$X$X%X>XhX&XhXkX+X;X%X(.+   n.+X$X(.%X~.(.(.(.$X;X+X;X+X$X~.$XfX;X;XW.+X%X(.P.+X&Xn.$X+X(.%XW.b.9 $XW.n.~.(.@XI.Z.D dX(.}.(.",
"~.%XW.~.~.(.$X~.~.$X~.~.~.%X# [ j.%X+X(.~.n.~.~.~.~.$X(.&X+XK.n.~.~.(.+Xy.n.%X;X&XfX~.+X(.%X$XhX~.b.K.%XfX4.;X@X6.> Y.D uX< 8.Q.",
"W.~.+X$X(.%X$X~.~.~.+X~.y.0 ~.=.k K.+X~.b.K.~.~.~.+X~.$X~.~.W.W.$X~.%X%X~.$X>X~.$X;X+X~.(.(.$X~.~.W.+X~.&XK.(.~.:X8.'.L aX#.$X~.",
"~.K.W.&X~.fX$X%X%X%X(.~.n.3.P.;.k j.~.~.b.W.~.~.W.~.%X%X$XK.P.n.(.;X&X~.~.W.~.W.$X;X;X&X%XhX%X&X&X&X%X&X(.+X(.W.(.$XN.P dXgX$X(.",
"+X%X(.+X(.~.+X$X~.~.+X&X;XfX~.~.P.~.&X%X$X~.~.P.4.~.~.W.(.~.~.~.+X~.~.P.y.b.W.%X$X(.;XhX&X&X$XfXhXhX&XjXkX>X>XjX%X$Xz.H MX$X+X%X",
"~.~.(.(.~.n.K.b.P.b.K.K.P.n.b.K.W.K.n.~.+X~.W.~.~.;X$XW.~.W.~.~.;X~.~.b.P.W.W.W.~.P.3.4.~.~.W.~.$X~.+X+X(.%X;X;X%X%XN.P dX%X(.+X",
"~.K.K.~.+X&X~.b.P.b.n.K.%.y.y.3.%.4.3.b.P.P.P.K.W.$Xb.~.$X(.(.~.~.~.(.W.$Xn.+XP.~.j.4.4.W.K.K.b.W.W.(.~.~.(.>X&X(.&Xz.P mX$X~.(.",
"~.b.W.W.~.+X~.%X(.$X(.%X(.$X~.~.n.y.b.y.j.P.y.W.K.W.+XP.~.(.(.%X(.~.+X~.W.~.~.$XW.~.%X* b.~.W.K.~.(.~.$X(.(.+X(.$X$Xz.F dX~.~.W.",
"~.~.K.~.W.W.~.~.~.(.~.W.P.W.~.n.W.P.~.b.P.(.n.W.P.K.W.~.~.~.+X~.~.~.fX~.W.W.W.W.W.~.K.[ $ V W.~.+X~.W.~.~.(.+X$XW.+Xg.F mX%X(.(.",
"n.W.n.P.W.~.~.~.+X~.~.P.~.P.n.b.n.n.n.W.n.W.~.~.W.P.P.W.~.W.(.$X~.%XzX~.$X~.~.%X%X~.n.;XO %.P.~.W.(.(.(.~.%X$X+XW.$X1.D dX~.~.W.",
"n.~.W.~.%X>Xj.~.%X$X~.+Xb.~.%.P.n.K.b.W.P.b.W.~.y.K.~.~.~.~.~.~.~.W.;X&X%XW.&X%X;XP.%X(.j.y.~.(.W.%X(.$X(.+X(.~.Q.I.&.F mXW.@X~.",
"b.j.~.~.&X;X+XP.&X+X;X%X+X~.~.~.P.W.~.+X~.~.W.W.j.P.W.W.~.P.W.W.K.P.~.&X(.W.hX(.$X+X;X~.K.4.~.~.$X~.&XfXhX~.hX%Xs.s N.H uX6 *./.",
"j.P.n.~.$X~.W.~.P.n.P.n.~.y.~.W.P.W.P.W.~.~.~.~.W.n.W.~.(.W.~.P.P.~.n.y.~.(.;X$X~.&X+X~.P.W.P.~.W.(.~.+X~.$X~.%XW.6.w.D 2XA W.~.",
"+.m.i.r.R.2.m.k.m.k.i.@.@.2.B @.B i.e.e.m.V.e.k.k.e.V.k.r.k.V.m.V.e.k.e.r.2.k.e.i.>.k.i.k.r.i.L.i.k.k.r.i.r.k.V.k.m.f.D /.k.m.M.",
"d x d g v v x g x b v x v v F D D F H L v D H H F L F D b v v v h S L v L x F F L P P W ( P x v F D b x x b x b v D G J T v v K ",
"~.0X=X0X9XbXlXlXlXcXbXrXrX0XrX0X9X0XbX0XBXlX0XbXVXlXlXcX0X9X-X9X!./ ZX9X0X*X-X*X9X-X=XbX*X9X]._.bXrXNXBXcXlXrXrX0X-X X9X0X9X-XnX",
"=.y.y.y.W.K.W.~.(.+X$X~.~.(.K.n.P.P.~.~.~.W.~.$X%X&X&X~.(.%XQ.^.N.F dX^.H.~.y.P.~.P.n.~.P.%X~.b.y.K.j.y.n.+X>XkXhXxXfX~.P.b.j.b.",
"(.K.W.n.n.~.~.$X;XfX&X+X(.+X~.P.~.;X;X&X+X(.+X~.+X$X+X~.~.}.#.y 7.D pXy X.U.y.P.P.~.~.%X&X>X>X+Xl [ ~.%. .K.(.+X~.~.K.~.K.P.%XP.",
"b.n.K.~.W.~.+X;XfXhXfXfX&XW.W.$X%XjXjX&X;X%X>X(.~.~.~.~.~.&XW.A w.D yXA t.P.~.~.(.(.W.W.W.K.b.;.n.n.k ~.;.=.$XP.$Xn.n.y.j.y.~.n.",
"b.y.j.b.b.j.b.W.~.$XfX>X;X&XW.%X~.(.+X~.(.~.;XfXK.W.W.~.~.jX+X~.1.b wXW.K.n.W.W.W.~.P.W.K.K.y.~.k l  .n.b.%.y.K.$X%X&Xy.y.3.j.P.",
"y.K.b.y.b.n.~.~.$X$X>X&X;X&XP.W.j.~.P.b.K.~.;.j.K.P.n.~.~.(.(.~.2.x 8Xb.K.K.~.~.(.W.(.~.~.~.b.~.. X b.;.$X~.%X&X;X$XP.4.;.y.b.W.",
"n.(.~.P.K.n.P.~.P.~.~.(.K.y.n.y.%.k $X~.~.P.;.K.K.~.~.+X>X+X~.P.2.x eXb.W.W.P.n.~.W.P.b.~.P.K.4.+ @ 2 &X>XjX+X~.~.n.W.~.b.~.~.$X",
"$XP.b.j.~.+X~.+X+X+X~.+Xn.n.3.;.l } %.W.1 * CX+X(.(.K.~.(.+X~.~.1.b eXP.W.W.P.b.n.j.y.j.K.K.y.3. .3 3.+X~.(.y.P.~.P.K.b.y.K.~.~.",
"(.W.n.y.b.~.W.~.+X(.(.+X~.K.%.y.j.b.. n.;.0 ;X%.W.~.~.~.~.~.~.~.q.F dXW.W.~.W.(.~.W.n.b.W.~.~.9  .} W.n.3.%Xy.~.~.n.y.;.n.y.W.~.",
";.y.y.b.K.+X&X&X;X>XfXfX&X+X~.~.~.} 0 b.b.K.y.;.j.j.y.n.~.~.b.W.r.F dXP.W.~.~.+X(.W.b.;X4.y.K.w & %.(.y.~.y.K.~.W.j.j.y.P.K.K.;.",
"b.P.P.W.(.+X~.+X(.(.~.K.P.~.W.P.P.n.y.j.b.P.n.~.n.b.n.~.W.~.j.W.q.F 8XK.j.P.K.W.P.[ = b.}  .+X .~.~.n.W.K.y.K.~.>X+X~.P.W.W.~.b.",
"~.~.~.(.~.y.P.b.P.P.K.b.P.K.K.~.W.(.W.K.W.~.~.;X~.~.~.(.~.~./.(.C.L uXF.x.n.W.K.j.j.w 7 b.k =.&X=.y.y.K.n.+X&X>X+X~.b.W.W.(.~.+X",
"~.+XW.n.P.W.(.;X$X+X(.+X~.W.>X$X%XjX>X&X$X>X%X&X+XP.W.~.W.U.#.y w.D 1X: n x.K.y.l ;.~.[ W.=.2 w y. .n.+X%X+XW.b.K.(.~.W.(.K.~.(.",
"b.~.K.b.W.~.P.$X%X%X(.~.W.P.+X$X$X>X$X%X(.%X(.%X(.~.(.~.~.~.W.5.T.P yXC x.b.j.n. .9  .y.y.~.4.9 W.n.W.~.b.4.n.j.P.W.P.K.P.j.y.~.",
"u.k.2.2.2.|.E.R.E.[.V.m.V.k.k.{.E.i.i.e.m.k.R.k.m.L.V.k.i.k.k.k.f.D +Xr.e.r.| 2.@.>.; 2.e.8 j L.i.Z @.e.m.k.r.>.L.i.r.r.e.k.e.D.",
"b U F F F H F F U F x t i g f u f f x D D v x v x x b v F F F P P ` ] f v x f H g x f f f b F f e F F P b b x x v x x H P H P ! ",
"#X9X=X-X9X0X9XcXrXlX9XK._ sX X-X=X9X-X0X9X-X9XXX=XoX-XXXoX9X-X-X0X9X=X X-XoXoX9X*X].*XXX9XXX0X].*X*XcX9X9X*XoX-X*X*XoX*X9X X9XvX",
"n.y.n.4.~.P.P.P.W.U.I.2.F <X<.l.n.P.~.~.W.P.n.n.K.P.~.P.%X+XW.(.~.W.W.b.W.~.j.P.j.y.W.P.~.b.~.~.4.=.W.n.K.K.3.n.b.W.b.y.j.y.n.W.",
"~.P.~.n.~.~.I.@XQ.X.6 $.D 5X, #.l.4.4.b.n.b.~.(.+X(.&X$X&X~.W.W.~.W.n.n.P.W.;.n.K.j.~.P.(.(.~.=.4.j.~.~.P.W.y.P.j.K.P.n.n.~.K.W.",
"~.j.W.K.W.P.G.Q.y.h.O.q f .XO.t.3.n.n.~.~.%X(.&X;X(.(.K.~.P.P.n.P.K.b.y.b.K.n.P.y.(.~.~.;X&X+XK.n.W.+X$X$X~.~.K.y.3.3.y.n.K.~.~.",
"n.y.P.~.~.W.}.% y. .=.&.x 4Xp.b.K.P.~.~.W.W.P.W.P.(.K.y.y.y.P.W.P.W.b.b.y.W.3.P.K.K.b.K.~.W.y.W.P.W.~.~.W.j. .y.b.n.b.y.b.n.n.P.",
"n.P.~.~.$XP.W.%.K.P.%Xr.F eXy.y.y.n.W.+X~.K.~.W.W.~.n.W.y.K.y.n.~.W.W.P.W.y.~.+Xy.j.y.(.~.K.j.K.y.P.n.b.j.P.K.(.+X~.b.y.P.~.b.K.",
"$X(.W.P.&XK.K.~.W.+Xn...v <X3.y.3.j.y.b.j.n.y.b.K.P.P.P.~.(.3.j.n.y.P.n.b.y.P.y.=.$XhX+X+X~.~.n.P.j.P.~.fX;X%X~.y.j.P.K.W.K.+X~.",
"W.~.+XP.(.(.%X+X;X;X%XN.L DX(.(.$X>X+X~.P.P.K.n.K.K.b.K.P.P.3.b.j.} ~.n.b.+Xo @ ;.~.~.P.W.b.j.n.n.n.P.$X$X%X(.~.K.K.y.W.y.K.+X(.",
"~.j.+XP.~.~.~.W.~.(.n.r.F 7XK.~.(.~.b.(.+X~.+X~.(.~.W.W.P.K.W.P.b.y.$XK.P.=.. . j.b.3.(.~.K.4.y.n.n.y.3.j.y.y.b.K.n.j.j.y.y.b.P.",
"~.+X&XfX(.~.j.P.K.W.W.g.D eX~.W.P.b.=.n.P.K.n.P.W.W.~.W.P.K.~.~.(.~.~.~.j. .% * W.b.P.%X~.$X~.(.~.~.~.K.~.b.P.b.b.b.j.n.K.n.n.P.",
"~.y.W.W.P.W.~.~.W.J.W.2.v eXW.U.y.P.W.W.K.n.n.W.W.W.W.K.K.j.n.P.K.b.~.W.+X4.n.n.3.K.n.(.n.P.W.P.W.P.P.~.W.P.~.$X$X~.W.W.y.j.n.P.",
"n.~.+X~.(.~.~.b.H.A y ,.D tX6 #.Q.P.~.~.(.~.W.~.W.W.(.W.~.~.W.~.n.n.b.y.P.y.W.;.K. .j.b.b.P.W.P.W.~.(.+X~.~.W.W.P.4.+Xb.j.~.b.~.",
"b.~.P.~.~.K.n.n.j.l.m o.g 6XC h.b.W.~.W.~.~.K.W.~.W.W.W.W.~.~.&X+XW.+X~.~.K.y. .K.b.W.~.~.~.W.P.n.K.K.W.y.K.W.y.b.b.y.K.W.n.~.P.",
"K.~.~.~.~.P.b.P.P.K.P.:.g eXj.b.b.n.(.+X~.~.~.~.$X(.~.W.$X%X+X(.+X&X%X;X$X~.~.P.n.K.n.b.n.P.~.P.n.n.K.K.P.W.K.y.K.W.4.~.n.n.~.n.",
"b.n.+Xy.(.+X~.~.+X~.W.m.I iXn.n.P.K.~.(.~.(.(.+X$X+XW.K.~.W.=.y.~.W.n.~.W.b.y.4.n.W.n.K.n.P.n.P.K.K.P.n.b.b.j.n.n.y.j.b.~.P.j.n."
};
