/* XPM */
static char *result[] = {
/* columns rows colors chars-per-pixel */
"64 64 55 1 ",
"  c #0B0703",
". c #0E0804",
"X c #150D06",
"o c #190F07",
"O c #1B1007",
"+ c #1E1208",
"@ c #201307",
"# c #241609",
"$ c #281709",
"% c #26190A",
"& c #2B1B0A",
"* c #311F0B",
"= c #35240E",
"- c #332313",
"; c #392611",
": c #3D2A13",
"> c #3E2C19",
", c #422D13",
"< c #422F19",
"1 c #473015",
"2 c #4A3317",
"3 c #46321B",
"4 c #4D3619",
"5 c #4F381A",
"6 c #543C1E",
"7 c #4A3720",
"8 c #4F3920",
"9 c #543D21",
"0 c #583F22",
"q c #564025",
"w c #5B4223",
"e c #5E472A",
"r c #5F482D",
"t c #604525",
"y c #604728",
"u c #654B2A",
"i c #694E2D",
"p c #6D512E",
"a c #684F30",
"s c #6D5231",
"d c #725532",
"f c #765935",
"g c #7A5C37",
"h c #775B38",
"j c #7C5F39",
"k c #7F613B",
"l c #83653E",
"z c #876842",
"x c #8B6B43",
"c c #907047",
"v c #947349",
"b c #98774C",
"n c #9A794E",
"m c #A07D51",
"M c #A78356",
/* pixels */
"&$&$%$&&oo%#%%o%*$$$$@.$&&+oo@@$*$$$#$$&Oo##%%X#&+&#&+X%&&OoO@+&",
"&%&;3:&>8;9uswuu66l0tpiui0,73093;>,$-*&$oO#=>34>9q223>3>:;%@%+%&",
"+;-:whuws55995aul1ult60tdy,;4du60ua;7uur0uttw6pefdhkwkcwulde3>*&",
"#3%uwhgfvw5zju0e25w66lpuxltgtiudpgl3tzhupdflidawhhlkubvl,dxjje++",
"%:<zijs3xi5ljd902ll5lplti9,dd0fldll,tlidffffuulfssgkdkfft=:zzi%o",
"o:ehjliixx6lzflpllltlllpigiiz0ilfjl*jhajfddfiudfpffpdufdxj,ihe>o",
"oudjxxjjdb6dllfltxltlllpllzpcl0tduu,puufpfdf6uuupkuupfttd66did7%",
"+hfxkjjffujf6ldjwtllllllglitwfdflpi4pp012ppftpudpppfyyu6tli6ffw&",
"*lllfldl6dxltufdu6liwllptplptllttii15tp5=,6t0llluuiptd6iljlwipu&",
"#dlllldkpiljf0dglwiw62lllltwwpl25jp,1;=5t6162ulfuwitp4tdfluj6ui*",
"Xtfllffdtugdk5uptwt61pll2wltptl6ift4616p56tld65tdftittpuupuuswi#",
"Oflgwulu0kpjt66wu52tt1tluwuw6llufliip6666u66dlp6ifwtugfdutpupdt+",
"#gkblwt0ljg6ppk66tt6,51lptllllw666666iltwuupwfld46tgpiipiuudij6o",
"$kxcgf,lgldt6ffpw,,115wll22w6lp6ttu6uu52ddwplupdi5lpppfpiuutu4,@",
"&gxllfu6dpipf5tu16i25lu521ll66ptu26226titwlltg6plw6u4dpldp01,0d#",
"#kxlglgu,wpluft,wluwt662iwwwllluiudttf6tpdgff2glll,tjlljlp4wsdi+",
"$gdkkdd6g6ufgl0iftf52tutll5plul6tpu6wllp2pluuuudiut6lffdptdppdt$",
"#pfd5w60gd65fdfduft22,5lllutpllpuplulltwllwdtlw5p6lp6dffdudupdw$",
"#qf0tt0fugii6uflfuiwtw6ftllpllwwd1126tptflu6w6tuuldl,pldlppttut$",
"Oa2ylp0ufwllpwuguiuull5pptlwtlllwuipw2wfdwlt25lludiut6diupltuiu$",
".gwllpiwwidpllf:wdlllp6fpulplllvttttuldipfwtldlfptldfwwldppppuu@",
"+i5llkpfwiupgldi62llpftwtttllllltllutuid2tdfldtfllffdl6uuifpppu$",
"@0ullpiilpwtufpkwluufuglu2tllvll2wtplp6wwpllupuldpflfld,dffduwt$",
"+1pkfpiufudtdikwllpptplflutllbvptlptupd2dluudflffpdplfl2kpp00tw$",
"#1pkp6wpuudddpfupdllifdullwtllllwwuflu5putpgllpduidpftiwtpuufdu@",
"O5klffpp6wudufpk6wpflllltdf2llll,ulftpdtfllliptutltffflptffdifi@",
"Owglpdpfu6wt505u6lplftfdilpwulMbtdlllffpdpwudpflgdlpilpdwlfppgf#",
"Xyfpfuwuuuk6ddpw52ullppplidi5lMlpltffuffdtgggplgfllfikffwdpugfdO",
"Xuffffddwufpiukpfuu5wfplppiwpdlbwlllilflldgduiggtuilflli11tfggd@",
"+2uiudpdulfkpfdipllp62,wwfiipillilidlllfiugfgldputfdw0tw0fgfglp#",
"#spu1,tpupuutdudfwfpldpw,,5lllllllpplfldggflfdpfkfuwpgfptpppklh#",
"&fllp6utgppuut16w6lplifldp6w5ll2ilpfllplllplutpbgulllflfukggklk&",
"=ullp6uppdgppppllllglplldpulfkg6lpplllllpp5llpptipitpldu5ptttw6*",
"&plblfuwpduwpfflllllgpddfkpfullfllw,wwwp52wlultupplplilw6llllli*",
"@ulllfdpfduuudglgwt6ttpldltupdupllpllpww1uppwttdpifplpll2lpplld*",
"@gglpupllggfuuupliillllliukdffgifltpbillpllt2,tlpptwpdpp6ldldfi@",
"$kgllllfdppdwulllddlglgiplllpdfwpdpllilpMllllu16lplp6w6666tuufpo",
"Ollcltppppuitpldu6plpgppllllglf1dlli2lldlilpdllit5ptlllllgi6wldo",
"Xpkkldllfplu6w62tgfddggdllllugg6ulupltwlllllldlllllullldcllf4w6$",
"Ofllllllflp2lfudplutlpullglglfdt1llll2willullllllliilplllllt6u6@",
"Xhllldugp66ugllgufdgptlllgdugllpplu6tlutlu6llllldltuidplvll6pfiX",
" pu650u051pfglldftppplglupluwut,5wtplpiltultlflipgulfxlldiutlduX",
"+6yfpgpfff6fffuffutdguuffpt6lkgpplwwd6ltwllptwttf0ffljglgltpjdt$",
"#ukpfiuplpttutpll6,puulpfguwutw15twllt,plpulplwlktfdjfldlfugdpu$",
"$pkpt0uifpf6dplf61f6ggfgutwifku6tllt,,2ldddwpwdlpftpffxgldpkffp$",
"$ifptiuigp25ullp2lluwfdgpf:2wttwu6*,tlt2dllt,flpugiluljlgyjdkpd#",
"&dffuwup65tp6d65dgptu6fw6tud55wtu6illtl22llupll6figfkutppuwukfwO",
"@wt06w506uppu:tplpuwld22t5uu6wp26lttdlt26fwllttltklfvff6wcf02pw+",
"#wuflpukuwpp2wufduutpd6wtid551=:uuuutfpguulgwufkpkufllgullldt1w#",
"$kllgfdudpp,uf2ppwdl0twli6t2upppt6wwpi2plup6ukddktfullptfplllft@",
"#plklldppp5wddi56dpuuu,wudp6fwtp6dgt6wullw,jl2ululglllwgdfdlglp#",
"Ofklllkddu5fipp52tp6w0iw5152ffpw25:12ldw5uuw,fgufilcligufllldl6$",
"Xxvcxgkfp2wiuu6pt26ppwdgptt11111&1pgi6,0gdp2jiuvl0uffllllpfpdpd@",
"Ozvvcdfd25uitpuiil6uppgw6uftudpfwptuu2uduufiuiddfld6gldlukplvklo",
"Okccckpw5ppiwppupp0dtiidpdp1wpw,6tufpgttdi6tjlipdpflftlgjdtdjxj@",
"Opxnck0*uppuupupd16flu:plld6wuu5ffgpp6tpiuwlgulpiggldlflldvjtlk$",
".flvxp6i2ppdupipp466ju266wuuksppptwtuptwpxj2dlutdjfujjfhiljdcku$",
"Xqlck5skw2pdfddu1yjy,6jlp66wwwkw:6fpu52pldfidugipxpfidbflldlxdg#",
"+>kkwdsdpu5fwii6ugfuijiupftkkkkiwt6:=5gpdjs04ffllilljdi4fplvldd=",
"+*pwfldpdkw265wwshdutpddww5:66wkg:1wpwpfxswfp6vjpcjdnjtf6tullky*",
"%*3elksidkuiku1dffpfuuuuupi561slu5wii5kduxzfzuizxiffiiftzxzuds2*",
"+$>-ueqeduidiuwpeusu9upew01we6::*=1ii52thuujf0iziuiwyh0shhsd36:#",
"oO&%;q:3e0iip05iuwqww555eq26q8:q>4:=&::1>e99ud8tj3=;6<>uu8er->+ ",
"#&%%&%=&XXoO@+O&&X&*&#o+#&+X.O+&+++%&%=&Xoo+#+o&$o&&&%X+#++..++o"
};
