/* XPM */
static char *result[] = {
/* columns rows colors chars-per-pixel */
"64 64 27 1 ",
"  c #E19F18",
". c #E6A518",
"X c #E7A818",
"o c #EBAC18",
"O c #EEB218",
"+ c #F1B618",
"@ c #F5BC1A",
"# c #F5BD22",
"$ c #F7C11F",
"% c #F8C11F",
"& c #F7C221",
"* c #F9C422",
"= c #FBC826",
"- c #F7C32A",
"; c #F9C62A",
": c #FCCB2A",
"> c #F8C733",
", c #FDCE33",
"< c #FCCE3A",
"1 c #FDD037",
"2 c #FDD03C",
"3 c #FBCE43",
"4 c #FDD243",
"5 c #FDD34B",
"6 c #FDD551",
"7 c #FDD759",
"8 c #FDD861",
/* pixels */
"&**@%22@+*@ooO++$*Oo&*:28* oO+$++@$==$+OOo+$$$$$%:$$=:2==6%$++++",
"@**&@=6=X@O.oO++:2+o*==25@ .o+oO+@+$=:+Ooo$$$+++$**+$57:5,$*$o++",
"@**@+@=:*OX.XO+@1>OO@$=5:+*Oooo$+++$%%$$oO$++$$+$=1=@,12:%$*+XO+",
"@*&@%=&14@o.oO+;4@o+@@$22$,:+ooO+++@$@$%$$$+$+$$$$:,O=22=$+$$OO+",
"+%:%*:,5<*XoO@O&2$OO+oX+2=*5==:oO++@$+$$$+$$+$$$$$@,o@$@$++$%=$O",
"+@*=<4:22@X+@+@@1=OO+O.o*:165:2$$$+$*@O+O$%$+$$=:$+=oXO+@+Oo$%%+",
"O+@=<;$=:++&*@&@$%OoOOo+$$:11::=o++$$+OO+$$$$$=%:=$$O$$$+OXX$$$+",
"+@+=<,&,<&o@%:*@+O++Oo+@$$*=::1:X+@$$$+O+$$====%22$o$$$>@+O+:%+o",
"*+O$*2==5@.+@@&%%=$+ooO++$:==%$$OO+$%$%$+$$$===$=2$X$++:+@$$%$o+",
"@OO@$=*@@+XO@@**%$$+ooO++$41%$$$=+o+$+%$+$$$==$$$*$@OoO$@$=$+$O$",
"+Oo$$+@%+++o+==@$$$=$ooO++*:$$+=:+X$++$$+$$$=%$==**:@oO+$$$Oo++$",
"@o.+++$:*%=@o@+@%=$=$o.O+O++++$=*+.$++$$%$+$%==:2:::$oO$$$$++$*2",
"$O.*$$:::::+.@@@===:$+oOoooO++$$%$o++++$$*$+$$:11=11@+$$$:=%$=:4",
"*OX+++=1:*%+X@@@$$$%@oX+OO+oo++$:$$++oo+$%$$$$=1=$=:@$1$=14%$*15",
"=@+@+O@*%$%@o+@@$++$$$XO+++o+$o$:$+$++O$%$+$$$%,=$:1$@=%$:4*+$:6",
"@@&24Ooo+=:%@+oo$++%=$$+oo$$$$+$$$$@+$+$*$$$$$*=*%*1$O$,12=%$$$1",
"$*%:4*O@@&*$@@+@$O++=%@@o+%$+$*$$+@@$=$$$%$$,*$$%*$$$o$==1==:%%%",
"*:*@%=++@@@$@o@*+ ++*=OO++@+@$%$++@$$:$$%$$+5$o$=:$++$$=$$%,2%$$",
"=**@$:@@@*@@++::++@@@*++$Oo+$$$+$$$***=*=1++:$o$411*=1$$+%161*$$",
"@*=$*:@$*2@O@+%4@@$@+@O$$@O+$$$@$*%$$=:*%=$$$++*152*1%$O$==:,%$$",
"@*:*$*@*:2+O:=%::%**oO@*%%%+$$$@$$%$$==*$$+$$O+*:,$$%%$+=*$*%$$%",
"=&=***=;1=O@@*:$*$=%oo@$$@@O%%%$$$$$*1*:=$++$@@$%%%*%$$+*$$%$$:4",
"2*$@@<3-=$@%$@@$@+%+o+@$$+O+$$@$$%$%41,=1$O++$**$$%:=$++$%$$*=46",
"1%==:6,*$+@@+%$@@+@ooO@=+OO+O@+$%%$*:2=$%$Xoo+$$$$$%$$+O$$$$$=26",
"**:42:=%@+$@@=*+@$%+oo++++%@+$+$%$$$$%$$==..o*=$$$;;*+oo+$*=$*:2",
"==42%*2*=,*$%%@++=*+oXo+*@++O++$$$$$$$$===XXO$:$$,1,>$OX+$**$**=",
"*::@@&*==,$O+++@@%@++O@%+OOO+OX@$$+$$$$=:+XO+O*&&,,=,4*&+$&$==**",
"@=*$&@&<24:$$$oO$%$@O@+@+oO+$Oo@$$$OO+$$$.O$+O@*=35=1=:4+O$&=:*$",
"@==<::=44,,=,:OO+@@+o+++o+$%=%OO++$$++OO.+$Oo++*::;*::44-+$$*:==",
"@$**,,$,,*&*<4$O+@@OO@+OO+=%%:@+++OO+oXoO$+o+$+$:$$&=122>++@$:=:",
"@$*25;+*:#*=<=$++*+o+@++@@$+@$$$+O$$$O++$$OO$$$*:=$&*,>,$++@=1:=",
"$@%22$O++****=@O+%%OO$*OO@+o@$$$$++$%$$%=,+XO+$=4,=$$$*,$oO$=5,%",
"%$@,=$$@OO+$$$+Oo$*OO$:+o++++$$=$+O$$$*=24$++@*=511=*@$$$=21$1*%",
":$O=:$$$+.o++@$$o$1+O$$$.@@$$@+$$+O%$$**:,%Oo$**1::*$&O+%=12:**%",
"1*+@=*$$$$$o+$$=:@$$+$$%O+O@OoO$$$o$$+$$$1$$O$$*&=11=1&O*$=,=***",
"1=+o$==$*2*+oO$%%+$@$=1%@+.X@@O%%$$%+$$+$=+$$+$%=,2:24*+$$$****=",
"*@XO$*:$$::=o$$$*$$O+$%%++X+%@O+*$$+$%$++$$%+$$$*;5>,::;++$$$$$=",
"*$O@$$*$@$=,+$$++$+ @@%=+o+O+OO+$$++$,*$$+$:$+$$O-5:==2,$$%$$+$$",
"@@&+O@$&@$=:X+$+$%+O@+%=+o+++++@$$O@&,,=$$:%$$+$X#**::4:=2=*O@+$",
"$&$**&@$$&3$O+o@1%$:$+$$o+$+++*$+$+$+:&&$$$$%$$$o$*=1*2=>***X++%",
"=&*:<>>*+$%:1%$$$%*=*@$@X*1:$*1%+$$$$$=$$OO$&*,$+::4:%:%%@$*X.o2",
"$$*:1;;@+$=25$*,@@***$$o+=4;+%,=$$%$$$%++$$+&:5&+%:4=$$+@O$$oXO*",
"@$*:5;$O++=,1%$:$@$=2$oo+14$@$=$+$=%$+%+$==+&,,$+$,2:$$+@O++X++$",
"***14:OO$$%1,*$$$@$*1*XO+*=@++@$+$$=$$$O$%,+$**oo@%:%$++O++oO@+$",
"***:2<+O@$$=**$$$$*=:,OX@+++@@o+$$+$$$++$$,$O$$XX++$$@+$+$@+$+O$",
"@***,5*@+$%$%$%%@+=142*X+O+OO@O+%$$$+++$=$$$+$$OOOoO++@$$$+OOO+$",
"@$&@*<,>%*$$$*$$+$:22,*XooOoXo$$$$$$++$+%$$$$$$o+Oo$$$$$@$$$OO@$",
"$**@$&4,:%+$$$$@@$&&=2=XXoXOO $$$+$$+O++$$++O$$+$++@$$+$+=2=OoO@",
"$:21*%*@o@$@@$*@$$+++%O.oO$>&%%%$$$*@OO+O++OOO+@$$$$=*O+@,:*@o+$",
"$1:**:=*OoOO+@%@++++$$X.+$:%==$@+$$=$+O+O+@O+@+OOoO$*$O+$1*@o@@$",
"$***&&*=@.O@@o+@o++$+++X$$$$$$+o+$**$$@XOOO+$*,+ooOO$+O+@=:@+$@$",
"+*=*@==2:.+@+O+$o+$%$+oo+$$+$++X$+***$$Oo+$$%12=$+++$ooO@+$@++$$",
"+@&=:4*,*o@@+++O++$$%*OO+$%$@@Oo$+%2*%1+O$%::122*$+$*$oO+$$O@$$+",
"+++=:%*2$O@+++@:$oO+*4=+O$,@++Oo%$%%%%:$O$$:>14=%@@*$$+O+$@O$*$O",
"XO+::@*,@++@+@=*$+++*:%@O+@OO+oo++$+$$+o+$$::52=++$$$@@@+$OO**$X",
".Oo*:@@=@+o+$%1::$$$$%$@OOX++oXoo$++$:%O+$+$*,1:$$$%$$@=$$@$%$%o",
"o++%,+%::*Oo$==:2:$$=$$@Oo+$$oO++O+++1=$@$++@$*,*$$$$$$=$$@=%=%$",
"X@$+@%=:42@O@**$$1:$==@@OO$$$$o+OO+$+$%$$@++++$%%$$$$+$$$O+%:*$+",
"o+*$+*:4551+@@$$+%6:$++$++$$++oOOO+++$$++++++@%:2*$$$+$$1$$$$$$$",
"$$$:@*121,2@+@+@$$*5$++$+O$$+$+$@oO+++$+++@$%$%12:$$$$$%1:$$$$=*",
"$@@$O@@::==@o++@@+$2@oo@OoO+$$O$@+OO$+@@@@+@11$:2=$$+++%$$$+@+%%",
"++$oO@@@:=:$oO+++@+$@@O+ .+$+++$%$++$@+@$$@@::$**$$$$$+$%+o+++%:",
"$@$@*62+%::$XXX++@+@O$=:$Xo$OO+$=*$@$+$$++$$$,=*+X+$$%$++XoO++$=",
"+%%%*5:@*%@O ..OO+@@@$:12$o++O$+$==$+@$@$O$*$=66,+O$=$$$$%+o++$%"
};
